{
.appVersion = "3110";
.formatVersion = 3;
DisplayStrings = (
"A B C D E F G /_all.comp  I J K L M N O P Q R S T U V W X Y Z",
"Hermann
Zapf präsentiert:
Mergenthaler
Antiqua Kursive",
HHHMHHN,
"nnſhnn"
);
axes = (
{
name = "Optical size";
tag = opsz;
},
{
name = Weight;
tag = wght;
},
{
name = Italic;
tag = ital;
}
);
classes = (
{
automatic = 1;
code = "A Adieresis B C Cdotaccent D E Edieresis Edotaccent F G Gdotaccent H I Idieresis J K L M N O Odieresis P Q R S T U Udieresis V W Wdieresis X Y Ydieresis Z Zdotaccent";
name = Uppercase;
}
);
customParameters = (
{
name = "Virtual Master";
value = (
{
Axis = "Optical size";
Location = 9;
},
{
Axis = Weight;
Location = 160;
},
{
Axis = Italic;
Location = 0;
}
);
}
);
date = "2012-03-18 19:20:00 +0000";
familyName = "Mergenthaler Antiqua";
featurePrefixes = (
{
code = "languagesystem DFLT dflt; languagesystem latn dflt; ";
name = Languagesystems;
}
);
features = (
{
automatic = 1;
code = "feature case;
feature locl;
";
tag = aalt;
},
{
automatic = 1;
code = "lookup ccmp_Other_1 {
	@CombiningTopAccents = [dieresiscomb dotaccentcomb];
	sub [i]' @CombiningTopAccents by [idotless];
	@Markscomb = [dieresiscomb dotaccentcomb];
	@MarkscombCase = [dieresiscomb.case dotaccentcomb.case];
	sub @Markscomb @Markscomb' by @MarkscombCase;
	sub @Uppercase @Markscomb' by @MarkscombCase;
} ccmp_Other_1;

lookup ccmp_Other_2 {
	sub @Markscomb' @MarkscombCase by @MarkscombCase;
	sub @MarkscombCase @Markscomb' by @MarkscombCase;
} ccmp_Other_2;

lookup ccmp_latn_1 {
	sub fi by f i;
	sub fl by f l;
} ccmp_latn_1;

script latn;
lookup ccmp_latn_1;
";
tag = ccmp;
},
{
automatic = 1;
code = "lookup locl_latn_0 {
	script latn;
	language AZE;
	sub i by idotaccent;
	language CRT;
	sub i by idotaccent;
	language KAZ;
	sub i by idotaccent;
	language TAT;
	sub i by idotaccent;
	language TRK;
	sub i by idotaccent;
} locl_latn_0;
";
tag = locl;
},
{
automatic = 1;
code = "sub dieresiscomb by dieresiscomb.case;

glyphs = (
{
glyphname = A;
kernLeft = A;
kernRight = A;
lastChange = "2021-05-10 21:09:49 +0000";
layers = (
{
anchors = (
{
name = top;
pos = (650,1210);
}
);
background = {
shapes = (
{
closed = 1;
nodes = (
(88,8,o),
(172,16,o),
(229,16,cs),
(279,16,o),
(420,8,o),
(461,8,c),
(471,18,l),
(471,56,l),
(461,66,l),
(404,69,o),
(354,85,o),
(332,111,cs),
(305,143,o),
(310,200,o),
(329,253,cs),
(635,1068,l),
(610,1068,l),
(905,229,ls),
(924,176,o),
(938,115,o),
(900,92,c),
(875,74,o),
(835,70,o),
(779,66,c),
(769,56,l),
(769,18,l),
(779,8,l),
(826,8,o),
(1002,16,o),
(1050,16,cs),
(1094,16,o),
(1196,8,o),
(1263,8,c),
(1273,18,l),
(1273,56,l),
(1263,66,l),
(1183,70,o),
(1141,86,o),
(1123,108,cs),
(1104,133,o),
(1082,193,o),
(1064,244,cs),
(825,920,ls),
(791,1016,o),
(760,1111,o),
(731,1207,c),
(719,1218,l),
(616,1218,l),
(605,1209,l),
(586,1146,o),
(571,1100,o),
(550,1044,cs),
(256,264,ls),
(229,193,o),
(201,148,o),
(175,122,cs),
(143,90,o),
(101,72,o),
(47,66,c),
(37,56,l),
(37,18,l),
(47,8,l)
);
},
{
closed = 1;
nodes = (
(942,409,l),
(942,469,l),
(361,469,l),
(361,409,l)
);
}
);
};
hints = (
{
name = _corner.universal;
origin = (0,50);
type = Corner;
},
{
name = _corner.universal;
origin = (0,51);
type = Corner;
},
{
name = _corner.universal;
origin = (0,5);
type = Corner;
},
{
name = _corner.universal;
origin = (0,6);
type = Corner;
},
{
name = _corner.universal;
origin = (0,21);
type = Corner;
},
{
name = _corner.universal;
origin = (0,22);
type = Corner;
},
{
name = _corner.universal;
origin = (0,28);
type = Corner;
},
{
name = _corner.universal;
origin = (0,29);
type = Corner;
},
{
name = _corner.universal;
origin = (0,39);
type = Corner;
},
{
name = _corner.universal;
origin = (0,40);
type = Corner;
}
);
layerId = "CA4EC710-46DE-40B5-AF89-3BCF48EEB297";
shapes = (
{
closed = 1;
nodes = (
(105,0,o),
(163,6,o),
(229,6,cs),
(308,6,o),
(399,-2,o),
(471,-2,c),
(471,56,l),
(401,60,o),
(353,75,o),
(332,101,cs),
(315,122,o),
(302,169,o),
(329,242,cs),
(631,1068,l),
(614,1068,l),
(905,219,ls),
(924,164,o),
(937,106,o),
(901,82,cs),
(876,65,o),
(835,60,o),
(769,57,c),
(769,-2,l),
(873,-2,o),
(959,6,o),
(1050,6,cs),
(1110,6,o),
(1177,-2,o),
(1273,-2,c),
(1273,56,l),
(1182,61,o),
(1141,76,o),
(1123,98,cs),
(1102,123,o),
(1081,183,o),
(1064,234,cs),
(825,930,ls),
(792,1025,o),
(761,1119,o),
(728,1228,c),
(607,1228,l),
(587,1161,o),
(570,1108,o),
(550,1054,cs),
(256,254,ls),
(229,182,o),
(202,139,o),
(175,112,cs),
(144,81,o),
(101,64,o),
(37,59,c),
(37,0,l)
);
},
{
closed = 1;
nodes = (
(942,409,l),
(942,469,l),
(361,469,l),
(361,409,l)
);
}
);
width = 1300;
},
{
anchors = (
{
name = top;
pos = (650,1210);
}
);
background = {
shapes = (
{
closed = 1;
nodes = (
(100,-2,o),
(161,6,o),
(229,6,cs),
(311,6,o),
(407,-2,o),
(465,-2,c),
(481,14,l),
(481,60,l),
(465,76,l),
(408,79,o),
(359,93,o),
(340,117,cs),
(325,136,o),
(312,179,o),
(338,249,cs),
(645,1068,l),
(600,1068,l),
(896,226,ls),
(915,172,o),
(925,120,o),
(895,100,cs),
(871,84,o),
(830,80,o),
(775,76,c),
(759,60,l),
(759,14,l),
(775,-2,l),
(868,-2,o),
(957,6,o),
(1050,6,cs),
(1112,6,o),
(1181,-2,o),
(1267,-2,c),
(1283,14,l),
(1283,60,l),
(1267,76,l),
(1188,80,o),
(1147,94,o),
(1131,114,cs),
(1111,138,o),
(1091,196,o),
(1073,247,cs),
(834,923,ls),
(800,1020,o),
(769,1116,o),
(740,1213,c),
(722,1228,l),
(612,1228,l),
(595,1213,l),
(578,1158,o),
(562,1103,o),
(541,1048,cs),
(247,268,ls),
(220,196,o),
(194,155,o),
(168,129,cs),
(137,98,o),
(95,82,o),
(43,76,c),
(27,60,l),
(27,14,l),
(43,-2,l)
);
},
{
closed = 1;
nodes = (
(952,399,l),
(952,479,l),
(351,479,l),
(351,399,l)
);
}
);
};
hints = (
{
name = _corner.universal;
origin = (0,50);
type = Corner;
},
{
name = _corner.universal;
origin = (0,51);
type = Corner;
},
{
name = _corner.universal;
origin = (0,5);
type = Corner;
},
{
name = _corner.universal;
origin = (0,6);
type = Corner;
},
{
name = _corner.universal;
origin = (0,21);
type = Corner;
},
{
name = _corner.universal;
origin = (0,22);
type = Corner;
},
{
name = _corner.universal;
origin = (0,28);
type = Corner;
},
{
name = _corner.universal;
origin = (0,29);
type = Corner;
},
{
name = _corner.universal;
origin = (0,39);
type = Corner;
},
{
name = _corner.universal;
origin = (0,40);
type = Corner;
}
);
layerId = "25879A17-30FE-49F5-8BDD-4D78448C8558";
shapes = (
{
closed = 1;
nodes = (
(103,-2,o),
(161,6,o),
(229,6,cs),
(311,6,o),
(407,-2,o),
(481,-2,c),
(481,76,l),
(408,79,o),
(359,93,o),
(340,117,cs),
(325,136,o),
(312,179,o),
(338,249,cs),
(645,1068,l),
(600,1068,l),
(896,226,ls),
(915,172,o),
(925,120,o),
(895,100,cs),
(871,84,o),
(830,80,o),
(759,76,c),
(759,-2,l),
(868,-2,o),
(957,6,o),
(1050,6,cs),
(1112,6,o),
(1181,-2,o),
(1283,-2,c),
(1283,76,l),
(1188,80,o),
(1147,94,o),
(1131,114,cs),
(1111,138,o),
(1090,198,o),
(1073,247,cs),
(834,923,ls),
(800,1020,o),
(769,1116,o),
(735,1228,c),
(600,1228,l),
(579,1158,o),
(562,1103,o),
(541,1048,cs),
(247,268,ls),
(220,196,o),
(194,155,o),
(168,129,cs),
(137,98,o),
(95,82,o),
(27,78,c),
(27,-2,l)
);
},
{
closed = 1;
nodes = (
(952,399,l),
(952,479,l),
(351,479,l),
(351,399,l)
);
}
);
width = 1300;
},
{
anchors = (
{
name = top;
pos = (909,1210);
}
);
background = {
shapes = (
{
closed = 1;
nodes = (
(4,-2,o),
(62,6,o),
(169,6,cs),
(242,6,o),
(379,-2,o),
(437,-2,c),
(456,14,l),
(456,60,l),
(440,76,l),
(324,78,o),
(274,100,o),
(274,155,cs),
(274,183,o),
(288,215,o),
(317,258,cs),
(862,1068,l),
(803,1068,l),
(806,226,ls),
(806,172,o),
(803,122,o),
(774,100,cs),
(751,82,o),
(711,78,o),
(649,76,c),
(633,60,l),
(633,14,l),
(650,-2,l),
(736,-2,o),
(813,6,o),
(899,6,cs),
(961,6,o),
(1052,-2,o),
(1138,-2,c),
(1157,14,l),
(1157,60,l),
(1141,76,l),
(1067,79,o),
(1027,83,o),
(1004,114,cs),
(984,141,o),
(980,196,o),
(980,247,cs),
(974,923,ls),
(973,1020,o),
(975,1114,o),
(977,1212,c),
(961,1228,l),
(863,1228,l),
(842,1213,l),
(812,1158,o),
(779,1102,o),
(742,1048,cs),
(209,268,ls),
(160,197,o),
(130,168,o),
(98,141,cs),
(68,116,o),
(13,84,o),
(-64,76,c),
(-80,60,l),
(-80,14,l),
(-63,-2,l)
);
},
{
closed = 1;
nodes = (
(913,409,l),
(923,489,l),
(407,489,l),
(330,409,l)
);
}
);
};
hints = (
{
name = _corner.universal;
origin = (0,50);
type = Corner;
},
{
name = _corner.universal;
origin = (0,51);
type = Corner;
},
{
name = _corner.universal;
origin = (0,5);
type = Corner;
},
{
name = _corner.universal;
origin = (0,6);
type = Corner;
},
{
name = _corner.universal;
origin = (0,21);
type = Corner;
},
{
name = _corner.universal;
origin = (0,22);
type = Corner;
},
{
name = _corner.universal;
origin = (0,28);
type = Corner;
},
{
name = _corner.universal;
origin = (0,29);
type = Corner;
},
{
name = _corner.universal;
origin = (0,39);
type = Corner;
},
{
name = _corner.universal;
origin = (0,40);
type = Corner;
}
);
layerId = master01;
shapes = (
{
closed = 1;
nodes = (
(4,-2,o),
(62,6,o),
(169,6,cs),
(246,6,o),
(379,-2,o),
(456,-2,c),
(456,76,l),
(324,78,o),
(274,100,o),
(274,155,cs),
(274,183,o),
(288,215,o),
(317,258,cs),
(862,1068,l),
(803,1068,l),
(806,226,ls),
(806,172,o),
(803,122,o),
(774,100,cs),
(751,82,o),
(711,78,o),
(633,76,c),
(633,-2,l),
(736,-2,o),
(813,6,o),
(899,6,cs),
(961,6,o),
(1052,-2,o),
(1157,-2,c),
(1157,76,l),
(1067,79,o),
(1027,83,o),
(1004,114,cs),
(984,141,o),
(980,196,o),
(980,247,cs),
(974,923,ls),
(973,1020,o),
(975,1130,o),
(977,1228,c),
(851,1229,l),
(821,1174,o),
(779,1102,o),
(742,1048,cs),
(209,268,ls),
(160,197,o),
(130,168,o),
(98,141,cs),
(68,116,o),
(13,84,o),
(-64,76,c),
(-64,-2,l)
);
},
{
closed = 1;
nodes = (
(912,399,l),
(922,479,l),
(406,479,l),
(329,399,l)
);
}
);
width = 1300;
}
);
unicode = 65;
},
{
glyphname = B;
kernLeft = E;
lastChange = "2021-05-08 15:00:31 +0000";
layers = (
{
background = {
hints = (
{
name = _corner.universal;
origin = (0,24);
type = Corner;
},
{
name = _corner.universal;
origin = (0,25);
type = Corner;
},
{
name = _corner.universal;
origin = (0,38);
type = Corner;
},
{
name = _corner.universal;
origin = (0,39);
type = Corner;
}
);
shapes = (
{
closed = 1;
nodes = (
(726,-8,o),
(829,15,o),
(910,58,cs),
(1032,123,o),
(1075,224,o),
(1075,333,cs),
(1075,532,o),
(931,671,o),
(625,671,c),
(620,639,l),
(875,660,o),
(1002,785,o),
(1002,942,cs),
(1002,1048,o),
(950,1132,o),
(847,1178,cs),
(782,1207,o),
(696,1218,o),
(602,1218,cs),
(490,1218,o),
(380,1204,o),
(295,1204,cs),
(218,1204,o),
(132,1216,o),
(32,1216,c),
(32,1158,l),
(115,1158,o),
(166,1154,o),
(189,1129,cs),
(206,1111,o),
(212,1062,o),
(212,977,cs),
(212,220,ls),
(212,124,o),
(202,100,o),
(172,80,cs),
(145,62,o),
(98,57,o),
(32,54,c),
(32,-4,l),
(136,-4,o),
(215,6,o),
(306,6,cs),
(384,6,o),
(490,-8,o),
(583,-8,cs)
);
},
{
closed = 1;
nodes = (
(502,52,o),
(429,56,o),
(400,76,cs),
(371,96,o),
(366,144,o),
(366,277,cs),
(366,879,ls),
(366,955,o),
(366,1066,o),
(387,1108,cs),
(409,1153,o),
(487,1158,o),
(553,1158,cs),
(754,1158,o),
(832,1074,o),
(832,935,cs),
(832,785,o),
(748,681,o),
(576,681,cs),
(295,681,l),
(295,621,l),
(546,621,ls),
(811,621,o),
(895,524,o),
(895,336,cs),
(895,170,o),
(818,52,o),
(565,52,cs)
);
}
);
};
hints = (
{
name = _corner.universal;
origin = (0,24);
type = Corner;
},
{
name = _corner.universal;
origin = (0,25);
type = Corner;
},
{
name = _corner.universal;
origin = (0,38);
type = Corner;
},
{
name = _corner.universal;
origin = (0,39);
type = Corner;
}
);
layerId = "CA4EC710-46DE-40B5-AF89-3BCF48EEB297";
shapes = (
{
closed = 1;
nodes = (
(744,-8,o),
(899,25,o),
(992,118,cs),
(1052,178,o),
(1075,253,o),
(1075,333,cs),
(1075,532,o),
(931,671,o),
(625,671,c),
(620,639,l),
(875,660,o),
(1002,785,o),
(1002,942,cs),
(1002,1010,o),
(979,1074,o),
(938,1115,cs),
(849,1204,o),
(726,1218,o),
(602,1218,cs),
(490,1218,o),
(380,1204,o),
(295,1204,cs),
(218,1204,o),
(132,1216,o),
(32,1216,c),
(32,1158,l),
(115,1158,o),
(166,1154,o),
(189,1129,cs),
(206,1111,o),
(212,1062,o),
(212,977,cs),
(212,220,ls),
(212,124,o),
(202,100,o),
(172,80,cs),
(145,62,o),
(98,57,o),
(32,54,c),
(32,-4,l),
(136,-4,o),
(215,6,o),
(306,6,cs),
(384,6,o),
(490,-8,o),
(583,-8,cs)
);
},
{
closed = 1;
nodes = (
(502,52,o),
(429,56,o),
(400,76,cs),
(371,96,o),
(366,144,o),
(366,277,cs),
(366,879,ls),
(366,955,o),
(366,1066,o),
(387,1108,cs),
(409,1153,o),
(487,1158,o),
(553,1158,cs),
(754,1158,o),
(832,1074,o),
(832,935,cs),
(832,785,o),
(748,681,o),
(576,681,cs),
(295,681,l),
(295,621,l),
(546,621,ls),
(811,621,o),
(895,524,o),
(895,336,cs),
(895,170,o),
(818,52,o),
(565,52,cs)
);
}
);
userData = {
com.typemytype.robofont.mark = (
0.967,
0.6,
1,
1
);
};
width = 1200;
},
{
background = {
hints = (
{
name = _corner.universal;
origin = (0,24);
type = Corner;
},
{
name = _corner.universal;
origin = (0,25);
type = Corner;
},
{
name = _corner.universal;
origin = (0,38);
type = Corner;
},
{
name = _corner.universal;
origin = (0,39);
type = Corner;
}
);
shapes = (
{
closed = 1;
nodes = (
(727,-8,o),
(832,16,o),
(915,59,cs),
(1039,123,o),
(1085,227,o),
(1085,335,cs),
(1085,530,o),
(934,668,o),
(621,668,c),
(591,642,l),
(869,655,o),
(1012,782,o),
(1012,940,cs),
(1012,1045,o),
(956,1129,o),
(851,1177,cs),
(785,1207,o),
(697,1218,o),
(602,1218,cs),
(489,1218,o),
(379,1204,o),
(295,1204,cs),
(216,1204,o),
(136,1216,o),
(22,1216,c),
(22,1138,l),
(110,1138,o),
(161,1135,o),
(182,1112,cs),
(196,1097,o),
(202,1053,o),
(202,972,cs),
(202,225,ls),
(202,136,o),
(193,116,o),
(166,98,cs),
(140,81,o),
(93,77,o),
(22,73,c),
(22,-4,l),
(140,-4,o),
(213,6,o),
(306,6,cs),
(383,6,o),
(489,-8,o),
(583,-8,cs)
);
},
{
closed = 1;
nodes = (
(502,72,o),
(432,76,o),
(406,94,cs),
(381,111,o),
(376,154,o),
(376,282,cs),
(376,874,ls),
(376,948,o),
(376,1054,o),
(396,1094,cs),
(415,1133,o),
(488,1138,o),
(553,1138,cs),
(747,1138,o),
(822,1061,o),
(822,930,cs),
(822,788,o),
(742,691,o),
(576,691,cs),
(285,691,l),
(285,611,l),
(546,611,ls),
(804,611,o),
(885,521,o),
(885,341,cs),
(885,182,o),
(811,72,o),
(565,72,cs)
);
}
);
};
hints = (
{
name = _corner.universal;
origin = (0,24);
type = Corner;
},
{
name = _corner.universal;
origin = (0,25);
type = Corner;
},
{
name = _corner.universal;
origin = (0,38);
type = Corner;
},
{
name = _corner.universal;
origin = (0,39);
type = Corner;
}
);
layerId = "25879A17-30FE-49F5-8BDD-4D78448C8558";
shapes = (
{
closed = 1;
nodes = (
(745,-8,o),
(906,27,o),
(1000,120,cs),
(1061,181,o),
(1085,257,o),
(1085,335,cs),
(1085,530,o),
(934,668,o),
(621,668,c),
(591,642,l),
(869,655,o),
(1012,782,o),
(1012,940,cs),
(1012,1010,o),
(987,1070,o),
(940,1117,cs),
(855,1202,o),
(725,1218,o),
(602,1218,cs),
(489,1218,o),
(379,1204,o),
(295,1204,cs),
(216,1204,o),
(136,1216,o),
(22,1216,c),
(22,1138,l),
(110,1138,o),
(161,1135,o),
(182,1112,cs),
(196,1097,o),
(202,1053,o),
(202,972,cs),
(202,225,ls),
(202,136,o),
(193,116,o),
(166,98,cs),
(140,81,o),
(93,77,o),
(22,73,c),
(22,-4,l),
(140,-4,o),
(213,6,o),
(306,6,cs),
(383,6,o),
(489,-8,o),
(583,-8,cs)
);
},
{
closed = 1;
nodes = (
(502,72,o),
(423,76,o),
(400,99,cs),
(383,116,o),
(376,154,o),
(376,282,cs),
(376,874,ls),
(376,948,o),
(376,1054,o),
(396,1094,cs),
(415,1133,o),
(488,1138,o),
(553,1138,cs),
(747,1138,o),
(822,1061,o),
(822,930,cs),
(822,788,o),
(742,691,o),
(576,691,cs),
(285,691,l),
(285,611,l),
(546,611,ls),
(804,611,o),
(885,521,o),
(885,341,cs),
(885,182,o),
(811,72,o),
(565,72,cs)
);
}
);
width = 1200;
},
{
background = {
hints = (
{
name = _corner.universal;
place = (1030, 0);
type = Corner;
},
{
name = _corner.universal;
place = (1116, 0);
type = Corner;
},
{
name = _corner.universal;
place = (1210, 0);
type = Corner;
},
{
name = _corner.universal;
place = (289, 0);
type = Corner;
},
{
name = _corner.universal;
place = (289, 0);
type = Corner;
},
{
name = _corner.universal;
place = (35, 0);
type = Corner;
},
{
name = _corner.universal;
place = (35, 0);
type = Corner;
},
{
name = _corner.universal;
place = (946, 0);
type = Corner;
},
{
name = _corner.universal;
place = (1068, 0);
type = Corner;
},
{
name = _corner.universal;
place = (984, 0);
type = Corner;
},
{
name = _corner.universal;
place = (289, 0);
type = Corner;
},
{
name = _corner.universal;
place = (289, 0);
type = Corner;
},
{
name = _corner.universal;
place = (35, 0);
type = Corner;
},
{
name = _corner.universal;
place = (35, 0);
type = Corner;
},
{
name = _corner.universal;
place = (289, 0);
type = Corner;
},
{
name = _corner.universal;
place = (289, 0);
type = Corner;
},
{
name = _corner.universal;
place = (35, 0);
type = Corner;
},
{
name = _corner.universal;
place = (35, 0);
type = Corner;
},
{
name = _corner.universal;
origin = (0,24);
type = Corner;
},
{
name = _corner.universal;
origin = (0,25);
type = Corner;
},
{
name = _corner.universal;
origin = (0,38);
type = Corner;
},
{
name = _corner.universal;
origin = (0,39);
type = Corner;
}
);
shapes = (
{
closed = 1;
nodes = (
(695,-8,o),
(865,15,o),
(970,120,cs),
(1021,171,o),
(1051,228,o),
(1066,289,cs),
(1117,499,o),
(973,659,o),
(638,659,c),
(688,633,l),
(973,633,o),
(1118,754,o),
(1153,898,cs),
(1176,991,o),
(1152,1078,o),
(1094,1136,cs),
(1031,1199,o),
(954,1218,o),
(847,1218,cs),
(753,1218,o),
(650,1204,o),
(555,1204,cs),
(476,1204,o),
(392,1216,o),
(289,1216,c),
(289,1139,l),
(375,1135,o),
(405,1118,o),
(416,1094,cs),
(427,1070,o),
(416,1025,o),
(403,972,cs),
(217,225,ls),
(204,173,o),
(189,140,o),
(167,118,cs),
(145,96,o),
(109,77,o),
(35,73,c),
(35,-4,l),
(109,-4,o),
(192,6,o),
(267,6,cs),
(344,6,o),
(447,-8,o),
(541,-8,cs)
);
},
{
closed = 1;
nodes = (
(462,72,o),
(413,85,o),
(394,107,cs),
(374,131,o),
(377,154,o),
(409,282,cs),
(568,922,ls),
(588,1004,o),
(601,1055,o),
(631,1090,cs),
(663,1128,o),
(732,1138,o),
(797,1138,cs),
(944,1138,o),
(1000,1042,o),
(961,888,cs),
(930,767,o),
(844,691,o),
(688,691,cs),
(417,691,l),
(397,611,l),
(638,611,ls),
(835,611,o),
(916,491,o),
(867,295,cs),
(834,163,o),
(726,72,o),
(550,72,cs)
);
}
);
};
backgroundImage = {
imagePath = "Mergenthaler docs/Kursiv/uppercase.tif";
locked = 1;
pos = (-1793,-483);
scale = (189.9767,189.9767);
};
hints = (
{
name = _corner.universal;
origin = (0,24);
type = Corner;
},
{
name = _corner.universal;
origin = (0,25);
type = Corner;
},
{
name = _corner.universal;
origin = (0,38);
type = Corner;
},
{
name = _corner.universal;
origin = (0,39);
type = Corner;
}
);
layerId = master01;
shapes = (
{
closed = 1;
nodes = (
(695,-8,o),
(865,15,o),
(970,120,cs),
(1049,199,o),
(1076,296,o),
(1076,368,cs),
(1076,538,o),
(929,659,o),
(638,659,c),
(688,633,l),
(945,633,o),
(1162,748,o),
(1162,967,cs),
(1162,1033,o),
(1137,1093,o),
(1094,1136,cs),
(1031,1199,o),
(954,1218,o),
(847,1218,cs),
(753,1218,o),
(650,1204,o),
(555,1204,cs),
(476,1204,o),
(392,1216,o),
(289,1216,c),
(289,1139,l),
(375,1135,o),
(405,1118,o),
(416,1094,cs),
(427,1070,o),
(416,1025,o),
(403,972,cs),
(217,225,ls),
(204,173,o),
(189,140,o),
(167,118,cs),
(145,96,o),
(109,77,o),
(35,73,c),
(35,-4,l),
(109,-4,o),
(192,6,o),
(267,6,cs),
(344,6,o),
(447,-8,o),
(554,-8,cs)
);
},
{
closed = 1;
nodes = (
(462,72,o),
(416,85,o),
(398,103,cs),
(374,127,o),
(377,154,o),
(409,282,cs),
(568,922,ls),
(588,1004,o),
(601,1055,o),
(631,1090,cs),
(663,1128,o),
(732,1138,o),
(797,1138,cs),
(913,1138,o),
(973,1078,o),
(973,976,cs),
(973,860,o),
(914,691,o),
(688,691,cs),
(417,691,l),
(397,611,l),
(638,611,ls),
(797,611,o),
(881,533,o),
(881,399,cs),
(881,224,o),
(777,72,o),
(550,72,cs)
);
}
);
width = 1200;
}
);
unicode = 66;
},
{
glyphname = C;
kernLeft = G;
kernRight = C;
lastChange = "2021-08-21 11:26:18 +0000";
layers = (
{
anchors = (
{
name = bottom;
pos = (590,0);
},
{
name = top;
pos = (590,1210);
}
);
hints = (
{
name = _corner.universal;
origin = (0,2);
type = Corner;
},
{
name = _corner.universal;
origin = (0,3);
type = Corner;
},
{
name = _corner.universal;
origin = (0,19);
type = Corner;
},
{
name = _corner.universal;
origin = (0,20);
type = Corner;
},
{
name = _corner.universal;
origin = (0,15);
type = Corner;
},
{
name = _corner.universal;
origin = (0,16);
type = Corner;
}
);
layerId = "CA4EC710-46DE-40B5-AF89-3BCF48EEB297";
shapes = (
{
closed = 1;
nodes = (
(855,-30,o),
(1001,149,o),
(1002,422,c),
(936,422,l),
(919,151,o),
(784,40,o),
(591,40,cs),
(363,40,o),
(266,249,o),
(266,610,cs),
(266,954,o),
(377,1178,o),
(599,1178,cs),
(777,1178,o),
(887,1057,o),
(925,826,c),
(985,826,l),
(985,956,o),
(987,1090,o),
(993,1220,c),
(939,1220,l),
(877,1073,l),
(919,1065,l),
(851,1178,o),
(737,1240,o),
(598,1240,cs),
(301,1240,o),
(85,994,o),
(85,610,cs),
(85,215,o),
(275,-30,o),
(580,-30,cs)
);
}
);
width = 1100;
},
{
anchors = (
{
name = bottom;
pos = (590,0);
},
{
name = top;
pos = (590,1210);
}
);
background = {
shapes = (
{
closed = 1;
nodes = (
(904,164,o),
(775,50,o),
(591,50,cs),
(371,50,o),
(276,254,o),
(276,610,cs),
(276,944,o),
(384,1160,o),
(599,1160,cs),
(768,1160,o),
(874,1044,o),
(913,824,c),
(929,806,l),
(980,806,l),
(995,822,l),
(995,949,o),
(997,1077,o),
(1003,1204,c),
(988,1220,l),
(944,1220,l),
(926,1206,l),
(863,1055,l),
(938,1041,l),
(871,1168,o),
(747,1242,o),
(598,1242,cs),
(296,1242,o),
(75,992,o),
(75,610,cs),
(75,218,o),
(270,-32,o),
(580,-32,cs),
(861,-32,o),
(1021,160,o),
(1018,426,c),
(1001,442,l),
(935,442,l),
(918,426,l)
);
}
);
};
hints = (
{
name = _corner.universal;
origin = (0,2);
type = Corner;
},
{
name = _corner.universal;
origin = (0,3);
type = Corner;
},
{
name = _corner.universal;
origin = (0,19);
type = Corner;
},
{
name = _corner.universal;
origin = (0,20);
type = Corner;
},
{
name = _corner.universal;
origin = (0,15);
type = Corner;
},
{
name = _corner.universal;
origin = (0,16);
type = Corner;
}
);
layerId = "25879A17-30FE-49F5-8BDD-4D78448C8558";
shapes = (
{
closed = 1;
nodes = (
(863,-30,o),
(1015,160,o),
(1012,442,c),
(927,442,l),
(912,170,o),
(781,60,o),
(591,60,cs),
(371,60,o),
(276,259,o),
(276,610,cs),
(276,944,o),
(384,1158,o),
(599,1158,cs),
(773,1158,o),
(880,1038,o),
(916,806,c),
(995,806,l),
(995,943,o),
(997,1083,o),
(1004,1220,c),
(932,1220,l),
(863,1055,l),
(938,1041,l),
(871,1168,o),
(747,1240,o),
(598,1240,cs),
(296,1240,o),
(75,992,o),
(75,610,cs),
(75,218,o),
(270,-30,o),
(580,-30,cs)
);
}
);
width = 1100;
},
{
anchors = (
{
name = bottom;
pos = (500,0);
},
{
name = top;
pos = (760,1210);
}
);
background = {
hints = (
{
name = _corner.universal;
place = (966, 0);
type = Corner;
},
{
name = _corner.universal;
place = (1045, 0);
type = Corner;
},
{
name = _corner.universal;
place = (1151, 0);
type = Corner;
},
{
name = _corner.universal;
place = (1083, 0);
type = Corner;
},
{
name = _corner.universal;
origin = (0,2);
type = Corner;
},
{
name = _corner.universal;
origin = (0,3);
type = Corner;
},
{
name = _corner.universal;
origin = (0,15);
type = Corner;
},
{
name = _corner.universal;
origin = (0,16);
type = Corner;
},
{
name = _corner.universal;
origin = (0,19);
type = Corner;
},
{
name = _corner.universal;
origin = (0,20);
type = Corner;
}
);
shapes = (
{
closed = 1;
nodes = (
(734,-32,o),
(892,128,o),
(966,383,c),
(881,410,l),
(795,161,o),
(669,58,o),
(516,58,cs),
(308,58,o),
(243,267,o),
(328,610,cs),
(408,932,o),
(586,1158,o),
(745,1158,cs),
(910,1158,o),
(1011,1004,o),
(988,760,c),
(1071,760,l),
(1082,907,o),
(1104,1040,o),
(1151,1209,c),
(1083,1231,l),
(971,1055,l),
(1061,1065,l),
(1003,1162,o),
(892,1240,o),
(741,1240,cs),
(509,1240,o),
(208,970,o),
(135,640,cs),
(42,227,o),
(188,-32,o),
(504,-32,cs)
);
}
);
};
backgroundImage = {
imagePath = "Mergenthaler docs/Kursiv/uppercase.tif";
locked = 1;
pos = (-3279,-477);
scale = (189.9767,189.9767);
};
hints = (
{
name = _corner.universal;
origin = (0,2);
type = Corner;
},
{
name = _corner.universal;
origin = (0,3);
type = Corner;
},
{
name = _corner.universal;
origin = (0,19);
type = Corner;
},
{
name = _corner.universal;
origin = (0,20);
type = Corner;
},
{
name = _corner.universal;
origin = (0,15);
type = Corner;
},
{
name = _corner.universal;
origin = (0,16);
type = Corner;
}
);
layerId = master01;
shapes = (
{
closed = 1;
nodes = (
(728,-30,o),
(886,128,o),
(960,383,c),
(875,410,l),
(789,161,o),
(663,60,o),
(510,60,cs),
(361,60,o),
(286,165,o),
(286,351,cs),
(286,732,o),
(515,1158,o),
(739,1158,cs),
(904,1158,o),
(1005,1004,o),
(982,760,c),
(1065,760,l),
(1081,907,o),
(1103,1040,o),
(1145,1209,c),
(1077,1231,l),
(965,1055,l),
(1055,1065,l),
(997,1162,o),
(886,1240,o),
(745,1240,cs),
(412,1240,o),
(101,842,o),
(101,412,cs),
(101,134,o),
(245,-30,o),
(498,-30,cs)
);
}
);
width = 1100;
}
);
unicode = 67;
},
{
glyphname = D;
kernLeft = E;
kernRight = D;
lastChange = "2021-05-08 14:47:05 +0000";
layers = (
{
hints = (
{
name = _corner.universal;
origin = (0,11);
type = Corner;
},
{
name = _corner.universal;
origin = (0,12);
type = Corner;
},
{
name = _corner.universal;
origin = (0,25);
type = Corner;
},
{
name = _corner.universal;
origin = (0,26);
type = Corner;
}
);
layerId = "CA4EC710-46DE-40B5-AF89-3BCF48EEB297";
shapes = (
{
closed = 1;
nodes = (
(1001,-8,o),
(1239,242,o),
(1239,605,cs),
(1239,998,o),
(1011,1218,o),
(615,1218,cs),
(538,1218,o),
(428,1204,o),
(343,1204,cs),
(266,1204,o),
(192,1216,o),
(80,1216,c),
(80,1158,l),
(168,1158,o),
(214,1154,o),
(237,1129,cs),
(254,1111,o),
(260,1064,o),
(260,982,cs),
(260,215,ls),
(260,123,o),
(250,100,o),
(220,80,cs),
(192,62,o),
(152,58,o),
(80,54,c),
(80,-4,l),
(192,-4,o),
(263,6,o),
(354,6,cs),
(432,6,o),
(538,-8,o),
(623,-8,cs)
);
},
{
closed = 1;
nodes = (
(550,52,o),
(477,56,o),
(448,76,cs),
(419,96,o),
(414,143,o),
(414,272,cs),
(414,884,ls),
(414,958,o),
(414,1066,o),
(435,1108,cs),
(457,1153,o),
(535,1158,o),
(594,1158,cs),
(931,1158,o),
(1069,957,o),
(1069,605,cs),
(1069,328,o),
(932,52,o),
(593,52,cs)
);
}
);
width = 1333;
},
{
background = {
shapes = (
{
closed = 1;
nodes = (
(1059,336,o),
(925,72,o),
(593,72,cs),
(550,72,o),
(480,76,o),
(454,94,cs),
(429,111,o),
(424,154,o),
(424,282,cs),
(424,874,ls),
(424,948,o),
(424,1054,o),
(444,1094,cs),
(463,1133,o),
(536,1138,o),
(594,1138,cs),
(925,1138,o),
(1059,946,o),
(1059,605,cs)
);
},
{
closed = 1;
nodes = (
(1249,996,o),
(1015,1218,o),
(615,1218,cs),
(537,1218,o),
(427,1204,o),
(343,1204,cs),
(268,1204,o),
(184,1216,o),
(86,1216,c),
(70,1200,l),
(70,1154,l),
(86,1138,l),
(164,1138,o),
(210,1134,o),
(230,1112,cs),
(244,1097,o),
(250,1053,o),
(250,972,cs),
(250,225,ls),
(250,136,o),
(241,116,o),
(214,98,cs),
(190,82,o),
(148,78,o),
(86,74,c),
(70,58,l),
(70,12,l),
(86,-4,l),
(188,-4,o),
(266,6,o),
(354,6,cs),
(431,6,o),
(537,-8,o),
(623,-8,cs),
(1005,-8,o),
(1249,244,o),
(1249,605,cs)
);
}
);
};
hints = (
{
name = _corner.universal;
origin = (0,11);
type = Corner;
},
{
name = _corner.universal;
origin = (0,12);
type = Corner;
},
{
name = _corner.universal;
origin = (0,25);
type = Corner;
},
{
name = _corner.universal;
origin = (0,26);
type = Corner;
}
);
layerId = "25879A17-30FE-49F5-8BDD-4D78448C8558";
shapes = (
{
closed = 1;
nodes = (
(1005,-8,o),
(1249,244,o),
(1249,605,cs),
(1249,996,o),
(1015,1218,o),
(615,1218,cs),
(537,1218,o),
(427,1204,o),
(343,1204,cs),
(264,1204,o),
(184,1216,o),
(70,1216,c),
(70,1138,l),
(164,1138,o),
(209,1135,o),
(230,1112,cs),
(244,1097,o),
(250,1053,o),
(250,972,cs),
(250,225,ls),
(250,136,o),
(241,116,o),
(214,98,cs),
(188,81,o),
(148,78,o),
(70,73,c),
(70,-4,l),
(188,-4,o),
(261,6,o),
(354,6,cs),
(431,6,o),
(537,-8,o),
(623,-8,cs)
);
},
{
closed = 1;
nodes = (
(550,72,o),
(480,76,o),
(454,94,cs),
(429,111,o),
(424,154,o),
(424,282,cs),
(424,874,ls),
(424,948,o),
(424,1054,o),
(444,1094,cs),
(463,1133,o),
(536,1138,o),
(594,1138,cs),
(925,1138,o),
(1059,946,o),
(1059,605,cs),
(1059,336,o),
(925,72,o),
(593,72,cs)
);
}
);
width = 1333;
},
{
background = {
hints = (
{
name = _corner.universal;
origin = (0,11);
type = Corner;
},
{
name = _corner.universal;
origin = (0,12);
type = Corner;
},
{
name = _corner.universal;
origin = (0,25);
type = Corner;
},
{
name = _corner.universal;
origin = (0,26);
type = Corner;
}
);
shapes = (
{
closed = 1;
nodes = (
(916,-8,o),
(1223,244,o),
(1313,605,cs),
(1410,996,o),
(1232,1218,o),
(832,1218,cs),
(754,1218,o),
(640,1204,o),
(556,1204,cs),
(477,1204,o),
(400,1216,o),
(286,1216,c),
(267,1138,l),
(361,1138,o),
(405,1135,o),
(420,1112,cs),
(431,1097,o),
(426,1053,o),
(405,972,cs),
(219,225,ls),
(197,136,o),
(183,116,o),
(151,98,cs),
(121,81,o),
(80,78,o),
(1,73,c),
(-18,-4,l),
(100,-4,o),
(175,6,o),
(268,6,cs),
(345,6,o),
(448,-8,o),
(534,-8,cs)
);
},
{
closed = 1;
nodes = (
(481,72,o),
(412,76,o),
(390,94,cs),
(370,111,o),
(375,154,o),
(407,282,cs),
(555,874,ls),
(573,948,o),
(600,1054,o),
(630,1094,cs),
(658,1133,o),
(733,1138,o),
(791,1138,cs),
(1122,1138,o),
(1208,946,o),
(1123,605,cs),
(1056,336,o),
(856,72,o),
(524,72,cs)
);
}
);
};
backgroundImage = {
imagePath = "Mergenthaler docs/Kursiv/uppercase.tif";
locked = 1;
pos = (-4688,-472);
scale = (189.9767,189.9767);
};
hints = (
{
name = _corner.universal;
origin = (0,11);
type = Corner;
},
{
name = _corner.universal;
origin = (0,12);
type = Corner;
},
{
name = _corner.universal;
origin = (0,25);
type = Corner;
},
{
name = _corner.universal;
origin = (0,26);
type = Corner;
}
);
layerId = master01;
shapes = (
{
closed = 1;
nodes = (
(894,-8,o),
(1158,154,o),
(1256,548,cs),
(1348,917,o),
(1183,1218,o),
(820,1218,cs),
(743,1218,o),
(643,1204,o),
(563,1204,cs),
(490,1204,o),
(392,1216,o),
(289,1216,c),
(289,1139,l),
(375,1135,o),
(406,1118,o),
(416,1094,cs),
(428,1066,o),
(417,1029,o),
(403,972,cs),
(217,225,ls),
(204,173,o),
(189,140,o),
(167,118,cs),
(145,96,o),
(109,77,o),
(35,73,c),
(35,-4,l),
(113,-4,o),
(210,6,o),
(255,6,cs),
(348,6,o),
(439,-8,o),
(539,-8,cs)
);
},
{
closed = 1;
nodes = (
(449,72,o),
(412,85,o),
(394,103,cs),
(373,124,o),
(379,161,o),
(409,282,cs),
(569,922,ls),
(589,1004,o),
(607,1065,o),
(640,1096,cs),
(671,1125,o),
(736,1138,o),
(809,1138,cs),
(1061,1138,o),
(1158,924,o),
(1066,548,cs),
(995,258,o),
(847,72,o),
(534,72,cs)
);
}
);
width = 1333;
}
);
unicode = 68;
},
{
glyphname = E;
kernLeft = E;
kernRight = E;
lastChange = "2021-05-10 21:14:58 +0000";
layers = (
{
anchors = (
{
name = top;
pos = (625,1210);
}
);
hints = (
{
name = _corner.universal;
origin = (0,19);
type = Corner;
},
{
name = _corner.universal;
origin = (0,20);
type = Corner;
},
{
name = _corner.universal;
origin = (0,33);
type = Corner;
},
{
name = _corner.universal;
origin = (0,34);
type = Corner;
},
{
name = _corner.universal;
origin = (0,44);
type = Corner;
},
{
name = _corner.universal;
origin = (0,45);
type = Corner;
},
{
name = _corner.universal;
origin = (0,41);
type = Corner;
},
{
name = _corner.universal;
origin = (1,2);
type = Corner;
},
{
name = _corner.universal;
origin = (1,3);
type = Corner;
},
{
name = _corner.universal;
origin = (1,9);
type = Corner;
},
{
name = _corner.universal;
origin = (1,10);
type = Corner;
},
{
name = _corner.universal;
origin = (0,8);
type = Corner;
},
{
name = _corner.universal;
origin = (0,9);
type = Corner;
},
{
name = _corner.universal;
origin = (0,12);
type = Corner;
}
);
layerId = "CA4EC710-46DE-40B5-AF89-3BCF48EEB297";
shapes = (
{
closed = 1;
nodes = (
(411,1015,o),
(411,1087,o),
(432,1111,cs),
(461,1145,o),
(532,1150,o),
(601,1150,cs),
(890,1150,o),
(957,1076,o),
(1025,832,c),
(1085,832,l),
(1073,967,o),
(1065,1092,o),
(1059,1229,c),
(864,1214,o),
(689,1210,o),
(540,1210,cs),
(347,1210,ls),
(277,1210,o),
(186,1216,o),
(77,1216,c),
(77,1158,l),
(166,1158,o),
(212,1153,o),
(234,1129,cs),
(251,1111,o),
(257,1064,o),
(257,982,cs),
(257,215,ls),
(257,123,o),
(247,100,o),
(217,80,cs),
(192,63,o),
(150,58,o),
(93,55,c),
(93,-4,l),
(203,-4,o),
(265,0,o),
(331,0,cs),
(679,0,ls),
(810,0,o),
(937,-3,o),
(1081,-8,c),
(1089,133,o),
(1104,267,o),
(1121,410,c),
(1060,410,l),
(985,127,o),
(916,60,o),
(630,60,cs),
(553,60,o),
(462,64,o),
(438,84,cs),
(411,107,o),
(411,197,o),
(411,272,cs),
(411,932,ls)
);
},
{
closed = 1;
nodes = (
(674,587,o),
(710,534,o),
(738,351,c),
(803,351,l),
(793,445,o),
(788,514,o),
(788,592,cs),
(788,663,o),
(794,750,o),
(805,875,c),
(745,875,l),
(711,715,o),
(685,647,o),
(543,647,cs),
(340,647,l),
(340,587,l),
(521,587,ls)
);
}
);
userData = {
com.typemytype.robofont.mark = (
0.656,
1,
0.6,
1
);
};
width = 1200;
},
{
anchors = (
{
name = top;
pos = (625,1210);
}
);
background = {
shapes = (
{
closed = 1;
nodes = (
(421,1004,o),
(421,1074,o),
(439,1094,cs),
(466,1125,o),
(533,1130,o),
(601,1130,cs),
(887,1130,o),
(950,1059,o),
(1014,825,c),
(1031,811,l),
(1082,811,l),
(1096,827,l),
(1083,956,o),
(1075,1085,o),
(1069,1213,c),
(1052,1228,l),
(870,1214,o),
(692,1210,o),
(540,1210,cs),
(347,1210,ls),
(275,1210,o),
(181,1216,o),
(83,1216,c),
(67,1200,l),
(67,1154,l),
(83,1138,l),
(161,1138,o),
(207,1134,o),
(227,1112,cs),
(241,1097,o),
(247,1053,o),
(247,972,cs),
(247,225,ls),
(247,136,o),
(238,116,o),
(211,98,cs),
(187,82,o),
(145,78,o),
(83,74,c),
(67,58,l),
(67,12,l),
(83,-4,l),
(200,-4,o),
(263,0,o),
(331,0,cs),
(679,0,ls),
(813,0,o),
(943,-4,o),
(1077,-8,c),
(1093,8,l),
(1098,140,o),
(1114,280,o),
(1130,414,c),
(1114,430,l),
(1066,430,l),
(1048,416,l),
(976,144,o),
(913,80,o),
(630,80,cs),
(553,80,o),
(475,81,o),
(445,101,cs),
(418,119,o),
(421,207,o),
(421,282,cs),
(421,922,ls)
);
},
{
closed = 1;
nodes = (
(670,577,o),
(702,528,o),
(727,355,c),
(748,341,l),
(796,341,l),
(812,357,l),
(803,440,o),
(798,511,o),
(798,592,cs),
(798,665,o),
(804,754,o),
(815,869,c),
(799,885,l),
(751,885,l),
(733,871,l),
(702,720,o),
(680,657,o),
(543,657,cs),
(330,657,l),
(330,577,l),
(521,577,ls)
);
}
);
};
hints = (
{
name = _corner.universal;
origin = (0,19);
type = Corner;
},
{
name = _corner.universal;
origin = (0,20);
type = Corner;
},
{
name = _corner.universal;
origin = (0,33);
type = Corner;
},
{
name = _corner.universal;
origin = (0,34);
type = Corner;
},
{
name = _corner.universal;
origin = (0,44);
type = Corner;
},
{
name = _corner.universal;
origin = (0,45);
type = Corner;
},
{
name = _corner.universal;
origin = (0,41);
type = Corner;
},
{
name = _corner.universal;
origin = (1,2);
type = Corner;
},
{
name = _corner.universal;
origin = (1,3);
type = Corner;
},
{
name = _corner.universal;
origin = (1,9);
type = Corner;
},
{
name = _corner.universal;
origin = (1,10);
type = Corner;
},
{
name = _corner.universal;
origin = (0,8);
type = Corner;
},
{
name = _corner.universal;
origin = (0,9);
type = Corner;
},
{
name = _corner.universal;
origin = (0,12);
type = Corner;
}
);
layerId = "25879A17-30FE-49F5-8BDD-4D78448C8558";
shapes = (
{
closed = 1;
nodes = (
(421,1004,o),
(421,1074,o),
(439,1094,cs),
(466,1125,o),
(533,1130,o),
(601,1130,cs),
(887,1130,o),
(950,1059,o),
(1017,812,c),
(1096,812,l),
(1083,955,o),
(1075,1085,o),
(1068,1230,c),
(870,1214,o),
(692,1210,o),
(540,1210,cs),
(347,1210,ls),
(275,1210,o),
(181,1216,o),
(67,1216,c),
(67,1138,l),
(161,1138,o),
(207,1134,o),
(227,1112,cs),
(241,1097,o),
(247,1053,o),
(247,972,cs),
(247,225,ls),
(247,136,o),
(238,116,o),
(211,98,cs),
(187,82,o),
(145,78,o),
(83,74,c),
(83,-4,l),
(200,-4,o),
(263,0,o),
(331,0,cs),
(679,0,ls),
(813,0,o),
(943,-3,o),
(1091,-8,c),
(1098,140,o),
(1114,280,o),
(1132,430,c),
(1052,430,l),
(977,144,o),
(913,80,o),
(630,80,cs),
(553,80,o),
(464,84,o),
(445,101,cs),
(421,122,o),
(421,207,o),
(421,282,cs),
(421,922,ls)
);
},
{
closed = 1;
nodes = (
(670,577,o),
(702,528,o),
(729,341,c),
(814,341,l),
(803,440,o),
(798,511,o),
(798,592,cs),
(798,665,o),
(804,754,o),
(816,885,c),
(737,885,l),
(702,720,o),
(680,657,o),
(543,657,cs),
(330,657,l),
(330,577,l),
(521,577,ls)
);
}
);
width = 1200;
},
{
anchors = (
{
name = top;
pos = (785,1210);
}
);
background = {
hints = (
{
name = _corner.universal;
origin = (0,8);
type = Corner;
},
{
name = _corner.universal;
origin = (0,9);
type = Corner;
},
{
name = _corner.universal;
origin = (0,12);
type = Corner;
},
{
name = _corner.universal;
origin = (0,19);
type = Corner;
},
{
name = _corner.universal;
origin = (0,20);
type = Corner;
},
{
name = _corner.universal;
origin = (0,33);
type = Corner;
},
{
name = _corner.universal;
origin = (0,34);
type = Corner;
},
{
name = _corner.universal;
origin = (0,41);
type = Corner;
},
{
name = _corner.universal;
origin = (0,44);
type = Corner;
},
{
name = _corner.universal;
origin = (0,45);
type = Corner;
},
{
name = _corner.universal;
origin = (1,2);
type = Corner;
},
{
name = _corner.universal;
origin = (1,3);
type = Corner;
},
{
name = _corner.universal;
origin = (1,9);
type = Corner;
},
{
name = _corner.universal;
origin = (1,10);
type = Corner;
}
);
shapes = (
{
closed = 1;
nodes = (
(589,1004,o),
(607,1065,o),
(640,1096,cs),
(667,1121,o),
(729,1130,o),
(796,1130,cs),
(1001,1130,o),
(1059,1042,o),
(1030,751,c),
(1116,751,l),
(1124,915,o),
(1166,1086,o),
(1210,1229,c),
(1006,1215,o),
(908,1210,o),
(756,1210,cs),
(563,1210,ls),
(488,1210,o),
(392,1216,o),
(289,1216,c),
(289,1139,l),
(375,1135,o),
(406,1118,o),
(416,1094,cs),
(428,1066,o),
(417,1029,o),
(403,972,cs),
(217,225,ls),
(204,173,o),
(189,140,o),
(167,118,cs),
(145,96,o),
(109,77,o),
(35,73,c),
(35,-4,l),
(109,-4,o),
(202,0,o),
(245,0,cs),
(593,0,ls),
(727,0,o),
(793,-4,o),
(946,-8,c),
(973,155,o),
(1020,320,o),
(1068,470,c),
(984,470,l),
(895,205,o),
(789,80,o),
(536,80,cs),
(450,80,o),
(410,87,o),
(394,103,cs),
(373,124,o),
(379,161,o),
(409,282,cs),
(569,922,ls)
);
},
{
closed = 1;
nodes = (
(692,577,o),
(735,544,o),
(704,352,c),
(781,352,l),
(795,446,o),
(813,514,o),
(832,592,cs),
(850,664,o),
(879,752,o),
(923,865,c),
(844,867,l),
(774,695,o),
(725,657,o),
(589,657,cs),
(380,657,l),
(360,577,l),
(585,577,ls)
);
}
);
};
backgroundImage = {
imagePath = "Mergenthaler docs/Kursiv/uppercase.tif";
locked = 1;
pos = (-6317,-457);
scale = (189.9767,189.9767);
};
hints = (
{
name = _corner.universal;
origin = (0,19);
type = Corner;
},
{
name = _corner.universal;
origin = (0,20);
type = Corner;
},
{
name = _corner.universal;
origin = (0,33);
type = Corner;
},
{
name = _corner.universal;
origin = (0,34);
type = Corner;
},
{
name = _corner.universal;
origin = (0,44);
type = Corner;
},
{
name = _corner.universal;
origin = (0,45);
type = Corner;
},
{
name = _corner.universal;
origin = (0,41);
type = Corner;
},
{
name = _corner.universal;
origin = (1,2);
type = Corner;
},
{
name = _corner.universal;
origin = (1,3);
type = Corner;
},
{
name = _corner.universal;
origin = (1,9);
type = Corner;
},
{
name = _corner.universal;
origin = (1,10);
type = Corner;
},
{
name = _corner.universal;
origin = (0,8);
type = Corner;
},
{
name = _corner.universal;
origin = (0,9);
type = Corner;
},
{
name = _corner.universal;
origin = (0,12);
type = Corner;
}
);
layerId = master01;
shapes = (
{
closed = 1;
nodes = (
(589,1004,o),
(607,1065,o),
(640,1096,cs),
(667,1121,o),
(729,1130,o),
(796,1130,cs),
(1001,1130,o),
(1059,1042,o),
(1030,751,c),
(1116,751,l),
(1124,915,o),
(1166,1086,o),
(1210,1229,c),
(1006,1215,o),
(908,1210,o),
(756,1210,cs),
(563,1210,ls),
(488,1210,o),
(392,1216,o),
(289,1216,c),
(289,1139,l),
(375,1135,o),
(407,1118,o),
(416,1094,cs),
(426,1068,o),
(417,1029,o),
(403,972,cs),
(217,225,ls),
(204,173,o),
(189,140,o),
(167,118,cs),
(145,96,o),
(109,77,o),
(35,73,c),
(35,-4,l),
(109,-4,o),
(202,0,o),
(245,0,cs),
(593,0,ls),
(727,0,o),
(793,-4,o),
(946,-8,c),
(973,155,o),
(1020,320,o),
(1068,470,c),
(984,470,l),
(895,205,o),
(789,80,o),
(536,80,cs),
(450,80,o),
(410,87,o),
(394,103,cs),
(373,124,o),
(379,161,o),
(409,282,cs),
(569,922,ls)
);
},
{
closed = 1;
nodes = (
(693,577,o),
(736,545,o),
(705,359,c),
(781,351,l),
(795,445,o),
(812,513,o),
(832,592,cs),
(849,660,o),
(876,745,o),
(918,853,c),
(845,877,l),
(775,696,o),
(726,657,o),
(589,657,cs),
(380,657,l),
(360,577,l),
(585,577,ls)
);
}
);
width = 1200;
}
);
unicode = 69;
},
{
glyphname = F;
kernLeft = E;
lastChange = "2021-05-08 15:06:27 +0000";
layers = (
{
hints = (
{
name = _corner.universal;
origin = (0,19);
type = Corner;
},
{
name = _corner.universal;
origin = (0,20);
type = Corner;
},
{
name = _corner.universal;
origin = (0,33);
type = Corner;
},
{
name = _corner.universal;
origin = (0,34);
type = Corner;
},
{
name = _corner.universal;
origin = (0,40);
type = Corner;
},
{
name = _corner.universal;
origin = (0,41);
type = Corner;
},
{
name = _corner.universal;
origin = (1,2);
type = Corner;
},
{
name = _corner.universal;
origin = (1,3);
type = Corner;
},
{
name = _corner.universal;
origin = (1,9);
type = Corner;
},
{
name = _corner.universal;
origin = (1,10);
type = Corner;
},
{
name = _corner.universal;
origin = (0,8);
type = Corner;
},
{
name = _corner.universal;
origin = (0,9);
type = Corner;
},
{
name = _corner.universal;
origin = (0,12);
type = Corner;
}
);
layerId = "CA4EC710-46DE-40B5-AF89-3BCF48EEB297";
shapes = (
{
closed = 1;
nodes = (
(411,983,o),
(414,1075,o),
(430,1104,cs),
(452,1143,o),
(524,1150,o),
(625,1150,cs),
(907,1150,o),
(932,1060,o),
(985,797,c),
(1047,797,l),
(1033,929,o),
(1023,1085,o),
(1024,1228,c),
(839,1214,o),
(674,1210,o),
(546,1210,cs),
(347,1210,ls),
(273,1210,o),
(177,1216,o),
(77,1216,c),
(77,1158,l),
(160,1158,o),
(211,1154,o),
(234,1129,cs),
(251,1111,o),
(257,1064,o),
(257,982,cs),
(257,217,ls),
(257,125,o),
(247,102,o),
(217,82,cs),
(190,64,o),
(143,59,o),
(77,56,c),
(77,-2,l),
(197,-2,o),
(261,6,o),
(344,6,cs),
(450,6,o),
(552,-4,o),
(629,-4,c),
(629,58,l),
(520,61,o),
(460,70,o),
(440,86,cs),
(418,105,o),
(411,150,o),
(411,208,cs),
(411,904,ls)
);
},
{
closed = 1;
nodes = (
(643,589,o),
(694,522,o),
(716,313,c),
(782,313,l),
(769,419,o),
(767,511,o),
(767,605,cs),
(767,668,o),
(771,759,o),
(785,889,c),
(723,889,l),
(694,709,o),
(648,649,o),
(506,649,cs),
(319,649,l),
(319,589,l),
(500,589,ls)
);
}
);
userData = {
com.typemytype.robofont.mark = (
0.656,
1,
0.6,
1
);
};
width = 1100;
},
{
background = {
shapes = (
{
closed = 1;
nodes = (
(421,973,o),
(424,1062,o),
(439,1089,cs),
(458,1123,o),
(525,1130,o),
(625,1130,cs),
(897,1130,o),
(922,1049,o),
(974,791,c),
(991,777,l),
(1042,777,l),
(1056,793,l),
(1043,922,o),
(1034,1073,o),
(1034,1213,c),
(1017,1228,l),
(835,1214,o),
(672,1210,o),
(546,1210,cs),
(347,1210,ls),
(275,1210,o),
(181,1216,o),
(83,1216,c),
(67,1200,l),
(67,1154,l),
(83,1138,l),
(161,1138,o),
(207,1134,o),
(227,1112,cs),
(241,1097,o),
(247,1053,o),
(247,972,cs),
(247,227,ls),
(247,138,o),
(238,118,o),
(211,100,cs),
(187,84,o),
(145,80,o),
(83,76,c),
(67,60,l),
(67,14,l),
(83,-2,l),
(200,-2,o),
(263,6,o),
(344,6,cs),
(447,6,o),
(547,-4,o),
(623,-4,c),
(639,12,l),
(639,62,l),
(623,78,l),
(519,81,o),
(463,90,o),
(447,104,cs),
(428,120,o),
(421,161,o),
(421,218,cs),
(421,894,ls)
);
},
{
closed = 1;
nodes = (
(636,579,o),
(684,518,o),
(706,317,c),
(727,303,l),
(775,303,l),
(791,319,l),
(779,422,o),
(777,513,o),
(777,605,cs),
(777,667,o),
(781,756,o),
(794,883,c),
(778,899,l),
(730,899,l),
(712,885,l),
(684,713,o),
(640,659,o),
(506,659,cs),
(309,659,l),
(309,579,l),
(500,579,ls)
);
}
);
};
hints = (
{
name = _corner.universal;
origin = (0,19);
type = Corner;
},
{
name = _corner.universal;
origin = (0,20);
type = Corner;
},
{
name = _corner.universal;
origin = (0,33);
type = Corner;
},
{
name = _corner.universal;
origin = (0,34);
type = Corner;
},
{
name = _corner.universal;
origin = (0,40);
type = Corner;
},
{
name = _corner.universal;
origin = (0,41);
type = Corner;
},
{
name = _corner.universal;
origin = (1,2);
type = Corner;
},
{
name = _corner.universal;
origin = (1,3);
type = Corner;
},
{
name = _corner.universal;
origin = (1,9);
type = Corner;
},
{
name = _corner.universal;
origin = (1,10);
type = Corner;
},
{
name = _corner.universal;
origin = (0,8);
type = Corner;
},
{
name = _corner.universal;
origin = (0,9);
type = Corner;
},
{
name = _corner.universal;
origin = (0,12);
type = Corner;
}
);
layerId = "25879A17-30FE-49F5-8BDD-4D78448C8558";
shapes = (
{
closed = 1;
nodes = (
(421,973,o),
(424,1062,o),
(439,1089,cs),
(458,1123,o),
(525,1130,o),
(625,1130,cs),
(902,1130,o),
(923,1046,o),
(977,777,c),
(1058,777,l),
(1043,914,o),
(1033,1079,o),
(1034,1229,c),
(845,1214,o),
(676,1210,o),
(546,1210,cs),
(347,1210,ls),
(271,1210,o),
(171,1216,o),
(67,1216,c),
(67,1138,l),
(155,1138,o),
(206,1135,o),
(227,1112,cs),
(241,1097,o),
(247,1053,o),
(247,972,cs),
(247,227,ls),
(247,138,o),
(238,118,o),
(211,100,cs),
(185,83,o),
(138,79,o),
(67,75,c),
(67,-2,l),
(194,-2,o),
(259,6,o),
(344,6,cs),
(454,6,o),
(561,-4,o),
(639,-4,c),
(639,78,l),
(525,80,o),
(464,89,o),
(447,104,cs),
(428,120,o),
(421,161,o),
(421,218,cs),
(421,894,ls)
);
},
{
closed = 1;
nodes = (
(639,579,o),
(686,515,o),
(707,303,c),
(793,303,l),
(779,413,o),
(777,508,o),
(777,605,cs),
(777,670,o),
(781,763,o),
(796,899,c),
(714,899,l),
(686,716,o),
(644,659,o),
(506,659,cs),
(309,659,l),
(309,579,l),
(500,579,ls)
);
}
);
width = 1100;
},
{
background = {
hints = (
{
name = _corner.universal;
place = (1030, 0);
type = Corner;
},
{
name = _corner.universal;
place = (1116, 0);
type = Corner;
},
{
name = _corner.universal;
place = (1210, 0);
type = Corner;
},
{
name = _corner.universal;
place = (289, 0);
type = Corner;
},
{
name = _corner.universal;
place = (289, 0);
type = Corner;
},
{
name = _corner.universal;
place = (35, 0);
type = Corner;
},
{
name = _corner.universal;
place = (35, 0);
type = Corner;
},
{
name = _corner.universal;
place = (946, 0);
type = Corner;
},
{
name = _corner.universal;
place = (1068, 0);
type = Corner;
},
{
name = _corner.universal;
place = (984, 0);
type = Corner;
},
{
name = _corner.universal;
place = (708, 0);
type = Corner;
},
{
name = _corner.universal;
place = (785, 0);
type = Corner;
},
{
name = _corner.universal;
place = (927, 0);
type = Corner;
},
{
name = _corner.universal;
place = (848, 0);
type = Corner;
},
{
name = _corner.universal;
place = (978, 0);
type = Corner;
},
{
name = _corner.universal;
place = (1053, 0);
type = Corner;
},
{
name = _corner.universal;
place = (1141, 0);
type = Corner;
},
{
name = _corner.universal;
place = (268, 0);
type = Corner;
},
{
name = _corner.universal;
place = (268, 0);
type = Corner;
},
{
name = _corner.universal;
place = (35, 0);
type = Corner;
},
{
name = _corner.universal;
place = (35, 0);
type = Corner;
},
{
name = _corner.universal;
place = (572, 0);
type = Corner;
},
{
name = _corner.universal;
place = (572, 0);
type = Corner;
},
{
name = _corner.universal;
place = (676, 0);
type = Corner;
},
{
name = _corner.universal;
place = (753, 0);
type = Corner;
},
{
name = _corner.universal;
place = (888, 0);
type = Corner;
},
{
name = _corner.universal;
place = (809, 0);
type = Corner;
},
{
name = _corner.universal;
origin = (0,8);
type = Corner;
},
{
name = _corner.universal;
origin = (0,9);
type = Corner;
},
{
name = _corner.universal;
origin = (0,12);
type = Corner;
},
{
name = _corner.universal;
origin = (0,19);
type = Corner;
},
{
name = _corner.universal;
origin = (0,20);
type = Corner;
},
{
name = _corner.universal;
origin = (0,33);
type = Corner;
},
{
name = _corner.universal;
origin = (0,34);
type = Corner;
},
{
name = _corner.universal;
origin = (0,40);
type = Corner;
},
{
name = _corner.universal;
origin = (0,41);
type = Corner;
},
{
name = _corner.universal;
origin = (1,2);
type = Corner;
},
{
name = _corner.universal;
origin = (1,3);
type = Corner;
},
{
name = _corner.universal;
origin = (1,9);
type = Corner;
},
{
name = _corner.universal;
origin = (1,10);
type = Corner;
}
);
shapes = (
{
closed = 1;
nodes = (
(582,973,o),
(607,1065,o),
(640,1096,cs),
(668,1123,o),
(712,1130,o),
(767,1130,cs),
(958,1130,o),
(1008,1027,o),
(978,751,c),
(1053,751,l),
(1072,927,o),
(1094,1066,o),
(1141,1229,c),
(949,1214,o),
(767,1210,o),
(761,1210,cs),
(562,1210,ls),
(481,1210,o),
(378,1216,o),
(268,1216,c),
(268,1139,l),
(370,1135,o),
(405,1120,o),
(416,1094,cs),
(428,1066,o),
(416,1029,o),
(402,972,cs),
(217,227,ls),
(204,173,o),
(189,140,o),
(167,118,cs),
(145,96,o),
(109,78,o),
(35,74,c),
(35,-2,l),
(141,-2,o),
(192,6,o),
(293,6,cs),
(387,6,o),
(494,-5,o),
(572,-5,c),
(572,74,l),
(450,77,o),
(410,87,o),
(394,103,cs),
(374,123,o),
(379,162,o),
(393,218,cs),
(562,894,ls)
);
},
{
closed = 1;
nodes = (
(669,579,o),
(702,540,o),
(672,314,c),
(749,314,l),
(764,424,o),
(783,503,o),
(805,594,cs),
(821,661,o),
(846,744,o),
(884,850,c),
(805,852,l),
(736,682,o),
(695,659,o),
(562,659,cs),
(353,659,l),
(333,579,l),
(558,579,ls)
);
}
);
};
backgroundImage = {
imagePath = "Mergenthaler docs/Kursiv/uppercase.tif";
locked = 1;
pos = (-7790,-460);
scale = (189.9767,189.9767);
};
hints = (
{
name = _corner.universal;
origin = (0,19);
type = Corner;
},
{
name = _corner.universal;
origin = (0,20);
type = Corner;
},
{
name = _corner.universal;
origin = (0,33);
type = Corner;
},
{
name = _corner.universal;
origin = (0,34);
type = Corner;
},
{
name = _corner.universal;
origin = (0,40);
type = Corner;
},
{
name = _corner.universal;
origin = (0,41);
type = Corner;
},
{
name = _corner.universal;
origin = (1,2);
type = Corner;
},
{
name = _corner.universal;
origin = (1,3);
type = Corner;
},
{
name = _corner.universal;
origin = (1,9);
type = Corner;
},
{
name = _corner.universal;
origin = (1,10);
type = Corner;
},
{
name = _corner.universal;
origin = (0,8);
type = Corner;
},
{
name = _corner.universal;
origin = (0,9);
type = Corner;
},
{
name = _corner.universal;
origin = (0,12);
type = Corner;
}
);
layerId = master01;
shapes = (
{
closed = 1;
nodes = (
(582,973,o),
(607,1065,o),
(640,1096,cs),
(668,1123,o),
(712,1130,o),
(767,1130,cs),
(958,1130,o),
(1008,1027,o),
(978,751,c),
(1053,751,l),
(1072,927,o),
(1094,1066,o),
(1141,1229,c),
(949,1214,o),
(767,1210,o),
(761,1210,cs),
(562,1210,ls),
(481,1210,o),
(378,1216,o),
(268,1216,c),
(268,1139,l),
(370,1135,o),
(405,1120,o),
(416,1094,cs),
(428,1066,o),
(416,1029,o),
(402,972,cs),
(217,227,ls),
(204,173,o),
(189,140,o),
(167,118,cs),
(145,96,o),
(109,78,o),
(35,74,c),
(35,-2,l),
(141,-2,o),
(192,6,o),
(293,6,cs),
(387,6,o),
(494,-5,o),
(572,-5,c),
(572,74,l),
(450,77,o),
(410,87,o),
(394,103,cs),
(374,123,o),
(379,162,o),
(393,218,cs),
(562,894,ls)
);
},
{
closed = 1;
nodes = (
(669,579,o),
(702,541,o),
(672,320,c),
(749,312,l),
(764,423,o),
(782,502,o),
(805,594,cs),
(821,659,o),
(844,739,o),
(881,842,c),
(808,865,l),
(738,686,o),
(697,659,o),
(562,659,cs),
(353,659,l),
(333,579,l),
(558,579,ls)
);
}
);
width = 1100;
}
);
unicode = 70;
},
{
glyphname = G;
kernLeft = G;
kernRight = G;
lastChange = "2021-08-21 11:26:09 +0000";
layers = (
{
anchors = (
{
name = bottom;
pos = (600,0);
},
{
name = top;
pos = (600,1210);
}
);
hints = (
{
name = _corner.universal;
origin = (0,45);
type = Corner;
},
{
name = _corner.universal;
origin = (0,46);
type = Corner;
},
{
name = _corner.universal;
origin = (0,41);
type = Corner;
},
{
name = _corner.universal;
origin = (0,42);
type = Corner;
},
{
name = _corner.universal;
origin = (0,22);
type = Corner;
},
{
name = _corner.universal;
origin = (0,23);
type = Corner;
},
{
name = _corner.universal;
origin = (0,15);
type = Corner;
},
{
name = _corner.universal;
origin = (0,16);
type = Corner;
},
{
name = _corner.universal;
origin = (0,4);
type = Corner;
},
{
name = _corner.universal;
origin = (0,5);
type = Corner;
}
);
layerId = "CA4EC710-46DE-40B5-AF89-3BCF48EEB297";
shapes = (
{
closed = 1;
nodes = (
(750,-30,o),
(889,68,o),
(961,263,c),
(872,203,l),
(972,-8,l),
(1035,-8,l),
(1021,54,o),
(1009,134,o),
(1009,234,cs),
(1009,287,ls),
(1009,381,o),
(1018,422,o),
(1048,444,cs),
(1067,458,o),
(1099,464,o),
(1162,465,c),
(1162,523,l),
(1062,523,o),
(985,516,o),
(917,516,cs),
(841,516,o),
(747,520,o),
(652,520,c),
(652,464,l),
(742,464,o),
(814,461,o),
(838,431,cs),
(852,413,o),
(859,385,o),
(859,331,cs),
(859,148,o),
(745,32,o),
(569,32,cs),
(353,32,o),
(266,246,o),
(266,605,cs),
(266,946,o),
(359,1178,o),
(599,1178,cs),
(782,1178,o),
(891,1063,o),
(932,817,c),
(993,817,l),
(993,950,o),
(995,1087,o),
(1001,1220,c),
(947,1220,l),
(884,1073,l),
(927,1065,l),
(860,1178,o),
(750,1240,o),
(598,1240,cs),
(292,1240,o),
(85,985,o),
(85,605,cs),
(85,215,o),
(275,-30,o),
(554,-30,cs)
);
}
);
userData = {
com.typemytype.robofont.mark = (
0.967,
0.6,
1,
1
);
};
width = 1200;
},
{
anchors = (
{
name = bottom;
pos = (600,0);
},
{
name = top;
pos = (600,1210);
}
);
background = {
shapes = (
{
closed = 1;
nodes = (
(276,937,o),
(367,1160,o),
(599,1160,cs),
(774,1160,o),
(879,1051,o),
(921,815,c),
(937,797,l),
(988,797,l),
(1003,813,l),
(1003,943,o),
(1005,1074,o),
(1011,1204,c),
(996,1220,l),
(952,1220,l),
(934,1206,l),
(870,1055,l),
(946,1041,l),
(879,1168,o),
(761,1242,o),
(598,1242,cs),
(287,1242,o),
(75,983,o),
(75,605,cs),
(75,217,o),
(270,-32,o),
(554,-32,cs),
(763,-32,o),
(910,79,o),
(980,296,c),
(859,214,l),
(960,3,l),
(979,-10,l),
(1028,-10,l),
(1044,5,l),
(1031,67,o),
(1019,144,o),
(1019,242,cs),
(1019,287,ls),
(1019,379,o),
(1028,417,o),
(1054,436,cs),
(1070,448,o),
(1104,455,o),
(1156,455,c),
(1172,471,l),
(1172,517,l),
(1156,533,l),
(1067,533,o),
(983,526,o),
(917,526,cs),
(844,526,o),
(741,530,o),
(658,530,c),
(642,514,l),
(642,470,l),
(658,454,l),
(736,454,o),
(810,450,o),
(830,425,cs),
(843,409,o),
(849,383,o),
(849,331,cs),
(849,161,o),
(740,50,o),
(569,50,cs),
(361,50,o),
(276,254,o),
(276,605,cs)
);
}
);
};
hints = (
{
name = _corner.universal;
origin = (0,45);
type = Corner;
},
{
name = _corner.universal;
origin = (0,46);
type = Corner;
},
{
name = _corner.universal;
origin = (0,41);
type = Corner;
},
{
name = _corner.universal;
origin = (0,42);
type = Corner;
},
{
name = _corner.universal;
origin = (0,22);
type = Corner;
},
{
name = _corner.universal;
origin = (0,23);
type = Corner;
},
{
name = _corner.universal;
origin = (0,15);
type = Corner;
},
{
name = _corner.universal;
origin = (0,16);
type = Corner;
},
{
name = _corner.universal;
origin = (0,4);
type = Corner;
},
{
name = _corner.universal;
origin = (0,5);
type = Corner;
}
);
layerId = "25879A17-30FE-49F5-8BDD-4D78448C8558";
shapes = (
{
closed = 1;
nodes = (
(763,-30,o),
(910,80,o),
(980,296,c),
(859,214,l),
(966,-10,l),
(1047,-10,l),
(1033,54,o),
(1019,136,o),
(1019,242,cs),
(1019,287,ls),
(1019,379,o),
(1028,417,o),
(1054,436,cs),
(1072,449,o),
(1104,455,o),
(1172,455,c),
(1172,533,l),
(1067,533,o),
(987,526,o),
(917,526,cs),
(839,526,o),
(741,530,o),
(642,530,c),
(642,454,l),
(736,454,o),
(809,452,o),
(830,425,cs),
(843,409,o),
(849,383,o),
(849,331,cs),
(849,162,o),
(740,52,o),
(569,52,cs),
(361,52,o),
(276,255,o),
(276,605,cs),
(276,937,o),
(367,1158,o),
(599,1158,cs),
(778,1158,o),
(884,1045,o),
(924,797,c),
(1003,797,l),
(1003,937,o),
(1005,1080,o),
(1012,1220,c),
(940,1220,l),
(870,1055,l),
(946,1041,l),
(879,1168,o),
(761,1240,o),
(598,1240,cs),
(287,1240,o),
(75,983,o),
(75,605,cs),
(75,218,o),
(270,-30,o),
(554,-30,cs)
);
}
);
width = 1200;
},
{
anchors = (
{
name = bottom;
pos = (500,0);
},
{
name = top;
pos = (800,1210);
}
);
backgroundImage = {
imagePath = "Mergenthaler docs/Kursiv/uppercase.tif";
locked = 1;
pos = (-9136,-465);
scale = (189.9767,189.9767);
};
hints = (
{
name = _corner.universal;
origin = (0,41);
type = Corner;
},
{
name = _corner.universal;
origin = (0,42);
type = Corner;
},
{
name = _corner.universal;
origin = (0,45);
type = Corner;
},
{
name = _corner.universal;
origin = (0,46);
type = Corner;
},
{
name = _corner.universal;
origin = (0,15);
type = Corner;
},
{
name = _corner.universal;
origin = (0,16);
type = Corner;
},
{
name = _corner.universal;
origin = (0,22);
type = Corner;
},
{
name = _corner.universal;
origin = (0,23);
type = Corner;
},
{
name = _corner.universal;
origin = (0,4);
type = Corner;
},
{
name = _corner.universal;
origin = (0,5);
type = Corner;
}
);
layerId = master01;
shapes = (
{
closed = 1;
nodes = (
(734,-30,o),
(892,128,o),
(966,383,c),
(830,214,l),
(841,-10,l),
(932,-10,l),
(939,77,o),
(949,136,o),
(975,242,cs),
(986,287,ls),
(1008,378,o),
(1026,414,o),
(1049,432,cs),
(1075,453,o),
(1106,455,o),
(1192,455,c),
(1192,533,l),
(1087,533,o),
(1007,526,o),
(937,526,cs),
(859,526,o),
(761,530,o),
(670,530,c),
(670,454,l),
(745,454,o),
(802,451,o),
(823,432,cs),
(839,418,o),
(849,374,o),
(829,308,cs),
(777,137,o),
(656,60,o),
(516,60,cs),
(382,60,o),
(292,163,o),
(292,378,cs),
(292,746,o),
(492,1158,o),
(764,1158,cs),
(938,1158,o),
(1047,1017,o),
(1023,760,c),
(1106,760,l),
(1126,907,o),
(1153,1040,o),
(1204,1209,c),
(1136,1231,l),
(1012,1055,l),
(1093,1051,l),
(1038,1162,o),
(908,1240,o),
(745,1240,cs),
(391,1240,o),
(107,858,o),
(107,426,cs),
(107,142,o),
(261,-30,o),
(504,-30,cs)
);
}
);
width = 1200;
}
);
unicode = 71;
},
{
glyphname = H;
kernLeft = E;
kernRight = I;
lastChange = "2021-05-08 15:01:20 +0000";
layers = (
{
hints = (
{
name = _corner.universal;
origin = (1,26);
type = Corner;
},
{
name = _corner.universal;
origin = (1,27);
type = Corner;
},
{
name = _corner.universal;
origin = (1,40);
type = Corner;
},
{
name = _corner.universal;
origin = (1,41);
type = Corner;
},
{
name = _corner.universal;
origin = (0,26);
type = Corner;
},
{
name = _corner.universal;
origin = (0,27);
type = Corner;
},
{
name = _corner.universal;
origin = (0,40);
type = Corner;
},
{
name = _corner.universal;
origin = (0,41);
type = Corner;
},
{
name = _corner.universal;
origin = (1,5);
type = Corner;
},
{
name = _corner.universal;
origin = (1,6);
type = Corner;
},
{
name = _corner.universal;
origin = (1,19);
type = Corner;
},
{
name = _corner.universal;
origin = (1,20);
type = Corner;
},
{
name = _corner.universal;
origin = (0,5);
type = Corner;
},
{
name = _corner.universal;
origin = (0,6);
type = Corner;
},
{
name = _corner.universal;
origin = (0,19);
type = Corner;
},
{
name = _corner.universal;
origin = (0,20);
type = Corner;
}
);
layerId = "CA4EC710-46DE-40B5-AF89-3BCF48EEB297";
shapes = (
{
closed = 1;
nodes = (
(934,-2,o),
(993,6,o),
(1063,6,cs),
(1127,6,o),
(1212,-2,o),
(1321,-2,c),
(1321,56,l),
(1236,56,o),
(1182,62,o),
(1163,83,cs),
(1144,104,o),
(1143,151,o),
(1143,208,cs),
(1143,981,ls),
(1143,1075,o),
(1156,1110,o),
(1183,1127,cs),
(1210,1144,o),
(1251,1153,o),
(1323,1154,c),
(1323,1212,l),
(1198,1212,o),
(1139,1204,o),
(1069,1204,cs),
(1005,1204,o),
(918,1212,o),
(809,1212,c),
(809,1154,l),
(895,1152,o),
(950,1151,o),
(968,1129,cs),
(986,1108,o),
(989,1049,o),
(989,987,cs),
(989,217,ls),
(989,125,o),
(978,99,o),
(948,79,cs),
(920,61,o),
(872,56,o),
(809,56,c),
(809,-2,l)
);
},
{
closed = 1;
nodes = (
(202,-2,o),
(261,6,o),
(331,6,cs),
(395,6,o),
(480,-2,o),
(589,-2,c),
(589,56,l),
(500,60,o),
(454,59,o),
(433,82,cs),
(414,103,o),
(411,150,o),
(411,208,cs),
(411,982,ls),
(411,1084,o),
(420,1113,o),
(450,1133,cs),
(477,1151,o),
(536,1154,o),
(591,1154,c),
(591,1212,l),
(466,1212,o),
(407,1204,o),
(337,1204,cs),
(273,1204,o),
(186,1212,o),
(77,1212,c),
(77,1154,l),
(160,1154,o),
(211,1150,o),
(234,1125,cs),
(251,1107,o),
(257,1060,o),
(257,978,cs),
(257,217,ls),
(257,125,o),
(247,102,o),
(217,82,cs),
(190,64,o),
(143,60,o),
(77,56,c),
(77,-2,l)
);
},
{
closed = 1;
nodes = (
(1063,594,l),
(1063,654,l),
(383,654,l),
(383,594,l)
);
}
);
userData = {
com.typemytype.robofont.guides = (
{
angle = 90;
isGlobal = 0;
magnetic = 5;
x = 94;
y = 0;
}
);
com.typemytype.robofont.mark = (
0.656,
1,
0.6,
1
);
};
width = 1400;
},
{
background = {
shapes = (
{
closed = 1;
nodes = (
(932,-2,o),
(995,6,o),
(1063,6,cs),
(1125,6,o),
(1217,-2,o),
(1315,-2,c),
(1331,14,l),
(1331,60,l),
(1315,76,l),
(1235,77,o),
(1186,83,o),
(1171,100,cs),
(1155,119,o),
(1153,161,o),
(1153,218,cs),
(1153,971,ls),
(1153,1062,o),
(1165,1094,o),
(1188,1109,cs),
(1212,1125,o),
(1256,1134,o),
(1317,1134,c),
(1333,1150,l),
(1333,1196,l),
(1317,1212,l),
(1200,1212,o),
(1137,1204,o),
(1069,1204,cs),
(1007,1204,o),
(913,1212,o),
(815,1212,c),
(799,1196,l),
(799,1150,l),
(815,1134,l),
(896,1132,o),
(945,1129,o),
(960,1112,cs),
(976,1093,o),
(979,1038,o),
(979,977,cs),
(979,227,ls),
(979,138,o),
(969,115,o),
(942,97,cs),
(918,81,o),
(867,76,o),
(815,76,c),
(799,60,l),
(799,14,l),
(815,-2,l)
);
},
{
closed = 1;
nodes = (
(200,-2,o),
(263,6,o),
(331,6,cs),
(393,6,o),
(485,-2,o),
(583,-2,c),
(599,14,l),
(599,60,l),
(583,76,l),
(504,80,o),
(458,80,o),
(441,99,cs),
(425,118,o),
(421,161,o),
(421,218,cs),
(421,972,ls),
(421,1072,o),
(429,1097,o),
(456,1115,cs),
(480,1131,o),
(533,1134,o),
(585,1134,c),
(601,1150,l),
(601,1196,l),
(585,1212,l),
(468,1212,o),
(405,1204,o),
(337,1204,cs),
(275,1204,o),
(181,1212,o),
(83,1212,c),
(67,1196,l),
(67,1150,l),
(83,1134,l),
(161,1134,o),
(207,1130,o),
(227,1108,cs),
(241,1093,o),
(247,1049,o),
(247,968,cs),
(247,227,ls),
(247,138,o),
(238,118,o),
(211,100,cs),
(187,84,o),
(145,80,o),
(83,76,c),
(67,60,l),
(67,14,l),
(83,-2,l)
);
},
{
closed = 1;
nodes = (
(1073,584,l),
(1073,664,l),
(373,664,l),
(373,584,l)
);
}
);
};
hints = (
{
name = _corner.universal;
origin = (1,26);
type = Corner;
},
{
name = _corner.universal;
origin = (1,27);
type = Corner;
},
{
name = _corner.universal;
origin = (1,40);
type = Corner;
},
{
name = _corner.universal;
origin = (1,41);
type = Corner;
},
{
name = _corner.universal;
origin = (0,26);
type = Corner;
},
{
name = _corner.universal;
origin = (0,27);
type = Corner;
},
{
name = _corner.universal;
origin = (0,40);
type = Corner;
},
{
name = _corner.universal;
origin = (0,41);
type = Corner;
},
{
name = _corner.universal;
origin = (1,5);
type = Corner;
},
{
name = _corner.universal;
origin = (1,6);
type = Corner;
},
{
name = _corner.universal;
origin = (1,19);
type = Corner;
},
{
name = _corner.universal;
origin = (1,20);
type = Corner;
},
{
name = _corner.universal;
origin = (0,5);
type = Corner;
},
{
name = _corner.universal;
origin = (0,6);
type = Corner;
},
{
name = _corner.universal;
origin = (0,19);
type = Corner;
},
{
name = _corner.universal;
origin = (0,20);
type = Corner;
}
);
layerId = "25879A17-30FE-49F5-8BDD-4D78448C8558";
shapes = (
{
closed = 1;
nodes = (
(932,-2,o),
(992,6,o),
(1063,6,cs),
(1128,6,o),
(1217,-2,o),
(1331,-2,c),
(1331,76,l),
(1242,76,o),
(1187,82,o),
(1171,100,cs),
(1155,119,o),
(1153,161,o),
(1153,218,cs),
(1153,971,ls),
(1153,1062,o),
(1165,1094,o),
(1188,1109,cs),
(1214,1126,o),
(1256,1134,o),
(1333,1134,c),
(1333,1212,l),
(1200,1212,o),
(1140,1204,o),
(1069,1204,cs),
(1004,1204,o),
(913,1212,o),
(799,1212,c),
(799,1134,l),
(890,1132,o),
(944,1130,o),
(960,1112,cs),
(976,1093,o),
(979,1038,o),
(979,977,cs),
(979,227,ls),
(979,138,o),
(969,115,o),
(942,97,cs),
(916,79,o),
(867,76,o),
(799,76,c),
(799,-2,l)
);
},
{
closed = 1;
nodes = (
(200,-2,o),
(260,6,o),
(331,6,cs),
(396,6,o),
(485,-2,o),
(599,-2,c),
(599,75,l),
(504,80,o),
(459,79,o),
(441,99,cs),
(424,117,o),
(421,161,o),
(421,218,cs),
(421,972,ls),
(421,1072,o),
(429,1097,o),
(456,1115,cs),
(482,1133,o),
(544,1134,o),
(601,1134,c),
(601,1212,l),
(468,1212,o),
(408,1204,o),
(337,1204,cs),
(272,1204,o),
(181,1212,o),
(67,1212,c),
(67,1134,l),
(155,1134,o),
(206,1131,o),
(227,1108,cs),
(241,1093,o),
(247,1049,o),
(247,968,cs),
(247,227,ls),
(247,138,o),
(238,118,o),
(211,100,cs),
(185,83,o),
(138,79,o),
(67,75,c),
(67,-2,l)
);
},
{
closed = 1;
nodes = (
(1073,584,l),
(1073,664,l),
(373,664,l),
(373,584,l)
);
}
);
width = 1400;
},
{
background = {
shapes = (
{
closed = 1;
nodes = (
(1085,597,l),
(1105,677,l),
(455,677,l),
(435,597,l)
);
},
{
closed = 1;
nodes = (
(109,-2,o),
(203,6,o),
(266,6,cs),
(326,6,o),
(404,-2,o),
(497,-2,c),
(513,14,l),
(513,60,l),
(497,76,l),
(434,80,o),
(406,91,o),
(394,103,cs),
(374,123,o),
(380,161,o),
(394,218,cs),
(582,972,ls),
(604,1062,o),
(629,1085,o),
(640,1096,cs),
(668,1124,o),
(711,1132,o),
(751,1134,c),
(767,1150,l),
(767,1196,l),
(751,1212,l),
(669,1212,o),
(599,1204,o),
(534,1204,cs),
(473,1204,o),
(386,1212,o),
(305,1212,c),
(289,1196,l),
(289,1150,l),
(305,1134,l),
(368,1133,o),
(406,1116,o),
(416,1094,cs),
(428,1066,o),
(417,1029,o),
(402,968,cs),
(217,227,ls),
(204,173,o),
(189,140,o),
(167,118,cs),
(146,97,o),
(109,80,o),
(51,76,c),
(35,60,l),
(35,14,l),
(51,-2,l)
);
},
{
closed = 1;
nodes = (
(809,-2,o),
(903,6,o),
(966,6,cs),
(1026,6,o),
(1104,-2,o),
(1197,-2,c),
(1213,14,l),
(1213,60,l),
(1197,76,l),
(1134,80,o),
(1106,91,o),
(1094,103,cs),
(1074,123,o),
(1080,161,o),
(1094,218,cs),
(1282,972,ls),
(1304,1062,o),
(1329,1085,o),
(1340,1096,cs),
(1368,1124,o),
(1411,1132,o),
(1451,1134,c),
(1467,1150,l),
(1467,1196,l),
(1451,1212,l),
(1369,1212,o),
(1299,1204,o),
(1234,1204,cs),
(1173,1204,o),
(1086,1212,o),
(1005,1212,c),
(989,1196,l),
(989,1150,l),
(1005,1134,l),
(1068,1133,o),
(1106,1116,o),
(1116,1094,cs),
(1128,1066,o),
(1117,1029,o),
(1102,968,cs),
(917,227,ls),
(904,173,o),
(889,140,o),
(867,118,cs),
(846,97,o),
(809,80,o),
(751,76,c),
(735,60,l),
(735,14,l),
(751,-2,l)
);
}
);
};
backgroundImage = {
imagePath = "Mergenthaler docs/Kursiv/uppercase.tif";
locked = 1;
pos = (-10629,-445);
scale = (189.9767,189.9767);
};
hints = (
{
name = _corner.universal;
origin = (1,26);
type = Corner;
},
{
name = _corner.universal;
origin = (1,27);
type = Corner;
},
{
name = _corner.universal;
origin = (1,40);
type = Corner;
},
{
name = _corner.universal;
origin = (1,41);
type = Corner;
},
{
name = _corner.universal;
origin = (0,26);
type = Corner;
},
{
name = _corner.universal;
origin = (0,27);
type = Corner;
},
{
name = _corner.universal;
origin = (0,40);
type = Corner;
},
{
name = _corner.universal;
origin = (0,41);
type = Corner;
},
{
name = _corner.universal;
origin = (1,5);
type = Corner;
},
{
name = _corner.universal;
origin = (1,6);
type = Corner;
},
{
name = _corner.universal;
origin = (1,19);
type = Corner;
},
{
name = _corner.universal;
origin = (1,20);
type = Corner;
},
{
name = _corner.universal;
origin = (0,5);
type = Corner;
},
{
name = _corner.universal;
origin = (0,6);
type = Corner;
},
{
name = _corner.universal;
origin = (0,19);
type = Corner;
},
{
name = _corner.universal;
origin = (0,20);
type = Corner;
}
);
layerId = master01;
shapes = (
{
closed = 1;
nodes = (
(809,-2,o),
(897,6,o),
(966,6,cs),
(1029,6,o),
(1104,-2,o),
(1213,-2,c),
(1213,75,l),
(1139,78,o),
(1107,90,o),
(1094,103,cs),
(1074,123,o),
(1080,161,o),
(1094,218,cs),
(1282,972,ls),
(1302,1054,o),
(1329,1085,o),
(1340,1096,cs),
(1368,1124,o),
(1411,1132,o),
(1467,1135,c),
(1467,1212,l),
(1369,1212,o),
(1303,1204,o),
(1234,1204,cs),
(1169,1204,o),
(1086,1212,o),
(989,1212,c),
(989,1134,l),
(1068,1133,o),
(1105,1119,o),
(1116,1094,cs),
(1127,1070,o),
(1117,1029,o),
(1102,968,cs),
(917,227,ls),
(904,173,o),
(889,140,o),
(867,118,cs),
(844,95,o),
(802,77,o),
(735,75,c),
(735,-2,l)
);
},
{
closed = 1;
nodes = (
(109,-2,o),
(197,6,o),
(266,6,cs),
(329,6,o),
(404,-2,o),
(513,-2,c),
(513,75,l),
(439,78,o),
(407,90,o),
(394,103,cs),
(374,123,o),
(380,161,o),
(394,218,cs),
(582,972,ls),
(602,1054,o),
(629,1085,o),
(640,1096,cs),
(672,1128,o),
(721,1135,o),
(767,1135,c),
(767,1212,l),
(669,1212,o),
(603,1204,o),
(534,1204,cs),
(469,1204,o),
(386,1212,o),
(289,1212,c),
(289,1134,l),
(362,1134,o),
(406,1119,o),
(416,1094,cs),
(427,1067,o),
(417,1027,o),
(402,968,cs),
(217,227,ls),
(204,173,o),
(189,140,o),
(167,118,cs),
(144,95,o),
(102,77,o),
(35,75,c),
(35,-2,l)
);
},
{
closed = 1;
nodes = (
(1082,584,l),
(1102,664,l),
(452,664,l),
(432,584,l)
);
}
);
userData = {
com.typemytype.robofont.guides = (
{
angle = 90;
isGlobal = 0;
magnetic = 5;
x = 94;
y = 0;
}
);
};
width = 1400;
}
);
unicode = 72;
},
{
glyphname = I;
kernLeft = E;
kernRight = I;
lastChange = "2021-05-10 21:10:12 +0000";
layers = (
{
anchors = (
{
name = top;
pos = (350,1210);
}
);
hints = (
{
name = _corner.universal;
origin = (0,5);
type = Corner;
},
{
name = _corner.universal;
origin = (0,6);
type = Corner;
},
{
name = _corner.universal;
origin = (0,19);
type = Corner;
},
{
name = _corner.universal;
origin = (0,20);
type = Corner;
},
{
name = _corner.universal;
origin = (0,26);
type = Corner;
},
{
name = _corner.universal;
origin = (0,27);
type = Corner;
},
{
name = _corner.universal;
origin = (0,40);
type = Corner;
},
{
name = _corner.universal;
origin = (0,41);
type = Corner;
}
);
layerId = "CA4EC710-46DE-40B5-AF89-3BCF48EEB297";
shapes = (
{
closed = 1;
nodes = (
(218,-2,o),
(277,6,o),
(347,6,cs),
(411,6,o),
(496,-2,o),
(605,-2,c),
(605,56,l),
(521,58,o),
(470,60,o),
(449,82,cs),
(429,102,o),
(427,150,o),
(427,208,cs),
(427,982,ls),
(427,1084,o),
(436,1113,o),
(466,1133,cs),
(493,1152,o),
(552,1154,o),
(607,1154,c),
(607,1212,l),
(482,1212,o),
(423,1204,o),
(353,1204,cs),
(289,1204,o),
(205,1212,o),
(93,1212,c),
(93,1154,l),
(176,1154,o),
(227,1150,o),
(250,1125,cs),
(267,1107,o),
(273,1060,o),
(273,978,cs),
(273,217,ls),
(273,125,o),
(263,102,o),
(233,82,cs),
(206,64,o),
(159,59,o),
(93,56,c),
(93,-2,l)
);
}
);
userData = {
com.typemytype.robofont.mark = (
0.656,
1,
0.6,
1
);
};
width = 700;
},
{
anchors = (
{
name = top;
pos = (350,1210);
}
);
background = {
shapes = (
{
closed = 1;
nodes = (
(437,1072,o),
(445,1097,o),
(472,1115,cs),
(496,1131,o),
(549,1134,o),
(601,1134,c),
(617,1150,l),
(617,1196,l),
(601,1212,l),
(484,1212,o),
(421,1204,o),
(353,1204,cs),
(291,1204,o),
(197,1212,o),
(99,1212,c),
(83,1196,l),
(83,1150,l),
(99,1134,l),
(177,1134,o),
(223,1130,o),
(243,1108,cs),
(257,1093,o),
(263,1049,o),
(263,968,cs),
(263,227,ls),
(263,138,o),
(254,118,o),
(227,100,cs),
(203,84,o),
(161,80,o),
(99,76,c),
(83,60,l),
(83,14,l),
(99,-2,l),
(216,-2,o),
(279,6,o),
(347,6,cs),
(409,6,o),
(501,-2,o),
(599,-2,c),
(615,14,l),
(615,60,l),
(599,76,l),
(520,78,o),
(474,80,o),
(457,99,cs),
(441,118,o),
(437,161,o),
(437,218,cs),
(437,972,ls)
);
}
);
};
hints = (
{
name = _corner.universal;
origin = (0,5);
type = Corner;
},
{
name = _corner.universal;
origin = (0,6);
type = Corner;
},
{
name = _corner.universal;
origin = (0,19);
type = Corner;
},
{
name = _corner.universal;
origin = (0,20);
type = Corner;
},
{
name = _corner.universal;
origin = (0,26);
type = Corner;
},
{
name = _corner.universal;
origin = (0,27);
type = Corner;
},
{
name = _corner.universal;
origin = (0,40);
type = Corner;
},
{
name = _corner.universal;
origin = (0,41);
type = Corner;
}
);
layerId = "25879A17-30FE-49F5-8BDD-4D78448C8558";
shapes = (
{
closed = 1;
nodes = (
(216,-2,o),
(276,6,o),
(347,6,cs),
(412,6,o),
(501,-2,o),
(615,-2,c),
(615,76,l),
(526,78,o),
(474,79,o),
(457,99,cs),
(441,118,o),
(437,161,o),
(437,218,cs),
(437,972,ls),
(437,1072,o),
(445,1097,o),
(472,1115,cs),
(498,1133,o),
(560,1134,o),
(617,1134,c),
(617,1212,l),
(484,1212,o),
(424,1204,o),
(353,1204,cs),
(288,1204,o),
(200,1212,o),
(83,1212,c),
(83,1134,l),
(171,1134,o),
(222,1131,o),
(243,1108,cs),
(257,1093,o),
(263,1049,o),
(263,968,cs),
(263,227,ls),
(263,138,o),
(254,118,o),
(227,100,cs),
(201,83,o),
(154,79,o),
(83,75,c),
(83,-2,l)
);
}
);
width = 700;
},
{
anchors = (
{
name = top;
pos = (548,1210);
}
);
background = {
shapes = (
{
closed = 1;
nodes = (
(109,-2,o),
(203,6,o),
(266,6,cs),
(326,6,o),
(404,-2,o),
(497,-2,c),
(513,14,l),
(513,60,l),
(497,76,l),
(434,80,o),
(406,91,o),
(394,103,cs),
(374,123,o),
(380,161,o),
(394,218,cs),
(582,972,ls),
(604,1062,o),
(629,1085,o),
(640,1096,cs),
(668,1124,o),
(711,1132,o),
(751,1134,c),
(767,1150,l),
(767,1196,l),
(751,1212,l),
(669,1212,o),
(599,1204,o),
(534,1204,cs),
(473,1204,o),
(386,1212,o),
(305,1212,c),
(289,1196,l),
(289,1150,l),
(305,1134,l),
(368,1133,o),
(406,1116,o),
(416,1094,cs),
(428,1066,o),
(417,1029,o),
(402,968,cs),
(217,227,ls),
(204,173,o),
(189,140,o),
(167,118,cs),
(146,97,o),
(109,80,o),
(51,76,c),
(35,60,l),
(35,14,l),
(51,-2,l)
);
}
);
};
backgroundImage = {
imagePath = "Mergenthaler docs/Kursiv/uppercase.tif";
locked = 1;
pos = (-12298,-445);
scale = (189.9767,189.9767);
};
guides = (
{
angle = 76;
pos = (310,598);
}
);
hints = (
{
name = _corner.universal;
origin = (0,5);
type = Corner;
},
{
name = _corner.universal;
origin = (0,6);
type = Corner;
},
{
name = _corner.universal;
origin = (0,19);
type = Corner;
},
{
name = _corner.universal;
origin = (0,20);
type = Corner;
},
{
name = _corner.universal;
origin = (0,26);
type = Corner;
},
{
name = _corner.universal;
origin = (0,27);
type = Corner;
},
{
name = _corner.universal;
origin = (0,40);
type = Corner;
},
{
name = _corner.universal;
origin = (0,41);
type = Corner;
}
);
layerId = master01;
shapes = (
{
closed = 1;
nodes = (
(109,-2,o),
(197,6,o),
(266,6,cs),
(329,6,o),
(404,-2,o),
(513,-2,c),
(513,75,l),
(439,78,o),
(407,90,o),
(394,103,cs),
(374,123,o),
(380,161,o),
(394,218,cs),
(582,972,ls),
(604,1062,o),
(629,1085,o),
(640,1096,cs),
(672,1128,o),
(711,1132,o),
(767,1135,c),
(767,1212,l),
(669,1212,o),
(603,1204,o),
(534,1204,cs),
(469,1204,o),
(386,1212,o),
(289,1212,c),
(289,1134,l),
(368,1134,o),
(406,1117,o),
(416,1094,cs),
(427,1070,o),
(417,1029,o),
(402,968,cs),
(217,227,ls),
(204,173,o),
(189,140,o),
(167,118,cs),
(144,95,o),
(102,77,o),
(35,75,c),
(35,-2,l)
);
}
);
width = 700;
}
);
unicode = 73;
},
{
glyphname = J;
kernLeft = J;
kernRight = U;
lastChange = "2021-08-21 10:41:25 +0000";
layers = (
{
background = {
hints = (
{
name = _corner.universal;
origin = (0,9);
type = Corner;
},
{
name = _corner.universal;
origin = (0,10);
type = Corner;
},
{
name = _corner.universal;
origin = (0,16);
type = Corner;
},
{
name = _corner.universal;
origin = (0,17);
type = Corner;
}
);
shapes = (
{
closed = 1;
nodes = (
(541,-24,o),
(640,138,o),
(640,337,cs),
(640,982,ls),
(640,1084,o),
(650,1113,o),
(679,1133,cs),
(706,1152,o),
(765,1154,o),
(820,1154,c),
(820,1212,l),
(695,1212,o),
(636,1204,o),
(566,1204,cs),
(470,1204,o),
(385,1212,o),
(276,1212,c),
(276,1154,l),
(364,1154,o),
(440,1150,o),
(463,1125,cs),
(480,1107,o),
(486,1060,o),
(486,978,cs),
(486,343,ls),
(486,178,o),
(445,35,o),
(287,35,cs),
(223,35,o),
(162,62,o),
(124,118,c),
(138,162,l),
(220,176,o),
(256,213,o),
(256,273,cs),
(256,325,o),
(217,358,o),
(161,358,cs),
(84,358,o),
(32,297,o),
(32,215,cs),
(32,146,o),
(61,87,o),
(107,45,cs),
(152,3,o),
(217,-24,o),
(306,-24,cs)
);
}
);
};
hints = (
{
name = _corner.universal;
origin = (0,9);
type = Corner;
},
{
name = _corner.universal;
origin = (0,10);
type = Corner;
},
{
name = _corner.universal;
origin = (0,16);
type = Corner;
},
{
name = _corner.universal;
origin = (0,17);
type = Corner;
}
);
layerId = "CA4EC710-46DE-40B5-AF89-3BCF48EEB297";
shapes = (
{
closed = 1;
nodes = (
(541,-24,o),
(640,138,o),
(640,337,cs),
(640,982,ls),
(640,1084,o),
(650,1113,o),
(679,1133,cs),
(706,1152,o),
(765,1154,o),
(820,1154,c),
(820,1212,l),
(695,1212,o),
(636,1204,o),
(566,1204,cs),
(470,1204,o),
(385,1212,o),
(276,1212,c),
(276,1154,l),
(364,1154,o),
(440,1150,o),
(463,1125,cs),
(480,1107,o),
(486,1060,o),
(486,978,cs),
(486,343,ls),
(486,178,o),
(445,35,o),
(287,35,cs),
(223,35,o),
(162,62,o),
(124,118,c),
(138,162,l),
(220,176,o),
(256,213,o),
(256,273,cs),
(256,325,o),
(217,358,o),
(161,358,cs),
(84,358,o),
(32,297,o),
(32,215,cs),
(32,145,o),
(60,91,o),
(97,54,cs),
(150,1,o),
(217,-24,o),
(306,-24,cs)
);
}
);
userData = {
com.typemytype.robofont.mark = (
0.656,
1,
0.6,
1
);
};
width = 850;
},
{
background = {
hints = (
{
name = _corner.universal;
origin = (0,9);
type = Corner;
},
{
name = _corner.universal;
origin = (0,10);
type = Corner;
},
{
name = _corner.universal;
origin = (0,16);
type = Corner;
},
{
name = _corner.universal;
origin = (0,17);
type = Corner;
}
);
shapes = (
{
closed = 1;
nodes = (
(547,-24,o),
(650,145,o),
(650,347,cs),
(650,972,l),
(650,1072,o),
(658,1097,o),
(685,1115,cs),
(711,1133,o),
(773,1134,o),
(830,1134,c),
(830,1212,l),
(697,1212,o),
(637,1204,o),
(566,1204,cs),
(468,1204,o),
(380,1212,o),
(266,1212,c),
(266,1134,l),
(357,1134,o),
(435,1131,o),
(456,1108,cs),
(470,1093,o),
(476,1049,o),
(476,968,cs),
(476,353,ls),
(476,190,o),
(437,55,o),
(287,55,cs),
(227,55,o),
(171,79,o),
(135,130,c),
(146,163,l),
(227,179,o),
(266,220,o),
(266,283,cs),
(266,340,o),
(221,378,o),
(161,378,cs),
(79,378,o),
(22,311,o),
(22,225,cs),
(22,154,o),
(54,92,o),
(100,48,cs),
(147,4,o),
(215,-24,o),
(306,-24,cs)
);
}
);
};
hints = (
{
name = _corner.universal;
origin = (0,9);
type = Corner;
},
{
name = _corner.universal;
origin = (0,10);
type = Corner;
},
{
name = _corner.universal;
origin = (0,16);
type = Corner;
},
{
name = _corner.universal;
origin = (0,17);
type = Corner;
}
);
layerId = "25879A17-30FE-49F5-8BDD-4D78448C8558";
shapes = (
{
closed = 1;
nodes = (
(547,-24,o),
(650,145,o),
(650,347,cs),
(650,972,ls),
(650,1072,o),
(658,1097,o),
(685,1115,cs),
(711,1133,o),
(773,1134,o),
(830,1134,c),
(830,1212,l),
(697,1212,o),
(637,1204,o),
(566,1204,cs),
(468,1204,o),
(380,1212,o),
(266,1212,c),
(266,1134,l),
(357,1134,o),
(435,1131,o),
(456,1108,cs),
(470,1093,o),
(476,1049,o),
(476,968,cs),
(476,353,ls),
(476,190,o),
(437,55,o),
(287,55,cs),
(227,55,o),
(171,79,o),
(135,130,c),
(146,163,l),
(227,179,o),
(266,220,o),
(266,283,cs),
(266,340,o),
(221,378,o),
(161,378,cs),
(79,378,o),
(22,311,o),
(22,225,cs),
(22,154,o),
(54,94,o),
(98,50,cs),
(144,4,o),
(215,-24,o),
(306,-24,cs)
);
}
);
width = 850;
},
{
backgroundImage = {
imagePath = "Mergenthaler docs/Kursiv/uppercase.tif";
locked = 1;
pos = (-13281,-435);
scale = (189.9767,189.9767);
};
hints = (
{
name = _corner.universal;
origin = (0,9);
type = Corner;
},
{
name = _corner.universal;
origin = (0,10);
type = Corner;
},
{
name = _corner.universal;
origin = (0,16);
type = Corner;
},
{
name = _corner.universal;
origin = (0,17);
type = Corner;
}
);
layerId = master01;
shapes = (
{
closed = 1;
nodes = (
(396,-30,o),
(534,63,o),
(591,291,cs),
(761,972,ls),
(783,1062,o),
(808,1085,o),
(819,1096,cs),
(851,1128,o),
(890,1132,o),
(946,1135,c),
(946,1212,l),
(848,1212,o),
(782,1204,o),
(713,1204,cs),
(637,1204,o),
(541,1212,o),
(428,1212,c),
(428,1134,l),
(520,1134,o),
(562,1117,o),
(580,1092,cs),
(597,1069,o),
(595,1025,o),
(581,968,cs),
(406,266,ls),
(369,118,o),
(312,53,o),
(241,53,cs),
(221,53,o),
(202,57,o),
(186,66,c),
(192,103,l),
(237,123,o),
(264,163,o),
(264,204,cs),
(264,263,o),
(224,293,o),
(173,293,cs),
(104,293,o),
(46,236,o),
(46,144,cs),
(46,98,o),
(63,53,o),
(93,23,cs),
(126,-10,o),
(183,-30,o),
(250,-30,cs)
);
}
);
width = 850;
},
{
associatedMasterId = master01;
backgroundImage = {
imagePath = "Mergenthaler docs/Kursiv/uppercase.tif";
pos = (-13281,-435);
scale = (189.9767,189.9767);
};
hints = (
{
name = _corner.universal;
origin = (0,9);
type = Corner;
},
{
name = _corner.universal;
origin = (0,10);
type = Corner;
},
{
name = _corner.universal;
origin = (0,16);
type = Corner;
},
{
name = _corner.universal;
origin = (0,17);
type = Corner;
}
);
layerId = "B10E6485-97AD-4F9F-BB0B-5772BA0F167D";
name = "21. Aug. 21, 12:40";
shapes = (
{
closed = 1;
nodes = (
(406,-30,o),
(534,63,o),
(591,291,cs),
(761,972,ls),
(783,1062,o),
(808,1085,o),
(819,1096,cs),
(851,1128,o),
(890,1132,o),
(946,1135,c),
(946,1212,l),
(848,1212,o),
(782,1204,o),
(713,1204,cs),
(637,1204,o),
(541,1212,o),
(428,1212,c),
(428,1134,l),
(520,1134,o),
(562,1117,o),
(580,1092,cs),
(597,1069,o),
(595,1025,o),
(581,968,cs),
(406,266,ls),
(369,118,o),
(312,53,o),
(241,53,cs),
(221,53,o),
(202,57,o),
(186,66,c),
(190,94,l),
(235,114,o),
(262,154,o),
(262,195,cs),
(262,254,o),
(222,284,o),
(171,284,cs),
(102,284,o),
(44,227,o),
(44,135,cs),
(44,91,o),
(58,55,o),
(84,29,cs),
(120,-7,o),
(179,-30,o),
(250,-30,cs)
);
}
);
width = 850;
}
);
unicode = 74;
},
{
glyphname = K;
kernLeft = E;
kernRight = K;
lastChange = "2021-05-11 15:37:34 +0000";
layers = (
{
hints = (
{
name = _corner.universal;
origin = (0,26);
type = Corner;
},
{
name = _corner.universal;
origin = (0,27);
type = Corner;
},
{
name = _corner.universal;
origin = (0,40);
type = Corner;
},
{
name = _corner.universal;
origin = (0,41);
type = Corner;
},
{
name = _corner.universal;
origin = (0,5);
type = Corner;
},
{
name = _corner.universal;
origin = (0,6);
type = Corner;
},
{
name = _corner.universal;
origin = (1,18);
type = Corner;
},
{
name = _corner.universal;
origin = (1,19);
type = Corner;
},
{
name = _corner.universal;
origin = (1,6);
type = Corner;
},
{
name = _corner.universal;
origin = (2,6);
type = Corner;
},
{
name = _corner.universal;
origin = (2,7);
type = Corner;
},
{
name = _corner.universal;
origin = (2,13);
type = Corner;
},
{
name = _corner.universal;
origin = (2,14);
type = Corner;
},
{
name = _corner.universal;
origin = (0,19);
type = Corner;
},
{
name = _corner.universal;
origin = (0,20);
type = Corner;
},
{
name = _corner.universal;
origin = (1,5);
type = Corner;
}
);
layerId = "CA4EC710-46DE-40B5-AF89-3BCF48EEB297";
shapes = (
{
closed = 1;
nodes = (
(202,-2,o),
(261,6,o),
(331,6,cs),
(395,6,o),
(480,-2,o),
(589,-2,c),
(589,56,l),
(500,60,o),
(454,60,o),
(434,82,cs),
(414,104,o),
(411,150,o),
(411,208,cs),
(411,982,ls),
(411,1084,o),
(420,1113,o),
(450,1133,cs),
(477,1152,o),
(536,1154,o),
(591,1154,c),
(591,1212,l),
(466,1212,o),
(407,1204,o),
(337,1204,cs),
(273,1204,o),
(186,1212,o),
(77,1212,c),
(77,1154,l),
(160,1154,o),
(211,1150,o),
(234,1125,cs),
(251,1107,o),
(257,1060,o),
(257,978,cs),
(257,217,ls),
(257,125,o),
(247,102,o),
(217,82,cs),
(190,64,o),
(143,59,o),
(77,56,c),
(77,-2,l)
);
},
{
closed = 1;
nodes = (
(879,-2,o),
(970,6,o),
(1058,6,cs),
(1128,6,o),
(1213,-2,o),
(1331,-2,c),
(1331,54,l),
(1217,61,o),
(1161,81,o),
(1084,199,cs),
(701,782,l),
(581,674,l),
(881,193,ls),
(910,146,o),
(919,110,o),
(899,88,cs),
(876,63,o),
(824,60,o),
(751,56,c),
(751,-2,l)
);
},
{
closed = 1;
nodes = (
(939,991,ls),
(1005,1056,o),
(1049,1090,o),
(1093,1114,cs),
(1139,1139,o),
(1198,1152,o),
(1252,1156,c),
(1252,1212,l),
(1160,1212,o),
(1088,1204,o),
(1018,1204,cs),
(953,1204,o),
(859,1212,o),
(778,1212,c),
(778,1154,l),
(857,1153,o),
(903,1147,o),
(910,1114,cs),
(917,1081,o),
(879,1033,o),
(829,985,cs),
(332,499,l),
(377,444,l)
);
}
);
userData = {
com.typemytype.robofont.mark = (
0.656,
1,
0.6,
1
);
};
width = 1350;
},
{
background = {
shapes = (
{
closed = 1;
nodes = (
(421,1072,o),
(429,1097,o),
(456,1115,cs),
(480,1131,o),
(533,1134,o),
(585,1134,c),
(601,1150,l),
(601,1196,l),
(585,1212,l),
(468,1212,o),
(405,1204,o),
(337,1204,cs),
(275,1204,o),
(181,1212,o),
(83,1212,c),
(67,1196,l),
(67,1150,l),
(83,1134,l),
(161,1134,o),
(207,1130,o),
(227,1108,cs),
(241,1093,o),
(247,1049,o),
(247,968,cs),
(247,227,ls),
(247,138,o),
(238,118,o),
(211,100,cs),
(187,84,o),
(145,80,o),
(83,76,c),
(67,60,l),
(67,14,l),
(83,-2,l),
(200,-2,o),
(263,6,o),
(331,6,cs),
(393,6,o),
(485,-2,o),
(583,-2,c),
(599,14,l),
(599,60,l),
(583,76,l),
(504,80,o),
(458,80,o),
(441,99,cs),
(425,118,o),
(421,161,o),
(421,218,cs),
(421,972,ls)
);
},
{
closed = 1;
nodes = (
(1013,1038,o),
(1054,1072,o),
(1098,1095,cs),
(1141,1118,o),
(1195,1131,o),
(1246,1136,c),
(1262,1152,l),
(1262,1196,l),
(1246,1212,l),
(1164,1212,o),
(1086,1204,o),
(1018,1204,cs),
(956,1204,o),
(851,1212,o),
(784,1212,c),
(768,1196,l),
(768,1150,l),
(784,1134,l),
(851,1134,o),
(895,1126,o),
(900,1102,cs),
(906,1074,o),
(871,1029,o),
(822,982,cs),
(318,500,l),
(376,429,l),
(946,974,ls)
);
},
{
closed = 1;
nodes = (
(873,198,ls),
(901,154,o),
(906,124,o),
(891,105,cs),
(871,82,o),
(819,80,o),
(757,76,c),
(741,60,l),
(741,14,l),
(757,-2,l),
(875,-2,o),
(972,6,o),
(1058,6,cs),
(1127,6,o),
(1217,-2,o),
(1325,-2,c),
(1341,14,l),
(1341,58,l),
(1325,74,l),
(1217,82,o),
(1166,103,o),
(1092,215,cs),
(703,797,l),
(568,676,l)
);
}
);
};
hints = (
{
name = _corner.universal;
origin = (0,26);
type = Corner;
},
{
name = _corner.universal;
origin = (0,27);
type = Corner;
},
{
name = _corner.universal;
origin = (0,40);
type = Corner;
},
{
name = _corner.universal;
origin = (0,41);
type = Corner;
},
{
name = _corner.universal;
origin = (0,5);
type = Corner;
},
{
name = _corner.universal;
origin = (0,6);
type = Corner;
},
{
name = _corner.universal;
origin = (1,18);
type = Corner;
},
{
name = _corner.universal;
origin = (1,19);
type = Corner;
},
{
name = _corner.universal;
origin = (1,5);
type = Corner;
},
{
name = _corner.universal;
origin = (1,6);
type = Corner;
},
{
name = _corner.universal;
origin = (2,7);
type = Corner;
},
{
name = _corner.universal;
origin = (2,13);
type = Corner;
},
{
name = _corner.universal;
origin = (2,14);
type = Corner;
},
{
name = _corner.universal;
origin = (0,19);
type = Corner;
},
{
name = _corner.universal;
origin = (0,20);
type = Corner;
},
{
name = _corner.universal;
origin = (2,6);
type = Corner;
}
);
layerId = "25879A17-30FE-49F5-8BDD-4D78448C8558";
shapes = (
{
closed = 1;
nodes = (
(200,-2,o),
(260,6,o),
(331,6,cs),
(396,6,o),
(485,-2,o),
(599,-2,c),
(599,75,l),
(504,80,o),
(458,80,o),
(441,99,cs),
(424,118,o),
(421,161,o),
(421,218,cs),
(421,972,ls),
(421,1072,o),
(429,1097,o),
(456,1115,cs),
(482,1133,o),
(544,1134,o),
(601,1134,c),
(601,1212,l),
(468,1212,o),
(408,1204,o),
(337,1204,cs),
(272,1204,o),
(181,1212,o),
(67,1212,c),
(67,1134,l),
(155,1134,o),
(206,1131,o),
(227,1108,cs),
(241,1093,o),
(247,1049,o),
(247,968,cs),
(247,227,ls),
(247,138,o),
(238,118,o),
(211,100,cs),
(185,83,o),
(138,79,o),
(67,75,c),
(67,-2,l)
);
},
{
closed = 1;
nodes = (
(875,-2,o),
(968,6,o),
(1058,6,cs),
(1130,6,o),
(1217,-2,o),
(1341,-2,c),
(1341,73,l),
(1222,80,o),
(1170,98,o),
(1092,215,cs),
(703,797,l),
(568,676,l),
(873,198,ls),
(901,154,o),
(907,123,o),
(891,105,cs),
(871,82,o),
(819,80,o),
(741,75,c),
(741,-2,l)
);
},
{
closed = 1;
nodes = (
(946,974,ls),
(1013,1038,o),
(1054,1072,o),
(1098,1095,cs),
(1146,1120,o),
(1206,1134,o),
(1262,1137,c),
(1262,1212,l),
(1164,1212,o),
(1090,1204,o),
(1018,1204,cs),
(951,1204,o),
(851,1212,o),
(768,1212,c),
(768,1134,l),
(851,1134,o),
(894,1128,o),
(900,1102,cs),
(906,1074,o),
(871,1029,o),
(822,982,cs),
(318,500,l),
(376,429,l)
);
}
);
width = 1350;
},
{
backgroundImage = {
imagePath = "Mergenthaler docs/Kursiv/uppercase.tif";
locked = 1;
pos = (-14522,-444);
scale = (189.9767,189.9767);
};
hints = (
{
name = _corner.universal;
origin = (2,6);
type = Corner;
},
{
name = _corner.universal;
origin = (2,7);
type = Corner;
},
{
name = _corner.universal;
origin = (2,13);
type = Corner;
},
{
name = _corner.universal;
origin = (2,14);
type = Corner;
},
{
name = _corner.universal;
origin = (1,5);
type = Corner;
},
{
name = _corner.universal;
origin = (1,6);
type = Corner;
},
{
name = _corner.universal;
origin = (1,18);
type = Corner;
},
{
name = _corner.universal;
origin = (1,19);
type = Corner;
},
{
name = _corner.universal;
origin = (0,5);
type = Corner;
},
{
name = _corner.universal;
origin = (0,6);
type = Corner;
},
{
name = _corner.universal;
origin = (0,19);
type = Corner;
},
{
name = _corner.universal;
origin = (0,20);
type = Corner;
},
{
name = _corner.universal;
origin = (0,26);
type = Corner;
},
{
name = _corner.universal;
origin = (0,27);
type = Corner;
},
{
name = _corner.universal;
origin = (0,40);
type = Corner;
},
{
name = _corner.universal;
origin = (0,41);
type = Corner;
}
);
layerId = master01;
shapes = (
{
closed = 1;
nodes = (
(109,-2,o),
(197,6,o),
(266,6,cs),
(329,6,o),
(404,-2,o),
(513,-2,c),
(513,75,l),
(439,78,o),
(407,90,o),
(394,103,cs),
(374,123,o),
(380,161,o),
(394,218,cs),
(582,972,ls),
(604,1062,o),
(629,1085,o),
(640,1096,cs),
(672,1128,o),
(711,1132,o),
(767,1135,c),
(767,1212,l),
(669,1212,o),
(603,1204,o),
(534,1204,cs),
(469,1204,o),
(386,1212,o),
(289,1212,c),
(289,1134,l),
(368,1134,o),
(406,1117,o),
(416,1094,cs),
(427,1070,o),
(417,1029,o),
(402,968,cs),
(217,227,ls),
(204,173,o),
(189,140,o),
(167,118,cs),
(144,95,o),
(102,77,o),
(35,75,c),
(35,-2,l)
);
},
{
closed = 1;
nodes = (
(773,-2,o),
(852,6,o),
(928,6,cs),
(996,6,o),
(1077,-2,o),
(1194,-2,c),
(1194,73,l),
(1056,79,o),
(1024,99,o),
(977,215,cs),
(749,773,l),
(606,676,l),
(775,224,ls),
(800,158,o),
(808,121,o),
(793,103,cs),
(778,84,o),
(746,80,o),
(659,75,c),
(659,-2,l)
);
},
{
closed = 1;
nodes = (
(980,893,ls),
(1099,992,o),
(1141,1033,o),
(1183,1068,cs),
(1212,1092,o),
(1268,1125,o),
(1313,1137,c),
(1313,1212,l),
(1246,1212,o),
(1187,1204,o),
(1115,1204,cs),
(1056,1204,o),
(967,1212,o),
(881,1212,c),
(881,1134,l),
(980,1134,o),
(1011,1118,o),
(1011,1087,cs),
(1011,1056,o),
(978,1010,o),
(907,951,cs),
(326,464,l),
(366,382,l)
);
}
);
width = 1350;
}
);
unicode = 75;
},
{
glyphname = L;
kernLeft = E;
kernRight = L;
lastChange = "2021-05-11 15:30:18 +0000";
layers = (
{
hints = (
{
name = _corner.universal;
origin = (0,26);
type = Corner;
},
{
name = _corner.universal;
origin = (0,27);
type = Corner;
},
{
name = _corner.universal;
origin = (0,40);
type = Corner;
},
{
name = _corner.universal;
origin = (0,41);
type = Corner;
},
{
name = _corner.universal;
origin = (0,19);
type = Corner;
},
{
name = _corner.universal;
origin = (0,20);
type = Corner;
},
{
name = _corner.universal;
origin = (0,2);
type = Corner;
},
{
name = _corner.universal;
origin = (0,3);
type = Corner;
},
{
name = _corner.universal;
origin = (0,48);
type = Corner;
}
);
layerId = "CA4EC710-46DE-40B5-AF89-3BCF48EEB297";
shapes = (
{
closed = 1;
nodes = (
(1040,147,o),
(1055,319,o),
(1079,469,c),
(1018,469,l),
(925,144,o),
(878,60,o),
(596,60,cs),
(509,60,o),
(458,65,o),
(434,95,cs),
(413,121,o),
(411,160,o),
(411,291,cs),
(411,964,ls),
(411,1045,o),
(417,1099,o),
(450,1125,cs),
(475,1145,o),
(533,1152,o),
(627,1152,c),
(627,1212,l),
(500,1212,o),
(407,1204,o),
(337,1204,cs),
(273,1204,o),
(186,1212,o),
(77,1212,c),
(77,1154,l),
(160,1154,o),
(211,1150,o),
(234,1125,cs),
(251,1107,o),
(257,1060,o),
(257,978,cs),
(257,215,ls),
(257,123,o),
(247,100,o),
(217,80,cs),
(190,62,o),
(143,57,o),
(77,54,c),
(77,-4,l),
(197,-4,o),
(262,0,o),
(331,0,cs),
(624,0,ls),
(755,0,o),
(886,-3,o),
(1033,-8,c)
);
}
);
userData = {
com.typemytype.robofont.mark = (
0.656,
1,
0.6,
1
);
};
width = 1150;
},
{
background = {
shapes = (
{
closed = 1;
nodes = (
(421,1034,o),
(427,1084,o),
(456,1107,cs),
(480,1126,o),
(538,1132,o),
(621,1132,c),
(637,1148,l),
(637,1196,l),
(621,1212,l),
(504,1212,o),
(405,1204,o),
(337,1204,cs),
(275,1204,o),
(181,1212,o),
(83,1212,c),
(67,1196,l),
(67,1150,l),
(83,1134,l),
(161,1134,o),
(207,1130,o),
(227,1108,cs),
(241,1093,o),
(247,1049,o),
(247,968,cs),
(247,225,ls),
(247,136,o),
(238,116,o),
(211,98,cs),
(187,82,o),
(145,78,o),
(83,74,c),
(67,58,l),
(67,12,l),
(83,-4,l),
(200,-4,o),
(263,0,o),
(331,0,cs),
(624,0,ls),
(758,0,o),
(892,-4,o),
(1027,-8,c),
(1043,8,l),
(1047,153,o),
(1065,327,o),
(1088,473,c),
(1072,489,l),
(1024,489,l),
(1006,475,l),
(916,158,o),
(870,80,o),
(596,80,cs),
(510,80,o),
(463,85,o),
(442,111,cs),
(423,135,o),
(421,170,o),
(421,301,cs),
(421,954,ls)
);
}
);
};
hints = (
{
name = _corner.universal;
origin = (0,26);
type = Corner;
},
{
name = _corner.universal;
origin = (0,27);
type = Corner;
},
{
name = _corner.universal;
origin = (0,40);
type = Corner;
},
{
name = _corner.universal;
origin = (0,41);
type = Corner;
},
{
name = _corner.universal;
origin = (0,19);
type = Corner;
},
{
name = _corner.universal;
origin = (0,20);
type = Corner;
},
{
name = _corner.universal;
origin = (0,2);
type = Corner;
},
{
name = _corner.universal;
origin = (0,3);
type = Corner;
},
{
name = _corner.universal;
origin = (0,48);
type = Corner;
}
);
layerId = "25879A17-30FE-49F5-8BDD-4D78448C8558";
shapes = (
{
closed = 1;
nodes = (
(1049,153,o),
(1065,334,o),
(1091,489,c),
(1010,489,l),
(917,160,o),
(874,80,o),
(596,80,cs),
(510,80,o),
(463,85,o),
(442,111,cs),
(423,135,o),
(421,170,o),
(421,301,cs),
(421,954,ls),
(421,1034,o),
(427,1084,o),
(456,1107,cs),
(480,1126,o),
(538,1132,o),
(637,1132,c),
(637,1212,l),
(504,1212,o),
(408,1204,o),
(337,1204,cs),
(272,1204,o),
(181,1212,o),
(67,1212,c),
(67,1134,l),
(155,1134,o),
(206,1131,o),
(227,1108,cs),
(241,1093,o),
(247,1049,o),
(247,968,cs),
(247,225,ls),
(247,136,o),
(238,116,o),
(211,98,cs),
(185,81,o),
(138,77,o),
(67,73,c),
(67,-4,l),
(194,-4,o),
(260,0,o),
(331,0,cs),
(624,0,ls),
(758,0,o),
(892,-3,o),
(1043,-8,c)
);
}
);
width = 1150;
},
{
background = {
hints = (
{
name = _corner.universal;
origin = (0,5);
type = Corner;
},
{
name = _corner.universal;
origin = (0,6);
type = Corner;
},
{
name = _corner.universal;
origin = (0,19);
type = Corner;
},
{
name = _corner.universal;
origin = (0,20);
type = Corner;
},
{
name = _corner.universal;
origin = (0,26);
type = Corner;
},
{
name = _corner.universal;
origin = (0,27);
type = Corner;
},
{
name = _corner.universal;
origin = (0,40);
type = Corner;
},
{
name = _corner.universal;
origin = (0,41);
type = Corner;
}
);
shapes = (
{
closed = 1;
nodes = (
(109,-2,o),
(197,6,o),
(266,6,cs),
(329,6,o),
(404,-2,o),
(513,-2,c),
(513,75,l),
(439,78,o),
(407,90,o),
(394,103,cs),
(374,123,o),
(380,161,o),
(394,218,cs),
(582,972,ls),
(602,1054,o),
(629,1085,o),
(640,1096,cs),
(672,1128,o),
(721,1135,o),
(767,1135,c),
(767,1212,l),
(669,1212,o),
(603,1204,o),
(534,1204,cs),
(469,1204,o),
(386,1212,o),
(289,1212,c),
(289,1134,l),
(362,1134,o),
(406,1119,o),
(416,1094,cs),
(427,1067,o),
(417,1027,o),
(402,968,cs),
(217,227,ls),
(204,173,o),
(189,140,o),
(167,118,cs),
(144,95,o),
(102,77,o),
(35,75,c),
(35,-2,l)
);
}
);
};
backgroundImage = {
imagePath = "Mergenthaler docs/Kursiv/uppercase.tif";
locked = 1;
pos = (-16132,-444);
scale = (189.9767,189.9767);
};
hints = (
{
name = _corner.universal;
origin = (0,2);
type = Corner;
},
{
name = _corner.universal;
origin = (0,3);
type = Corner;
},
{
name = _corner.universal;
origin = (0,19);
type = Corner;
},
{
name = _corner.universal;
origin = (0,20);
type = Corner;
},
{
name = _corner.universal;
origin = (0,26);
type = Corner;
},
{
name = _corner.universal;
origin = (0,27);
type = Corner;
},
{
name = _corner.universal;
origin = (0,40);
type = Corner;
},
{
name = _corner.universal;
origin = (0,41);
type = Corner;
},
{
name = _corner.universal;
origin = (0,48);
type = Corner;
}
);
layerId = master01;
shapes = (
{
closed = 1;
nodes = (
(1004,151,o),
(1044,295,o),
(1099,476,c),
(1020,498,l),
(886,170,o),
(786,80,o),
(530,80,cs),
(444,80,o),
(403,85,o),
(389,111,cs),
(376,135,o),
(382,170,o),
(415,301,cs),
(582,972,ls),
(602,1054,o),
(629,1085,o),
(640,1096,cs),
(672,1128,o),
(720,1132,o),
(803,1132,c),
(803,1212,l),
(680,1212,o),
(603,1204,o),
(532,1204,cs),
(469,1204,o),
(374,1212,o),
(254,1212,c),
(254,1134,l),
(362,1134,o),
(405,1120,o),
(416,1094,cs),
(427,1067,o),
(417,1027,o),
(402,968,cs),
(217,225,ls),
(204,173,o),
(189,140,o),
(167,118,cs),
(144,95,o),
(105,79,o),
(35,73,c),
(35,-4,l),
(125,-4,o),
(213,0,o),
(266,0,cs),
(522,0,ls),
(679,0,o),
(820,-3,o),
(974,-8,c)
);
}
);
width = 1150;
}
);
unicode = 76;
},
{
glyphname = M;
kernLeft = E;
kernRight = I;
lastChange = "2021-08-21 12:07:33 +0000";
layers = (
{
hints = (
{
name = _corner.universal;
origin = (0,33);
type = Corner;
},
{
name = _corner.universal;
origin = (0,34);
type = Corner;
},
{
name = _corner.universal;
origin = (0,19);
type = Corner;
},
{
name = _corner.universal;
origin = (0,20);
type = Corner;
},
{
name = _corner.universal;
origin = (0,12);
type = Corner;
},
{
name = _corner.universal;
origin = (0,13);
type = Corner;
},
{
name = _corner.universal;
origin = (0,0);
type = Corner;
},
{
name = _corner.universal;
origin = (0,85);
type = Corner;
},
{
name = _corner.universal;
origin = (0,72);
type = Corner;
},
{
name = _corner.universal;
origin = (0,73);
type = Corner;
},
{
name = _corner.universal;
origin = (0,65);
type = Corner;
},
{
name = _corner.universal;
origin = (0,66);
type = Corner;
},
{
name = _corner.universal;
origin = (0,51);
type = Corner;
},
{
name = _corner.universal;
origin = (0,52);
type = Corner;
},
{
name = _corner.universal;
origin = (0,47);
type = Corner;
},
{
name = _corner.universal;
origin = (0,38);
type = Corner;
}
);
layerId = "CA4EC710-46DE-40B5-AF89-3BCF48EEB297";
shapes = (
{
closed = 1;
nodes = (
(808,-10,l),
(823,93,o),
(852,200,o),
(892,317,cs),
(1194,1192,l),
(1189,1192,l),
(1189,217,ls),
(1189,125,o),
(1179,102,o),
(1149,82,cs),
(1122,64,o),
(1075,59,o),
(1009,56,c),
(1009,-2,l),
(1135,-2,o),
(1196,6,o),
(1263,6,cs),
(1324,6,o),
(1412,-2,o),
(1521,-2,c),
(1521,56,l),
(1432,60,o),
(1386,60,o),
(1366,82,cs),
(1346,103,o),
(1343,150,o),
(1343,208,cs),
(1343,982,ls),
(1343,1084,o),
(1352,1112,o),
(1382,1133,cs),
(1409,1152,o),
(1468,1154,o),
(1523,1154,c),
(1523,1212,l),
(1398,1212,o),
(1339,1204,o),
(1269,1204,cs),
(1117,1204,l),
(1090,1107,o),
(1067,1039,o),
(1038,955,cs),
(803,270,l),
(816,270,l),
(552,985,ls),
(525,1059,o),
(503,1123,o),
(481,1204,c),
(306,1204,ls),
(241,1204,o),
(166,1212,o),
(82,1212,c),
(82,1154,l),
(171,1154,o),
(221,1143,o),
(239,1120,cs),
(257,1098,o),
(262,1049,o),
(262,960,cs),
(262,306,ls),
(262,173,o),
(241,132,o),
(216,104,cs),
(194,79,o),
(157,63,o),
(82,56,c),
(82,-2,l),
(151,-2,o),
(213,6,o),
(295,6,cs),
(353,6,o),
(429,-2,o),
(502,-2,c),
(502,56,l),
(419,63,o),
(389,77,o),
(371,100,cs),
(349,128,o),
(332,163,o),
(332,298,cs),
(332,1168,l),
(315,1168,l),
(605,389,ls),
(659,245,o),
(701,120,o),
(728,-10,c)
);
},
{
closed = 1;
nodes = (
(384,1048,l),
(342,1186,l),
(300,1186,l),
(300,1048,l)
);
},
{
closed = 1;
nodes = (
(1208,1070,l),
(1208,1199,l),
(1166,1199,l),
(1124,1070,l)
);
}
);
userData = {
com.typemytype.robofont.guides = (
{
angle = 0;
isGlobal = 0;
magnetic = 5;
x = 0;
y = 1028;
}
);
com.typemytype.robofont.mark = (
0.656,
1,
0.6,
1
);
};
width = 1600;
},
{
background = {
shapes = (
{
closed = 1;
nodes = (
(1179,227,ls),
(1179,138,o),
(1170,118,o),
(1143,100,cs),
(1119,84,o),
(1077,80,o),
(1015,76,c),
(999,60,l),
(999,14,l),
(1015,-2,l),
(1132,-2,o),
(1195,6,o),
(1263,6,cs),
(1325,6,o),
(1417,-2,o),
(1515,-2,c),
(1531,14,l),
(1531,60,l),
(1515,76,l),
(1436,80,o),
(1390,80,o),
(1373,99,cs),
(1357,118,o),
(1353,161,o),
(1353,218,cs),
(1353,972,ls),
(1353,1072,o),
(1361,1097,o),
(1388,1115,cs),
(1412,1131,o),
(1465,1134,o),
(1517,1134,c),
(1533,1150,l),
(1533,1196,l),
(1517,1212,l),
(1400,1212,o),
(1337,1204,o),
(1269,1204,cs),
(1124,1204,l),
(1106,1192,l),
(1079,1097,o),
(1058,1029,o),
(1029,948,cs),
(789,270,l),
(830,270,l),
(561,979,ls),
(534,1050,o),
(511,1120,o),
(492,1191,c),
(473,1204,l),
(306,1204,ls),
(239,1204,o),
(159,1212,o),
(88,1212,c),
(72,1196,l),
(72,1150,l),
(88,1134,l),
(166,1134,o),
(215,1123,o),
(231,1104,cs),
(247,1084,o),
(252,1038,o),
(252,950,cs),
(252,316,ls),
(252,186,o),
(231,148,o),
(208,121,cs),
(189,99,o),
(151,82,o),
(88,76,c),
(72,60,l),
(72,14,l),
(88,-2,l),
(146,-2,o),
(217,6,o),
(295,6,cs),
(350,6,o),
(435,-2,o),
(496,-2,c),
(512,14,l),
(512,60,l),
(496,76,l),
(424,82,o),
(395,96,o),
(379,116,cs),
(358,143,o),
(342,176,o),
(342,308,cs),
(342,1168,l),
(300,1168,l),
(596,395,ls),
(649,255,o),
(690,132,o),
(717,6,c),
(733,-10,l),
(803,-10,l),
(819,6,l),
(834,106,o),
(861,210,o),
(901,324,cs),
(1208,1192,l),
(1179,1192,l)
);
},
{
closed = 1;
nodes = (
(290,1186,l),
(290,1028,l),
(398,1028,l),
(349,1186,l)
);
},
{
closed = 1;
nodes = (
(1218,1050,l),
(1218,1199,l),
(1159,1199,l),
(1110,1050,l)
);
}
);
};
hints = (
{
name = _corner.universal;
origin = (0,33);
type = Corner;
},
{
name = _corner.universal;
origin = (0,34);
type = Corner;
},
{
name = _corner.universal;
origin = (0,51);
type = Corner;
},
{
name = _corner.universal;
origin = (0,52);
type = Corner;
},
{
name = _corner.universal;
origin = (0,47);
type = Corner;
},
{
name = _corner.universal;
origin = (0,38);
type = Corner;
},
{
name = _corner.universal;
origin = (0,65);
type = Corner;
},
{
name = _corner.universal;
origin = (0,66);
type = Corner;
},
{
name = _corner.universal;
origin = (0,72);
type = Corner;
},
{
name = _corner.universal;
origin = (0,73);
type = Corner;
},
{
name = _corner.universal;
origin = (0,0);
type = Corner;
},
{
name = _corner.universal;
origin = (0,85);
type = Corner;
},
{
name = _corner.universal;
origin = (0,12);
type = Corner;
},
{
name = _corner.universal;
origin = (0,13);
type = Corner;
},
{
name = _corner.universal;
origin = (0,19);
type = Corner;
},
{
name = _corner.universal;
origin = (0,20);
type = Corner;
}
);
layerId = "25879A17-30FE-49F5-8BDD-4D78448C8558";
shapes = (
{
closed = 1;
nodes = (
(817,-10,l),
(831,95,o),
(859,204,o),
(901,324,cs),
(1208,1192,l),
(1179,1192,l),
(1179,227,ls),
(1179,138,o),
(1170,118,o),
(1143,100,cs),
(1117,83,o),
(1070,79,o),
(999,75,c),
(999,-2,l),
(1132,-2,o),
(1195,6,o),
(1263,6,cs),
(1325,6,o),
(1417,-2,o),
(1531,-2,c),
(1531,75,l),
(1436,80,o),
(1391,80,o),
(1373,99,cs),
(1356,117,o),
(1353,161,o),
(1353,218,cs),
(1353,972,ls),
(1353,1072,o),
(1361,1097,o),
(1388,1115,cs),
(1414,1133,o),
(1476,1134,o),
(1533,1134,c),
(1533,1212,l),
(1400,1212,o),
(1340,1204,o),
(1269,1204,cs),
(1109,1204,l),
(1081,1103,o),
(1059,1032,o),
(1029,948,cs),
(789,270,l),
(830,270,l),
(561,979,ls),
(532,1054,o),
(511,1120,o),
(489,1204,c),
(306,1204,ls),
(239,1204,o),
(159,1212,o),
(72,1212,c),
(72,1134,l),
(166,1134,o),
(215,1124,o),
(231,1104,cs),
(247,1084,o),
(252,1038,o),
(252,950,cs),
(252,316,ls),
(252,186,o),
(231,148,o),
(208,121,cs),
(187,97,o),
(151,82,o),
(72,75,c),
(72,-2,l),
(146,-2,o),
(210,6,o),
(295,6,cs),
(355,6,o),
(435,-2,o),
(512,-2,c),
(512,75,l),
(424,82,o),
(396,95,o),
(379,116,cs),
(358,143,o),
(342,176,o),
(342,308,cs),
(342,1168,l),
(300,1168,l),
(596,395,ls),
(652,249,o),
(693,122,o),
(720,-10,c)
);
},
{
closed = 1;
nodes = (
(398,1028,l),
(349,1186,l),
(290,1186,l),
(290,1028,l)
);
},
{
closed = 1;
nodes = (
(1218,1050,l),
(1218,1199,l),
(1159,1199,l),
(1110,1050,l)
);
}
);
width = 1600;
},
{
backgroundImage = {
imagePath = "Mergenthaler docs/Kursiv/uppercase.tif";
locked = 1;
pos = (-17372,-444);
scale = (189.9767,189.9767);
};
color = 3;
guides = (
{
pos = (545,1008);
}
);
hints = (
{
name = _corner.universal;
origin = (0,33);
type = Corner;
},
{
name = _corner.universal;
origin = (0,34);
type = Corner;
},
{
name = _corner.universal;
origin = (0,51);
type = Corner;
},
{
name = _corner.universal;
origin = (0,52);
type = Corner;
},
{
name = _corner.universal;
origin = (0,47);
type = Corner;
},
{
name = _corner.universal;
origin = (0,38);
type = Corner;
},
{
name = _corner.universal;
origin = (0,65);
type = Corner;
},
{
name = _corner.universal;
origin = (0,66);
type = Corner;
},
{
name = _corner.universal;
origin = (0,72);
type = Corner;
},
{
name = _corner.universal;
origin = (0,73);
type = Corner;
},
{
name = _corner.universal;
origin = (0,0);
type = Corner;
},
{
name = _corner.universal;
origin = (0,85);
type = Corner;
},
{
name = _corner.universal;
origin = (0,12);
type = Corner;
},
{
name = _corner.universal;
origin = (0,13);
type = Corner;
},
{
name = _corner.universal;
origin = (0,19);
type = Corner;
},
{
name = _corner.universal;
origin = (0,20);
type = Corner;
}
);
layerId = master01;
shapes = (
{
closed = 1;
nodes = (
(718,-10,l),
(762,98,o),
(819,200,o),
(892,324,cs),
(1404,1192,l),
(1357,1192,l),
(1117,227,ls),
(1104,173,o),
(1089,140,o),
(1067,118,cs),
(1044,95,o),
(1002,77,o),
(935,75,c),
(935,-2,l),
(1009,-2,o),
(1097,6,o),
(1166,6,cs),
(1229,6,o),
(1304,-2,o),
(1413,-2,c),
(1413,75,l),
(1339,78,o),
(1307,90,o),
(1294,103,cs),
(1274,123,o),
(1280,161,o),
(1294,218,cs),
(1482,972,ls),
(1502,1054,o),
(1513,1086,o),
(1534,1107,cs),
(1554,1127,o),
(1589,1132,o),
(1627,1135,c),
(1627,1212,l),
(1546,1212,o),
(1491,1204,o),
(1395,1204,cs),
(1298,1204,l),
(1245,1102,o),
(1207,1034,o),
(1156,948,cs),
(758,270,l),
(800,270,l),
(737,979,ls),
(730,1054,o),
(726,1120,o),
(725,1204,c),
(578,1204,ls),
(490,1204,o),
(369,1212,o),
(304,1212,c),
(304,1134,l),
(377,1134,o),
(423,1131,o),
(442,1112,cs),
(473,1081,o),
(456,1014,o),
(439,950,cs),
(276,327,ls),
(250,226,o),
(226,158,o),
(186,118,cs),
(160,92,o),
(127,78,o),
(82,75,c),
(82,-2,l),
(139,-2,o),
(209,6,o),
(269,6,cs),
(325,6,o),
(388,-2,o),
(494,-2,c),
(494,75,l),
(401,81,o),
(372,99,o),
(357,127,cs),
(343,153,o),
(336,198,o),
(366,317,cs),
(583,1168,l),
(547,1168,l),
(617,395,ls),
(630,249,o),
(625,122,o),
(618,-10,c)
);
},
{
closed = 1;
nodes = (
(599,1008,l),
(590,1166,l),
(531,1166,l),
(491,1008,l)
);
},
{
closed = 1;
nodes = (
(1367,1002,l),
(1404,1151,l),
(1345,1151,l),
(1259,1002,l)
);
}
);
userData = {
com.typemytype.robofont.guides = (
{
angle = 0;
isGlobal = 0;
magnetic = 5;
x = 0;
y = 1028;
}
);
};
width = 1600;
}
);
unicode = 77;
},
{
glyphname = N;
kernLeft = E;
kernRight = N;
lastChange = "2021-05-11 15:25:51 +0000";
layers = (
{
hints = (
{
name = _corner.universal;
origin = (0,45);
type = Corner;
},
{
name = _corner.universal;
origin = (0,46);
type = Corner;
},
{
name = _corner.universal;
origin = (0,52);
type = Corner;
},
{
name = _corner.universal;
origin = (0,53);
type = Corner;
},
{
name = _corner.universal;
origin = (0,0);
type = Corner;
},
{
name = _corner.universal;
origin = (0,65);
type = Corner;
},
{
name = _corner.universal;
origin = (0,17);
type = Corner;
},
{
name = _corner.universal;
origin = (0,18);
type = Corner;
},
{
name = _corner.universal;
origin = (0,10);
type = Corner;
},
{
name = _corner.universal;
origin = (0,11);
type = Corner;
},
{
name = _corner.universal;
origin = (0,34);
type = Corner;
},
{
name = _corner.universal;
origin = (0,35);
type = Corner;
},
{
name = _corner.universal;
origin = (0,30);
type = Corner;
}
);
layerId = "CA4EC710-46DE-40B5-AF89-3BCF48EEB297";
shapes = (
{
closed = 1;
nodes = (
(1138,-23,l),
(1135,49,o),
(1132,125,o),
(1132,209,cs),
(1132,902,ls),
(1132,1041,o),
(1157,1078,o),
(1177,1102,cs),
(1195,1124,o),
(1233,1149,o),
(1312,1154,c),
(1312,1212,l),
(1224,1212,o),
(1159,1204,o),
(1093,1204,cs),
(1017,1204,o),
(945,1212,o),
(862,1212,c),
(862,1154,l),
(958,1149,o),
(998,1131,o),
(1022,1099,cs),
(1043,1072,o),
(1062,1024,o),
(1062,903,cs),
(1062,160,l),
(1092,195,l),
(649,876,ls),
(566,1003,o),
(502,1101,o),
(438,1204,c),
(312,1204,ls),
(247,1204,o),
(171,1212,o),
(88,1212,c),
(88,1154,l),
(177,1153,o),
(226,1143,o),
(245,1120,cs),
(263,1098,o),
(268,1049,o),
(268,960,cs),
(268,317,ls),
(268,151,o),
(249,71,o),
(88,56,c),
(88,-2,l),
(164,-2,o),
(243,6,o),
(301,6,cs),
(369,6,o),
(433,-2,o),
(536,-2,c),
(536,56,l),
(442,61,o),
(401,81,o),
(378,111,cs),
(357,138,o),
(338,186,o),
(338,307,cs),
(338,1065,l),
(332,1065,l),
(785,372,ls),
(864,252,o),
(971,89,o),
(1028,-23,c)
);
}
);
userData = {
com.typemytype.robofont.mark = (
0.656,
1,
0.6,
1
);
};
width = 1400;
},
{
background = {
shapes = (
{
closed = 1;
nodes = (
(1105,204,l),
(657,872,ls),
(573,998,o),
(513,1093,o),
(450,1194,c),
(429,1204,l),
(312,1204,ls),
(245,1204,o),
(165,1212,o),
(94,1212,c),
(78,1196,l),
(78,1150,l),
(94,1134,l),
(172,1134,o),
(221,1123,o),
(237,1104,cs),
(253,1084,o),
(258,1038,o),
(258,950,cs),
(258,327,ls),
(258,166,o),
(241,92,o),
(94,76,c),
(78,60,l),
(78,14,l),
(94,-2,l),
(152,-2,o),
(241,6,o),
(301,6,cs),
(371,6,o),
(437,-2,o),
(530,-2,c),
(546,14,l),
(546,60,l),
(530,76,l),
(444,82,o),
(408,99,o),
(386,127,cs),
(365,152,o),
(348,198,o),
(348,317,cs),
(348,1065,l),
(313,1065,l),
(777,374,ls),
(855,257,o),
(958,101,o),
(1015,-10,c),
(1033,-23,l),
(1132,-23,l),
(1148,-7,l),
(1145,63,o),
(1142,137,o),
(1142,219,cs),
(1142,892,ls),
(1142,1027,o),
(1165,1063,o),
(1185,1085,cs),
(1202,1105,o),
(1235,1128,o),
(1306,1134,c),
(1322,1150,l),
(1322,1196,l),
(1306,1212,l),
(1228,1212,o),
(1161,1204,o),
(1093,1204,cs),
(1015,1204,o),
(940,1212,o),
(868,1212,c),
(852,1196,l),
(852,1150,l),
(868,1134,l),
(956,1128,o),
(992,1111,o),
(1014,1083,cs),
(1034,1057,o),
(1052,1012,o),
(1052,893,cs),
(1052,143,l)
);
}
);
};
hints = (
{
name = _corner.universal;
origin = (0,45);
type = Corner;
},
{
name = _corner.universal;
origin = (0,46);
type = Corner;
},
{
name = _corner.universal;
origin = (0,52);
type = Corner;
},
{
name = _corner.universal;
origin = (0,53);
type = Corner;
},
{
name = _corner.universal;
origin = (0,0);
type = Corner;
},
{
name = _corner.universal;
origin = (0,65);
type = Corner;
},
{
name = _corner.universal;
origin = (0,17);
type = Corner;
},
{
name = _corner.universal;
origin = (0,18);
type = Corner;
},
{
name = _corner.universal;
origin = (0,10);
type = Corner;
},
{
name = _corner.universal;
origin = (0,11);
type = Corner;
},
{
name = _corner.universal;
origin = (0,34);
type = Corner;
},
{
name = _corner.universal;
origin = (0,35);
type = Corner;
},
{
name = _corner.universal;
origin = (0,30);
type = Corner;
}
);
layerId = "25879A17-30FE-49F5-8BDD-4D78448C8558";
shapes = (
{
closed = 1;
nodes = (
(1149,-23,l),
(1145,52,o),
(1142,131,o),
(1142,219,cs),
(1142,892,ls),
(1142,1027,o),
(1165,1062,o),
(1185,1085,cs),
(1203,1106,o),
(1240,1131,o),
(1322,1135,c),
(1322,1212,l),
(1228,1212,o),
(1161,1204,o),
(1093,1204,cs),
(1015,1204,o),
(940,1212,o),
(852,1212,c),
(852,1135,l),
(952,1130,o),
(991,1113,o),
(1014,1083,cs),
(1034,1057,o),
(1052,1012,o),
(1052,893,cs),
(1052,143,l),
(1105,204,l),
(657,872,ls),
(570,1002,o),
(509,1099,o),
(444,1204,c),
(312,1204,ls),
(245,1204,o),
(165,1212,o),
(78,1212,c),
(78,1134,l),
(172,1134,o),
(220,1124,o),
(237,1104,cs),
(253,1084,o),
(258,1038,o),
(258,950,cs),
(258,327,ls),
(258,160,o),
(240,87,o),
(78,75,c),
(78,-2,l),
(152,-2,o),
(241,6,o),
(301,6,cs),
(371,6,o),
(437,-2,o),
(546,-2,c),
(546,75,l),
(448,80,o),
(408,99,o),
(386,127,cs),
(366,153,o),
(348,198,o),
(348,317,cs),
(348,1065,l),
(313,1065,l),
(777,374,ls),
(859,252,o),
(966,89,o),
(1022,-23,c)
);
}
);
width = 1400;
},
{
backgroundImage = {
imagePath = "Mergenthaler docs/Kursiv/uppercase.tif";
locked = 1;
pos = (-19196,-421);
scale = (189.9767,189.9767);
};
hints = (
{
name = _corner.universal;
origin = (0,45);
type = Corner;
},
{
name = _corner.universal;
origin = (0,46);
type = Corner;
},
{
name = _corner.universal;
origin = (0,52);
type = Corner;
},
{
name = _corner.universal;
origin = (0,53);
type = Corner;
},
{
name = _corner.universal;
origin = (0,0);
type = Corner;
},
{
name = _corner.universal;
origin = (0,65);
type = Corner;
},
{
name = _corner.universal;
origin = (0,17);
type = Corner;
},
{
name = _corner.universal;
origin = (0,18);
type = Corner;
},
{
name = _corner.universal;
origin = (0,10);
type = Corner;
},
{
name = _corner.universal;
origin = (0,11);
type = Corner;
},
{
name = _corner.universal;
origin = (0,34);
type = Corner;
},
{
name = _corner.universal;
origin = (0,35);
type = Corner;
},
{
name = _corner.universal;
origin = (0,30);
type = Corner;
}
);
layerId = master01;
shapes = (
{
closed = 1;
nodes = (
(1027,-23,l),
(1038,52,o),
(1060,164,o),
(1084,259,cs),
(1241,892,ls),
(1275,1027,o),
(1286,1062,o),
(1304,1088,cs),
(1324,1117,o),
(1353,1132,o),
(1415,1135,c),
(1415,1212,l),
(1347,1212,o),
(1298,1204,o),
(1249,1204,cs),
(1169,1204,o),
(1094,1212,o),
(1003,1212,c),
(1003,1135,l),
(1099,1130,o),
(1127,1111,o),
(1146,1083,cs),
(1162,1059,o),
(1179,1012,o),
(1149,893,cs),
(962,143,l),
(1034,204,l),
(733,875,ls),
(684,985,o),
(640,1094,o),
(598,1204,c),
(465,1204,ls),
(404,1204,o),
(333,1212,o),
(254,1212,c),
(254,1134,l),
(352,1134,o),
(392,1116,o),
(415,1085,cs),
(434,1059,o),
(445,1014,o),
(429,950,cs),
(273,327,ls),
(232,162,o),
(199,84,o),
(82,75,c),
(82,-2,l),
(139,-2,o),
(209,6,o),
(269,6,cs),
(325,6,o),
(388,-2,o),
(494,-2,c),
(494,75,l),
(401,81,o),
(372,99,o),
(357,127,cs),
(343,153,o),
(333,198,o),
(363,317,cs),
(550,1065,l),
(454,1065,l),
(762,376,ls),
(821,243,o),
(879,110,o),
(930,-23,c)
);
}
);
width = 1400;
}
);
unicode = 78;
},
{
glyphname = O;
kernLeft = O;
kernRight = O;
lastChange = "2021-05-10 21:10:24 +0000";
layers = (
{
anchors = (
{
name = top;
pos = (600,1210);
}
);
background = {
shapes = (
{
closed = 1;
nodes = (
(85,238,o),
(316,-20,o),
(600,-20,cs),
(884,-20,o),
(1115,236,o),
(1115,605,cs),
(1115,975,o),
(884,1230,o),
(600,1230,cs),
(316,1230,o),
(85,975,o),
(85,604,cs)
);
},
{
closed = 1;
nodes = (
(266,913,o),
(336,1166,o),
(600,1166,cs),
(864,1166,o),
(934,913,o),
(934,605,cs),
(934,297,o),
(864,44,o),
(600,44,cs),
(336,44,o),
(266,297,o),
(266,605,cs)
);
}
);
};
layerId = "CA4EC710-46DE-40B5-AF89-3BCF48EEB297";
shapes = (
{
closed = 1;
nodes = (
(886,-30,o),
(1115,228,o),
(1115,605,cs),
(1115,983,o),
(886,1240,o),
(600,1240,cs),
(314,1240,o),
(85,983,o),
(85,604,cs),
(85,230,o),
(314,-30,o),
(600,-30,cs)
);
},
{
closed = 1;
nodes = (
(336,34,o),
(266,294,o),
(266,605,cs),
(266,916,o),
(336,1176,o),
(600,1176,cs),
(864,1176,o),
(934,916,o),
(934,605,cs),
(934,294,o),
(864,34,o),
(600,34,cs)
);
}
);
userData = {
com.typemytype.robofont.mark = (
0.656,
1,
0.6,
1
);
};
width = 1200;
},
{
anchors = (
{
name = top;
pos = (600,1210);
}
);
layerId = "25879A17-30FE-49F5-8BDD-4D78448C8558";
shapes = (
{
closed = 1;
nodes = (
(890,-30,o),
(1125,230,o),
(1125,605,cs),
(1125,981,o),
(890,1240,o),
(600,1240,cs),
(310,1240,o),
(75,981,o),
(75,604,cs),
(75,232,o),
(310,-30,o),
(600,-30,cs)
);
},
{
closed = 1;
nodes = (
(344,54,o),
(276,302,o),
(276,605,cs),
(276,908,o),
(344,1156,o),
(600,1156,cs),
(856,1156,o),
(924,908,o),
(924,605,cs),
(924,302,o),
(856,54,o),
(600,54,cs)
);
}
);
width = 1200;
},
{
anchors = (
{
name = top;
pos = (799,1210);
}
);
background = {
shapes = (
{
closed = 1;
nodes = (
(831,-30,o),
(1097,229,o),
(1181,605,cs),
(1265,981,o),
(1090,1240,o),
(779,1240,cs),
(471,1240,o),
(204,980,o),
(121,604,cs),
(38,230,o),
(212,-30,o),
(523,-30,cs)
);
},
{
closed = 1;
nodes = (
(287,54,o),
(243,304,o),
(327,605,cs),
(412,908,o),
(542,1156,o),
(783,1156,cs),
(1014,1156,o),
(1041,910,o),
(975,605,cs),
(909,302,o),
(759,54,o),
(518,54,cs)
);
}
);
};
backgroundImage = {
imagePath = "Mergenthaler docs/Kursiv/uppercase.tif";
locked = 1;
pos = (-20861,-436);
scale = (189.9767,189.9767);
};
layerId = master01;
shapes = (
{
closed = 1;
nodes = (
(926,-30,o),
(1202,408,o),
(1202,785,cs),
(1202,1061,o),
(1037,1240,o),
(779,1240,cs),
(376,1240,o),
(100,806,o),
(100,426,cs),
(100,150,o),
(264,-30,o),
(523,-30,cs)
);
},
{
closed = 1;
nodes = (
(358,54,o),
(288,174,o),
(288,349,cs),
(288,549,o),
(430,1156,o),
(783,1156,cs),
(944,1156,o),
(1006,1036,o),
(1006,859,cs),
(1006,592,o),
(870,54,o),
(518,54,cs)
);
}
);
width = 1200;
}
);
unicode = 79;
},
{
glyphname = P;
kernLeft = E;
lastChange = "2021-05-11 15:48:24 +0000";
layers = (
{
hints = (
{
name = _corner.universal;
origin = (0,48);
type = Corner;
},
{
name = _corner.universal;
origin = (0,49);
type = Corner;
},
{
name = _corner.universal;
origin = (0,0);
type = Corner;
},
{
name = _corner.universal;
origin = (0,55);
type = Corner;
},
{
name = _corner.universal;
origin = (0,34);
type = Corner;
},
{
name = _corner.universal;
origin = (0,35);
type = Corner;
}
);
layerId = "CA4EC710-46DE-40B5-AF89-3BCF48EEB297";
shapes = (
{
closed = 1;
nodes = (
(649,56,l),
(521,59,o),
(463,68,o),
(441,86,cs),
(418,105,o),
(411,150,o),
(411,208,cs),
(411,879,ls),
(411,955,o),
(411,1065,o),
(432,1108,cs),
(454,1153,o),
(532,1158,o),
(598,1158,cs),
(809,1158,o),
(887,1050,o),
(887,890,cs),
(887,739,o),
(820,613,o),
(601,613,cs),
(372,613,l),
(372,553,l),
(617,553,ls),
(890,553,o),
(1057,685,o),
(1057,891,cs),
(1057,1090,o),
(913,1218,o),
(647,1218,cs),
(535,1218,o),
(425,1204,o),
(340,1204,cs),
(267,1204,o),
(185,1216,o),
(77,1216,c),
(77,1158,l),
(160,1158,o),
(211,1154,o),
(234,1129,cs),
(251,1111,o),
(257,1062,o),
(257,977,cs),
(257,226,ls),
(257,130,o),
(247,102,o),
(217,82,cs),
(190,64,o),
(143,59,o),
(77,56,c),
(77,-2,l),
(203,-2,o),
(264,6,o),
(344,6,cs),
(420,6,o),
(528,-4,o),
(649,-4,c)
);
}
);
userData = {
com.typemytype.robofont.mark = (
0.656,
1,
0.6,
1
);
};
width = 1150;
},
{
background = {
shapes = (
{
closed = 1;
nodes = (
(893,543,o),
(1067,678,o),
(1067,886,cs),
(1067,1087,o),
(917,1218,o),
(647,1218,cs),
(534,1218,o),
(424,1204,o),
(340,1204,cs),
(265,1204,o),
(181,1216,o),
(83,1216,c),
(67,1200,l),
(67,1154,l),
(83,1138,l),
(161,1138,o),
(207,1134,o),
(227,1112,cs),
(241,1097,o),
(247,1053,o),
(247,972,cs),
(247,236,ls),
(247,143,o),
(238,118,o),
(211,100,cs),
(187,84,o),
(145,80,o),
(83,76,c),
(67,60,l),
(67,14,l),
(83,-2,l),
(200,-2,o),
(263,6,o),
(344,6,cs),
(422,6,o),
(533,-4,o),
(643,-4,c),
(659,12,l),
(659,60,l),
(643,76,l),
(520,80,o),
(466,88,o),
(447,104,cs),
(428,120,o),
(421,161,o),
(421,218,cs),
(421,874,ls),
(421,948,o),
(421,1054,o),
(441,1094,cs),
(460,1133,o),
(533,1138,o),
(598,1138,cs),
(803,1138,o),
(877,1038,o),
(877,885,cs),
(877,741,o),
(813,623,o),
(601,623,cs),
(362,623,l),
(362,543,l),
(617,543,ls)
);
}
);
};
hints = (
{
name = _corner.universal;
origin = (0,48);
type = Corner;
},
{
name = _corner.universal;
origin = (0,49);
type = Corner;
},
{
name = _corner.universal;
origin = (0,0);
type = Corner;
},
{
name = _corner.universal;
origin = (0,55);
type = Corner;
},
{
name = _corner.universal;
origin = (0,34);
type = Corner;
},
{
name = _corner.universal;
origin = (0,35);
type = Corner;
}
);
layerId = "25879A17-30FE-49F5-8BDD-4D78448C8558";
shapes = (
{
closed = 1;
nodes = (
(659,76,l),
(525,79,o),
(467,87,o),
(447,104,cs),
(428,120,o),
(421,161,o),
(421,218,cs),
(421,874,ls),
(421,948,o),
(421,1054,o),
(441,1094,cs),
(460,1133,o),
(533,1138,o),
(598,1138,cs),
(803,1138,o),
(877,1038,o),
(877,885,cs),
(877,741,o),
(813,623,o),
(601,623,cs),
(362,623,l),
(362,543,l),
(617,543,ls),
(893,543,o),
(1067,678,o),
(1067,886,cs),
(1067,1087,o),
(917,1218,o),
(647,1218,cs),
(534,1218,o),
(424,1204,o),
(340,1204,cs),
(265,1204,o),
(181,1216,o),
(67,1216,c),
(67,1138,l),
(155,1138,o),
(206,1135,o),
(227,1112,cs),
(241,1097,o),
(247,1053,o),
(247,972,cs),
(247,236,ls),
(247,143,o),
(238,118,o),
(211,100,cs),
(185,83,o),
(138,79,o),
(67,75,c),
(67,-2,l),
(200,-2,o),
(263,6,o),
(344,6,cs),
(422,6,o),
(533,-4,o),
(659,-4,c)
);
}
);
width = 1150;
},
{
background = {
hints = (
{
name = _corner.universal;
place = (513, 0);
type = Corner;
},
{
name = _corner.universal;
place = (513, 0);
type = Corner;
},
{
name = _corner.universal;
place = (767, 0);
type = Corner;
},
{
name = _corner.universal;
place = (767, 0);
type = Corner;
},
{
name = _corner.universal;
place = (289, 0);
type = Corner;
},
{
name = _corner.universal;
place = (289, 0);
type = Corner;
},
{
name = _corner.universal;
place = (35, 0);
type = Corner;
},
{
name = _corner.universal;
place = (35, 0);
type = Corner;
},
{
name = _corner.universal;
origin = (0,0);
type = Corner;
},
{
name = _corner.universal;
origin = (0,34);
type = Corner;
},
{
name = _corner.universal;
origin = (0,35);
type = Corner;
},
{
name = _corner.universal;
origin = (0,48);
type = Corner;
},
{
name = _corner.universal;
origin = (0,49);
type = Corner;
},
{
name = _corner.universal;
origin = (0,55);
type = Corner;
}
);
shapes = (
{
closed = 1;
nodes = (
(553,76,l),
(445,79,o),
(409,88,o),
(394,103,cs),
(374,123,o),
(380,161,o),
(394,218,cs),
(558,874,ls),
(576,948,o),
(598,1054,o),
(628,1094,cs),
(654,1130,o),
(707,1138,o),
(756,1138,cs),
(910,1138,o),
(983,1021,o),
(943,857,cs),
(911,729,o),
(839,623,o),
(670,623,cs),
(431,623,l),
(411,543,l),
(666,543,ls),
(906,543,o),
(1085,668,o),
(1133,858,cs),
(1175,1031,o),
(1089,1218,o),
(773,1218,cs),
(693,1218,o),
(613,1204,o),
(554,1204,cs),
(472,1204,o),
(384,1216,o),
(259,1216,c),
(259,1138,l),
(362,1134,o),
(406,1119,o),
(416,1094,cs),
(427,1067,o),
(417,1027,o),
(403,972,cs),
(220,236,ls),
(197,143,o),
(189,140,o),
(167,118,cs),
(144,95,o),
(102,77,o),
(35,75,c),
(35,-2,l),
(109,-2,o),
(197,6,o),
(266,6,cs),
(346,6,o),
(442,-4,o),
(552,-4,c)
);
}
);
};
backgroundImage = {
imagePath = "Mergenthaler docs/Kursiv/uppercase.tif";
locked = 1;
pos = (-22390,-444);
scale = (189.9767,189.9767);
};
hints = (
{
name = _corner.universal;
origin = (0,48);
type = Corner;
},
{
name = _corner.universal;
origin = (0,49);
type = Corner;
},
{
name = _corner.universal;
origin = (0,0);
type = Corner;
},
{
name = _corner.universal;
origin = (0,55);
type = Corner;
},
{
name = _corner.universal;
origin = (0,34);
type = Corner;
},
{
name = _corner.universal;
origin = (0,35);
type = Corner;
}
);
layerId = master01;
shapes = (
{
closed = 1;
nodes = (
(571,76,l),
(445,79,o),
(409,86,o),
(394,103,cs),
(377,123,o),
(380,161,o),
(394,218,cs),
(558,874,ls),
(575,943,o),
(605,1059,o),
(629,1094,cs),
(655,1131,o),
(707,1138,o),
(756,1138,cs),
(893,1138,o),
(954,1051,o),
(954,939,cs),
(954,797,o),
(886,623,o),
(657,623,cs),
(431,623,l),
(411,543,l),
(661,543,ls),
(956,543,o),
(1143,723,o),
(1143,930,cs),
(1143,1069,o),
(1051,1218,o),
(773,1218,cs),
(693,1218,o),
(613,1204,o),
(554,1204,cs),
(454,1204,o),
(384,1216,o),
(259,1216,c),
(259,1138,l),
(362,1134,o),
(406,1119,o),
(416,1094,cs),
(427,1067,o),
(417,1027,o),
(403,972,cs),
(220,236,ls),
(197,143,o),
(189,140,o),
(167,118,cs),
(144,95,o),
(102,77,o),
(35,75,c),
(35,-2,l),
(109,-2,o),
(197,6,o),
(266,6,cs),
(351,6,o),
(453,-4,o),
(570,-4,c)
);
}
);
width = 1150;
}
);
unicode = 80;
},
{
glyphname = Q;
kernLeft = O;
kernRight = O;
lastChange = "2021-05-04 15:23:10 +0000";
layers = (
{
background = {
hints = (
{
name = _corner.universal;
origin = (0,17);
type = Corner;
},
{
name = _corner.universal;
origin = (0,18);
type = Corner;
}
);
shapes = (
{
closed = 1;
nodes = (
(509,34,o),
(454,83,o),
(454,161,cs),
(454,230,o),
(495,278,o),
(557,278,cs),
(655,278,o),
(658,188,o),
(661,68,cs),
(662,28,o),
(663,-19,o),
(668,-64,c),
(688,-221,o),
(779,-287,o),
(902,-287,cs),
(1030,-287,o),
(1163,-207,o),
(1161,38,c),
(1102,38,l),
(1099,-117,o),
(1036,-199,o),
(945,-199,cs),
(863,-199,o),
(808,-140,o),
(797,45,cs),
(786,225,o),
(721,336,o),
(577,336,cs),
(473,336,o),
(396,276,o),
(396,173,cs),
(396,133,o),
(410,85,o),
(446,34,c),
(600,34,l)
);
}
);
};
color = 4;
hints = (
{
name = _corner.universal;
origin = (0,14);
type = Corner;
},
{
name = _corner.universal;
origin = (0,15);
type = Corner;
}
);
layerId = "CA4EC710-46DE-40B5-AF89-3BCF48EEB297";
shapes = (
{
closed = 1;
nodes = (
(509,34,o),
(454,83,o),
(454,161,cs),
(454,230,o),
(495,278,o),
(557,278,cs),
(694,278,o),
(648,103,o),
(668,-64,cs),
(687,-221,o),
(779,-287,o),
(902,-287,cs),
(1030,-287,o),
(1163,-207,o),
(1161,38,c),
(1102,38,l),
(1099,-117,o),
(1036,-199,o),
(945,-199,cs),
(863,-199,o),
(808,-140,o),
(797,45,cs),
(786,225,o),
(721,336,o),
(577,336,cs),
(399,336,o),
(347,175,o),
(446,34,c),
(600,34,l)
);
},
{
ref = O;
}
);
userData = {
com.typemytype.robofont.guides = (
{
angle = 90;
isGlobal = 0;
magnetic = 5;
x = 600;
y = 0;
}
);
com.typemytype.robofont.mark = (
0.6,
0.609,
1,
1
);
};
width = 1200;
},
{
background = {
shapes = (
{
closed = 1;
nodes = (
(505,54,o),
(464,90,o),
(464,161,cs),
(464,224,o),
(501,268,o),
(557,268,cs),
(678,268,o),
(638,109,o),
(658,-65,cs),
(677,-234,o),
(772,-297,o),
(902,-297,cs),
(1035,-297,o),
(1174,-214,o),
(1171,32,c),
(1155,48,l),
(1108,48,l),
(1092,32,l),
(1090,-112,o),
(1031,-189,o),
(945,-189,cs),
(869,-189,o),
(818,-132,o),
(807,46,cs),
(796,232,o),
(727,346,o),
(577,346,cs),
(430,346,o),
(335,232,o),
(415,40,c),
(600,54,l)
);
}
);
};
color = 4;
hints = (
{
name = _corner.universal;
origin = (0,14);
type = Corner;
},
{
name = _corner.universal;
origin = (0,15);
type = Corner;
}
);
layerId = "25879A17-30FE-49F5-8BDD-4D78448C8558";
shapes = (
{
closed = 1;
nodes = (
(505,54,o),
(464,90,o),
(464,161,cs),
(464,224,o),
(501,268,o),
(557,268,cs),
(678,268,o),
(638,109,o),
(658,-65,cs),
(677,-234,o),
(772,-297,o),
(902,-297,cs),
(1035,-297,o),
(1180,-214,o),
(1171,48,c),
(1092,48,l),
(1093,-112,o),
(1031,-189,o),
(945,-189,cs),
(869,-189,o),
(818,-132,o),
(807,46,cs),
(796,232,o),
(727,346,o),
(577,346,cs),
(430,346,o),
(335,232,o),
(415,40,c),
(600,54,l)
);
},
{
ref = O;
}
);
width = 1200;
},
{
background = {
shapes = (
{
closed = 1;
nodes = (
(418,54,o),
(386,90,o),
(404,161,cs),
(420,224,o),
(468,268,o),
(524,268,cs),
(645,268,o),
(565,109,o),
(542,-65,cs),
(519,-234,o),
(598,-297,o),
(728,-297,cs),
(861,-297,o),
(1021,-214,o),
(1079,32,c),
(1067,48,l),
(1020,48,l),
(1000,32,l),
(962,-112,o),
(884,-189,o),
(798,-189,cs),
(722,-189,o),
(685,-132,o),
(718,46,cs),
(754,232,o),
(713,346,o),
(563,346,cs),
(416,346,o),
(293,232,o),
(325,40,c),
(513,54,l)
);
}
);
};
backgroundImage = {
imagePath = "Mergenthaler docs/Kursiv/uppercase.tif";
locked = 1;
pos = (-23783,-446);
scale = (189.9767,189.9767);
};
hints = (
{
name = _corner.universal;
origin = (0,14);
type = Corner;
},
{
name = _corner.universal;
origin = (0,15);
type = Corner;
}
);
layerId = master01;
shapes = (
{
closed = 1;
nodes = (
(455,54,o),
(404,86,o),
(404,143,cs),
(404,200,o),
(444,239,o),
(502,239,cs),
(568,239,o),
(626,191,o),
(548,-19,cs),
(475,-216,o),
(559,-325,o),
(707,-325,cs),
(907,-325,o),
(1030,-176,o),
(1096,54,c),
(1019,74,l),
(962,-88,o),
(880,-206,o),
(785,-206,cs),
(703,-206,o),
(682,-137,o),
(702,9,cs),
(729,211,o),
(662,317,o),
(524,317,cs),
(385,317,o),
(313,192,o),
(364,54,c),
(513,54,l)
);
},
{
ref = O;
}
);
userData = {
com.typemytype.robofont.guides = (
{
angle = 90;
isGlobal = 0;
magnetic = 5;
x = 600;
y = 0;
}
);
com.typemytype.robofont.mark = (
0.6,
0.609,
1,
1
);
};
width = 1200;
}
);
unicode = 81;
},
{
glyphname = R;
kernLeft = E;
kernRight = R;
lastChange = "2021-05-11 15:54:55 +0000";
layers = (
{
hints = (
{
name = _corner.universal;
origin = (0,42);
type = Corner;
},
{
name = _corner.universal;
origin = (0,43);
type = Corner;
},
{
name = _corner.universal;
origin = (0,49);
type = Corner;
},
{
name = _corner.universal;
origin = (0,50);
type = Corner;
},
{
name = _corner.universal;
origin = (0,2);
type = Corner;
},
{
name = _corner.universal;
origin = (0,3);
type = Corner;
},
{
name = _corner.universal;
origin = (0,28);
type = Corner;
},
{
name = _corner.universal;
origin = (0,29);
type = Corner;
}
);
layerId = "CA4EC710-46DE-40B5-AF89-3BCF48EEB297";
shapes = (
{
closed = 1;
nodes = (
(1130,-22,o),
(1202,61,o),
(1196,274,c),
(1137,274,l),
(1135,123,o),
(1112,74,o),
(1055,74,cs),
(1020,74,o),
(998,102,o),
(988,166,cs),
(977,239,o),
(984,311,o),
(973,379,cs),
(941,580,o),
(800,648,o),
(620,655,c),
(625,634,l),
(889,635,o),
(1058,742,o),
(1058,923,cs),
(1058,1093,o),
(928,1218,o),
(647,1218,cs),
(535,1218,o),
(425,1204,o),
(340,1204,cs),
(267,1204,o),
(185,1216,o),
(77,1216,c),
(77,1158,l),
(160,1158,o),
(211,1154,o),
(234,1129,cs),
(251,1111,o),
(257,1064,o),
(257,982,cs),
(257,217,ls),
(257,125,o),
(247,102,o),
(217,82,cs),
(190,64,o),
(143,59,o),
(77,56,c),
(77,-2,l),
(202,-2,o),
(261,6,o),
(331,6,cs),
(395,6,o),
(481,-2,o),
(599,-2,c),
(599,56,l),
(507,58,o),
(453,59,o),
(433,83,cs),
(415,104,o),
(411,150,o),
(411,208,cs),
(411,884,ls),
(411,958,o),
(411,1066,o),
(432,1108,cs),
(454,1153,o),
(532,1158,o),
(598,1158,cs),
(809,1158,o),
(883,1037,o),
(883,920,cs),
(883,796,o),
(807,675,o),
(582,675,cs),
(372,675,l),
(372,615,l),
(534,615,ls),
(713,615,o),
(786,566,o),
(806,416,cs),
(818,328,o),
(810,217,o),
(823,130,cs),
(839,24,o),
(914,-22,o),
(1007,-22,cs)
);
}
);
userData = {
com.typemytype.robofont.mark = (
0.656,
1,
0.6,
1
);
};
width = 1250;
},
{
background = {
shapes = (
{
closed = 1;
nodes = (
(830,29,o),
(911,-22,o),
(1007,-22,cs),
(1134,-22,o),
(1210,66,o),
(1206,278,c),
(1190,294,l),
(1143,294,l),
(1127,278,l),
(1124,137,o),
(1103,94,o),
(1055,94,cs),
(1026,94,o),
(1007,116,o),
(998,172,cs),
(987,246,o),
(994,313,o),
(983,381,cs),
(950,593,o),
(784,657,o),
(588,657,c),
(622,633,l),
(890,633,o),
(1068,739,o),
(1068,918,cs),
(1068,1089,o),
(932,1218,o),
(647,1218,cs),
(534,1218,o),
(424,1204,o),
(340,1204,cs),
(265,1204,o),
(181,1216,o),
(83,1216,c),
(67,1200,l),
(67,1154,l),
(83,1138,l),
(161,1138,o),
(207,1134,o),
(227,1112,cs),
(241,1097,o),
(247,1053,o),
(247,972,cs),
(247,227,ls),
(247,138,o),
(238,118,o),
(211,100,cs),
(187,84,o),
(145,80,o),
(83,76,c),
(67,60,l),
(67,14,l),
(83,-2,l),
(200,-2,o),
(263,6,o),
(331,6,cs),
(393,6,o),
(485,-2,o),
(593,-2,c),
(609,14,l),
(609,60,l),
(593,76,l),
(511,78,o),
(458,80,o),
(441,99,cs),
(425,118,o),
(421,161,o),
(421,218,cs),
(421,874,ls),
(421,948,o),
(421,1054,o),
(441,1094,cs),
(460,1133,o),
(533,1138,o),
(598,1138,cs),
(802,1138,o),
(873,1025,o),
(873,915,cs),
(873,798,o),
(800,685,o),
(582,685,cs),
(362,685,l),
(362,605,l),
(534,605,ls),
(709,605,o),
(777,559,o),
(796,415,cs),
(807,329,o),
(799,224,o),
(813,133,cs)
);
}
);
};
hints = (
{
name = _corner.universal;
origin = (0,42);
type = Corner;
},
{
name = _corner.universal;
origin = (0,43);
type = Corner;
},
{
name = _corner.universal;
origin = (0,49);
type = Corner;
},
{
name = _corner.universal;
origin = (0,50);
type = Corner;
},
{
name = _corner.universal;
origin = (0,2);
type = Corner;
},
{
name = _corner.universal;
origin = (0,3);
type = Corner;
},
{
name = _corner.universal;
origin = (0,28);
type = Corner;
},
{
name = _corner.universal;
origin = (0,29);
type = Corner;
}
);
layerId = "25879A17-30FE-49F5-8BDD-4D78448C8558";
shapes = (
{
closed = 1;
nodes = (
(1137,-22,o),
(1214,70,o),
(1206,294,c),
(1127,294,l),
(1126,140,o),
(1105,94,o),
(1055,94,cs),
(1026,94,o),
(1006,116,o),
(998,172,cs),
(987,246,o),
(994,313,o),
(983,381,cs),
(950,593,o),
(784,657,o),
(588,657,c),
(622,633,l),
(890,633,o),
(1068,739,o),
(1068,918,cs),
(1068,1089,o),
(932,1218,o),
(647,1218,cs),
(534,1218,o),
(424,1204,o),
(340,1204,cs),
(265,1204,o),
(181,1216,o),
(67,1216,c),
(67,1138,l),
(155,1138,o),
(206,1135,o),
(227,1112,cs),
(241,1097,o),
(247,1053,o),
(247,972,cs),
(247,227,ls),
(247,138,o),
(238,118,o),
(211,100,cs),
(185,83,o),
(138,79,o),
(67,75,c),
(67,-2,l),
(200,-2,o),
(260,6,o),
(331,6,cs),
(396,6,o),
(485,-2,o),
(609,-2,c),
(609,76,l),
(511,78,o),
(458,78,o),
(441,99,cs),
(425,118,o),
(421,161,o),
(421,218,cs),
(421,874,ls),
(421,948,o),
(421,1054,o),
(441,1094,cs),
(460,1133,o),
(533,1138,o),
(598,1138,cs),
(802,1138,o),
(873,1025,o),
(873,915,cs),
(873,798,o),
(800,685,o),
(582,685,cs),
(362,685,l),
(362,605,l),
(534,605,ls),
(709,605,o),
(777,559,o),
(796,415,cs),
(807,329,o),
(799,224,o),
(813,133,cs),
(829,29,o),
(911,-22,o),
(1007,-22,cs)
);
}
);
width = 1250;
},
{
background = {
hints = (
{
name = _corner.universal;
place = (513, 0);
type = Corner;
},
{
name = _corner.universal;
place = (513, 0);
type = Corner;
},
{
name = _corner.universal;
place = (767, 0);
type = Corner;
},
{
name = _corner.universal;
place = (767, 0);
type = Corner;
},
{
name = _corner.universal;
place = (289, 0);
type = Corner;
},
{
name = _corner.universal;
place = (289, 0);
type = Corner;
},
{
name = _corner.universal;
place = (35, 0);
type = Corner;
},
{
name = _corner.universal;
place = (35, 0);
type = Corner;
},
{
name = _corner.universal;
origin = (0,2);
type = Corner;
},
{
name = _corner.universal;
origin = (0,3);
type = Corner;
},
{
name = _corner.universal;
origin = (0,31);
type = Corner;
},
{
name = _corner.universal;
origin = (0,32);
type = Corner;
},
{
name = _corner.universal;
origin = (0,45);
type = Corner;
},
{
name = _corner.universal;
origin = (0,46);
type = Corner;
},
{
name = _corner.universal;
origin = (0,52);
type = Corner;
},
{
name = _corner.universal;
origin = (0,53);
type = Corner;
}
);
shapes = (
{
closed = 1;
nodes = (
(1042,-22,o),
(1138,65,o),
(1185,276,c),
(1114,294,l),
(1072,140,o),
(1037,94,o),
(983,94,cs),
(948,94,o),
(933,122,o),
(933,153,cs),
(933,209,o),
(982,298,o),
(982,391,cs),
(982,586,o),
(821,652,o),
(666,657,c),
(694,633,l),
(942,633,o),
(1136,716,o),
(1173,861,cs),
(1180,889,o),
(1184,917,o),
(1184,943,cs),
(1184,1101,o),
(1062,1218,o),
(824,1218,cs),
(726,1218,o),
(627,1204,o),
(554,1204,cs),
(472,1204,o),
(375,1216,o),
(258,1216,c),
(258,1138,l),
(336,1138,o),
(375,1116,o),
(392,1094,cs),
(405,1077,o),
(421,1045,o),
(403,972,cs),
(218,227,ls),
(199,151,o),
(181,121,o),
(150,103,cs),
(125,89,o),
(95,79,o),
(35,75,c),
(35,-2,l),
(150,-2,o),
(203,6,o),
(265,6,cs),
(323,6,o),
(402,-2,o),
(513,-2,c),
(513,76,l),
(439,78,o),
(407,90,o),
(394,103,cs),
(374,123,o),
(381,165,o),
(394,218,cs),
(558,874,ls),
(576,948,o),
(605,1062,o),
(635,1096,cs),
(666,1131,o),
(731,1138,o),
(786,1138,cs),
(929,1138,o),
(987,1045,o),
(987,939,cs),
(987,912,o),
(984,885,o),
(977,858,cs),
(955,769,o),
(861,685,o),
(667,685,cs),
(447,685,l),
(427,605,l),
(651,605,ls),
(779,605,o),
(818,554,o),
(818,497,cs),
(818,397,o),
(746,244,o),
(746,154,cs),
(746,38,o),
(812,-22,o),
(916,-22,cs)
);
}
);
};
backgroundImage = {
imagePath = "Mergenthaler docs/Kursiv/uppercase.tif";
locked = 1;
pos = (-25341,-434);
scale = (189.9767,189.9767);
};
hints = (
{
name = _corner.universal;
origin = (0,42);
type = Corner;
},
{
name = _corner.universal;
origin = (0,43);
type = Corner;
},
{
name = _corner.universal;
origin = (0,49);
type = Corner;
},
{
name = _corner.universal;
origin = (0,50);
type = Corner;
},
{
name = _corner.universal;
origin = (0,2);
type = Corner;
},
{
name = _corner.universal;
origin = (0,3);
type = Corner;
},
{
name = _corner.universal;
origin = (0,28);
type = Corner;
},
{
name = _corner.universal;
origin = (0,29);
type = Corner;
}
);
layerId = master01;
shapes = (
{
closed = 1;
nodes = (
(1046,-22,o),
(1130,61,o),
(1175,276,c),
(1104,294,l),
(1062,140,o),
(1027,94,o),
(983,94,cs),
(948,94,o),
(933,122,o),
(933,153,cs),
(933,209,o),
(982,298,o),
(982,391,cs),
(982,586,o),
(821,652,o),
(666,657,c),
(694,633,l),
(987,633,o),
(1184,740,o),
(1184,943,cs),
(1184,1073,o),
(1087,1218,o),
(814,1218,cs),
(726,1218,o),
(627,1204,o),
(554,1204,cs),
(472,1204,o),
(375,1216,o),
(258,1216,c),
(258,1138,l),
(336,1138,o),
(375,1116,o),
(392,1094,cs),
(405,1077,o),
(421,1045,o),
(403,972,cs),
(218,227,ls),
(199,151,o),
(181,121,o),
(150,103,cs),
(125,89,o),
(95,79,o),
(35,75,c),
(35,-2,l),
(150,-2,o),
(203,6,o),
(265,6,cs),
(323,6,o),
(402,-2,o),
(513,-2,c),
(513,76,l),
(439,78,o),
(407,90,o),
(394,103,cs),
(374,123,o),
(381,165,o),
(394,218,cs),
(558,874,ls),
(576,948,o),
(605,1062,o),
(635,1096,cs),
(666,1131,o),
(731,1138,o),
(786,1138,cs),
(924,1138,o),
(990,1055,o),
(990,935,cs),
(990,774,o),
(883,685,o),
(667,685,cs),
(447,685,l),
(427,605,l),
(640,605,ls),
(765,605,o),
(821,554,o),
(821,479,cs),
(821,378,o),
(746,244,o),
(746,141,cs),
(746,38,o),
(812,-22,o),
(916,-22,cs)
);
}
);
width = 1250;
}
);
unicode = 82;
},
{
glyphname = S;
kernLeft = S;
kernRight = S;
lastChange = "2021-05-08 16:01:08 +0000";
layers = (
{
background = {
hints = (
{
name = _corner.universal;
origin = (0,15);
type = Corner;
},
{
name = _corner.universal;
origin = (0,16);
type = Corner;
},
{
name = _corner.universal;
origin = (0,19);
type = Corner;
},
{
name = _corner.universal;
origin = (0,20);
type = Corner;
},
{
name = _corner.universal;
origin = (0,41);
type = Corner;
},
{
name = _corner.universal;
origin = (0,42);
type = Corner;
},
{
name = _corner.universal;
origin = (0,45);
type = Corner;
},
{
name = _corner.universal;
origin = (0,46);
type = Corner;
}
);
shapes = (
{
closed = 1;
nodes = (
(772,-30,o),
(946,131,o),
(946,340,cs),
(946,504,o),
(839,617,o),
(695,664,cs),
(438,748,ls),
(327,784,o),
(271,855,o),
(271,957,cs),
(271,1064,o),
(346,1171,o),
(512,1171,cs),
(668,1171,o),
(790,1035,o),
(826,817,c),
(886,817,l),
(883,953,o),
(886,1090,o),
(892,1226,c),
(837,1226,l),
(769,1076,l),
(824,1080,l),
(747,1178,o),
(635,1241,o),
(491,1241,cs),
(288,1241,o),
(137,1120,o),
(137,917,cs),
(137,761,o),
(235,639,o),
(373,591,cs),
(641,498,ls),
(760,457,o),
(802,356,o),
(802,279,cs),
(802,148,o),
(706,40,o),
(551,40,cs),
(366,40,o),
(248,163,o),
(188,445,c),
(127,445,l),
(130,292,o),
(128,139,o),
(121,-14,c),
(176,-14,l),
(243,134,l),
(203,128,l),
(292,38,o),
(400,-30,o),
(550,-30,cs)
);
}
);
};
hints = (
{
name = _corner.universal;
origin = (0,17);
type = Corner;
},
{
name = _corner.universal;
origin = (0,18);
type = Corner;
},
{
name = _corner.universal;
origin = (0,21);
type = Corner;
},
{
name = _corner.universal;
origin = (0,22);
type = Corner;
},
{
name = _corner.universal;
origin = (0,45);
type = Corner;
},
{
name = _corner.universal;
origin = (0,46);
type = Corner;
},
{
name = _corner.universal;
origin = (0,49);
type = Corner;
},
{
name = _corner.universal;
origin = (0,50);
type = Corner;
}
);
layerId = "CA4EC710-46DE-40B5-AF89-3BCF48EEB297";
shapes = (
{
closed = 1;
nodes = (
(772,-30,o),
(946,131,o),
(946,340,cs),
(946,433,o),
(913,509,o),
(859,563,cs),
(721,700,o),
(430,711,o),
(322,818,cs),
(289,851,o),
(271,899,o),
(271,957,cs),
(271,1064,o),
(346,1171,o),
(512,1171,cs),
(668,1171,o),
(790,1035,o),
(826,817,c),
(886,817,l),
(883,953,o),
(886,1090,o),
(892,1226,c),
(837,1226,l),
(769,1076,l),
(824,1080,l),
(747,1178,o),
(635,1241,o),
(491,1241,cs),
(288,1241,o),
(137,1120,o),
(137,917,cs),
(137,822,o),
(169,745,o),
(231,683,cs),
(363,552,o),
(636,539,o),
(740,435,cs),
(783,392,o),
(802,331,o),
(802,279,cs),
(802,148,o),
(706,40,o),
(551,40,cs),
(366,40,o),
(248,163,o),
(188,445,c),
(127,445,l),
(130,292,o),
(128,139,o),
(121,-14,c),
(176,-14,l),
(243,134,l),
(203,128,l),
(292,38,o),
(400,-30,o),
(550,-30,cs)
);
}
);
userData = {
com.typemytype.robofont.mark = (
0.967,
0.6,
1,
1
);
};
width = 1050;
},
{
background = {
hints = (
{
name = _corner.universal;
origin = (0,15);
type = Corner;
},
{
name = _corner.universal;
origin = (0,16);
type = Corner;
},
{
name = _corner.universal;
origin = (0,19);
type = Corner;
},
{
name = _corner.universal;
origin = (0,20);
type = Corner;
},
{
name = _corner.universal;
origin = (0,41);
type = Corner;
},
{
name = _corner.universal;
origin = (0,42);
type = Corner;
},
{
name = _corner.universal;
origin = (0,45);
type = Corner;
},
{
name = _corner.universal;
origin = (0,46);
type = Corner;
}
);
shapes = (
{
closed = 1;
nodes = (
(776,-30,o),
(956,134,o),
(956,345,cs),
(956,511,o),
(844,626,o),
(698,674,cs),
(441,758,ls),
(334,793,o),
(281,857,o),
(281,952,cs),
(281,1052,o),
(352,1151,o),
(512,1151,cs),
(664,1151,o),
(784,1016,o),
(817,797,c),
(896,797,l),
(893,940,o),
(896,1083,o),
(902,1226,c),
(831,1226,l),
(753,1055,l),
(843,1061,l),
(765,1169,o),
(645,1241,o),
(491,1241,cs),
(285,1241,o),
(127,1117,o),
(127,912,cs),
(127,755,o),
(229,631,o),
(370,582,cs),
(638,489,ls),
(751,450,o),
(792,358,o),
(792,284,cs),
(792,161,o),
(700,60,o),
(551,60,cs),
(370,60,o),
(255,181,o),
(196,465,c),
(117,465,l),
(120,305,o),
(118,146,o),
(111,-14,c),
(182,-14,l),
(260,157,l),
(182,145,l),
(275,47,o),
(389,-30,o),
(550,-30,cs)
);
}
);
};
hints = (
{
name = _corner.universal;
origin = (0,17);
type = Corner;
},
{
name = _corner.universal;
origin = (0,18);
type = Corner;
},
{
name = _corner.universal;
origin = (0,21);
type = Corner;
},
{
name = _corner.universal;
origin = (0,22);
type = Corner;
},
{
name = _corner.universal;
origin = (0,45);
type = Corner;
},
{
name = _corner.universal;
origin = (0,46);
type = Corner;
},
{
name = _corner.universal;
origin = (0,49);
type = Corner;
},
{
name = _corner.universal;
origin = (0,50);
type = Corner;
}
);
layerId = "25879A17-30FE-49F5-8BDD-4D78448C8558";
shapes = (
{
closed = 1;
nodes = (
(776,-30,o),
(956,134,o),
(956,345,cs),
(956,439,o),
(921,517,o),
(866,572,cs),
(727,711,o),
(433,720,o),
(329,823,cs),
(298,854,o),
(281,898,o),
(281,952,cs),
(281,1052,o),
(352,1151,o),
(512,1151,cs),
(664,1151,o),
(784,1016,o),
(817,797,c),
(896,797,l),
(893,940,o),
(896,1083,o),
(902,1226,c),
(831,1226,l),
(753,1055,l),
(843,1061,l),
(765,1169,o),
(645,1241,o),
(491,1241,cs),
(285,1241,o),
(127,1117,o),
(127,912,cs),
(127,816,o),
(161,737,o),
(224,674,cs),
(357,541,o),
(633,530,o),
(733,430,cs),
(774,389,o),
(792,333,o),
(792,284,cs),
(792,161,o),
(700,60,o),
(551,60,cs),
(370,60,o),
(255,181,o),
(196,465,c),
(117,465,l),
(120,305,o),
(118,146,o),
(111,-14,c),
(182,-14,l),
(260,157,l),
(182,145,l),
(275,47,o),
(389,-30,o),
(550,-30,cs)
);
}
);
width = 1050;
},
{
background = {
hints = (
{
name = _corner.universal;
origin = (0,14);
type = Corner;
},
{
name = _corner.universal;
origin = (0,15);
type = Corner;
},
{
name = _corner.universal;
origin = (0,18);
type = Corner;
},
{
name = _corner.universal;
origin = (0,19);
type = Corner;
},
{
name = _corner.universal;
origin = (0,39);
type = Corner;
},
{
name = _corner.universal;
origin = (0,40);
type = Corner;
},
{
name = _corner.universal;
origin = (0,43);
type = Corner;
},
{
name = _corner.universal;
origin = (0,44);
type = Corner;
}
);
shapes = (
{
closed = 1;
nodes = (
(777,-30,o),
(932,127,o),
(932,321,cs),
(932,512,o),
(778,601,o),
(644,684,cs),
(522,760,o),
(398,817,o),
(398,954,cs),
(398,1048,o),
(465,1151,o),
(625,1151,cs),
(797,1151,o),
(881,1027,o),
(856,797,c),
(935,797,l),
(961,935,o),
(993,1072,o),
(1041,1209,c),
(973,1231,l),
(861,1055,l),
(948,1066,l),
(893,1162,o),
(784,1241,o),
(628,1241,cs),
(390,1241,o),
(238,1082,o),
(238,894,cs),
(238,707,o),
(382,615,o),
(523,528,cs),
(645,453,o),
(768,389,o),
(768,257,cs),
(768,136,o),
(684,60,o),
(536,60,cs),
(318,60,o),
(212,193,o),
(246,505,c),
(163,505,l),
(144,342,o),
(105,183,o),
(56,18,c),
(121,-8,l),
(241,163,l),
(150,151,l),
(245,45,o),
(359,-30,o),
(549,-30,cs)
);
}
);
};
backgroundImage = {
imagePath = "Mergenthaler docs/Kursiv/uppercase.tif";
locked = 1;
pos = (-26808,-426);
scale = (189.9767,189.9767);
};
hints = (
{
name = _corner.universal;
origin = (0,21);
type = Corner;
},
{
name = _corner.universal;
origin = (0,22);
type = Corner;
},
{
name = _corner.universal;
origin = (0,17);
type = Corner;
},
{
name = _corner.universal;
origin = (0,18);
type = Corner;
},
{
name = _corner.universal;
origin = (0,45);
type = Corner;
},
{
name = _corner.universal;
origin = (0,46);
type = Corner;
},
{
name = _corner.universal;
origin = (0,49);
type = Corner;
},
{
name = _corner.universal;
origin = (0,50);
type = Corner;
}
);
layerId = master01;
shapes = (
{
closed = 1;
nodes = (
(777,-30,o),
(932,127,o),
(932,321,cs),
(932,418,o),
(892,490,o),
(835,547,cs),
(735,648,o),
(553,719,o),
(462,809,cs),
(423,848,o),
(398,893,o),
(398,954,cs),
(398,1048,o),
(465,1151,o),
(625,1151,cs),
(797,1151,o),
(881,1027,o),
(856,797,c),
(935,797,l),
(961,935,o),
(993,1072,o),
(1041,1209,c),
(973,1231,l),
(861,1055,l),
(948,1066,l),
(893,1162,o),
(784,1241,o),
(628,1241,cs),
(390,1241,o),
(238,1082,o),
(238,894,cs),
(238,794,o),
(279,722,o),
(338,663,cs),
(451,550,o),
(614,493,o),
(704,402,cs),
(743,363,o),
(768,317,o),
(768,257,cs),
(768,136,o),
(684,60,o),
(536,60,cs),
(318,60,o),
(212,193,o),
(246,505,c),
(163,505,l),
(144,342,o),
(105,183,o),
(56,18,c),
(121,-8,l),
(241,163,l),
(150,151,l),
(245,45,o),
(359,-30,o),
(549,-30,cs)
);
}
);
width = 1050;
},
{
associatedMasterId = "25879A17-30FE-49F5-8BDD-4D78448C8558";
background = {
shapes = (
{
closed = 1;
nodes = (
(837,1226,l),
(819,1212,l),
(753,1055,l),
(843,1061,l),
(765,1169,o),
(645,1241,o),
(491,1241,cs),
(285,1241,o),
(127,1117,o),
(127,912,cs),
(127,755,o),
(229,631,o),
(370,582,cs),
(638,489,ls),
(751,450,o),
(792,357,o),
(792,282,cs),
(792,157,o),
(700,55,o),
(551,55,cs),
(373,55,o),
(259,173,o),
(199,449,c),
(183,465,l),
(133,465,l),
(117,449,l),
(117,2,l),
(133,-14,l),
(176,-14,l),
(194,0,l),
(260,157,l),
(182,145,l),
(275,44,o),
(389,-35,o),
(550,-35,cs),
(776,-35,o),
(956,130,o),
(956,343,cs),
(956,510,o),
(844,626,o),
(698,674,cs),
(441,758,ls),
(334,793,o),
(281,857,o),
(281,952,cs),
(281,1052,o),
(352,1151,o),
(512,1151,cs),
(660,1151,o),
(777,1023,o),
(814,815,c),
(830,797,l),
(881,797,l),
(896,813,l),
(896,1210,l),
(881,1226,l)
);
}
);
};
layerId = "B2F6C313-A820-4437-8AAF-43B7DF57E68B";
name = "23. Jan. 21, 17:00";
shapes = (
{
closed = 1;
nodes = (
(776,-35,o),
(956,130,o),
(956,343,cs),
(956,510,o),
(844,626,o),
(698,674,cs),
(441,758,ls),
(334,793,o),
(281,857,o),
(281,952,cs),
(281,1052,o),
(352,1151,o),
(512,1151,cs),
(664,1151,o),
(784,1016,o),
(817,797,c),
(896,797,l),
(896,1226,l),
(825,1226,l),
(753,1055,l),
(843,1061,l),
(765,1169,o),
(645,1241,o),
(491,1241,cs),
(285,1241,o),
(127,1117,o),
(127,912,cs),
(127,755,o),
(229,631,o),
(370,582,cs),
(638,489,ls),
(751,450,o),
(792,357,o),
(792,282,cs),
(792,157,o),
(700,55,o),
(551,55,cs),
(370,55,o),
(255,178,o),
(196,465,c),
(117,465,l),
(117,-14,l),
(188,-14,l),
(260,157,l),
(182,145,l),
(275,44,o),
(389,-35,o),
(550,-35,cs)
);
}
);
width = 1050;
},
{
associatedMasterId = "25879A17-30FE-49F5-8BDD-4D78448C8558";
background = {
hints = (
{
name = _corner.universal;
origin = (0,15);
type = Corner;
},
{
name = _corner.universal;
origin = (0,16);
type = Corner;
},
{
name = _corner.universal;
origin = (0,19);
type = Corner;
},
{
name = _corner.universal;
origin = (0,20);
type = Corner;
},
{
name = _corner.universal;
origin = (0,41);
type = Corner;
},
{
name = _corner.universal;
origin = (0,42);
type = Corner;
},
{
name = _corner.universal;
origin = (0,45);
type = Corner;
},
{
name = _corner.universal;
origin = (0,46);
type = Corner;
}
);
shapes = (
{
closed = 1;
nodes = (
(776,-30,o),
(956,134,o),
(956,345,cs),
(956,511,o),
(844,626,o),
(698,674,cs),
(441,758,ls),
(334,793,o),
(281,857,o),
(281,952,cs),
(281,1052,o),
(352,1151,o),
(512,1151,cs),
(664,1151,o),
(784,1016,o),
(817,797,c),
(896,797,l),
(893,940,o),
(896,1083,o),
(902,1226,c),
(831,1226,l),
(753,1055,l),
(843,1061,l),
(765,1169,o),
(645,1241,o),
(491,1241,cs),
(285,1241,o),
(127,1117,o),
(127,912,cs),
(127,755,o),
(229,631,o),
(370,582,cs),
(638,489,ls),
(751,450,o),
(792,358,o),
(792,284,cs),
(792,161,o),
(700,60,o),
(551,60,cs),
(370,60,o),
(255,181,o),
(196,465,c),
(117,465,l),
(120,305,o),
(118,146,o),
(111,-14,c),
(182,-14,l),
(260,157,l),
(182,145,l),
(275,47,o),
(389,-30,o),
(550,-30,cs)
);
}
);
};
hints = (
{
name = _corner.universal;
origin = (0,15);
type = Corner;
},
{
name = _corner.universal;
origin = (0,16);
type = Corner;
},
{
name = _corner.universal;
origin = (0,19);
type = Corner;
},
{
name = _corner.universal;
origin = (0,20);
type = Corner;
},
{
name = _corner.universal;
origin = (0,41);
type = Corner;
},
{
name = _corner.universal;
origin = (0,42);
type = Corner;
},
{
name = _corner.universal;
origin = (0,45);
type = Corner;
},
{
name = _corner.universal;
origin = (0,46);
type = Corner;
}
);
layerId = "53C69489-8C59-4990-9BFE-156D5596B044";
name = "8. Mai 21, 17:54";
shapes = (
{
closed = 1;
nodes = (
(776,-30,o),
(956,134,o),
(956,345,cs),
(956,511,o),
(844,626,o),
(698,674,cs),
(441,758,ls),
(334,793,o),
(281,857,o),
(281,952,cs),
(281,1052,o),
(352,1151,o),
(512,1151,cs),
(664,1151,o),
(784,1016,o),
(817,797,c),
(896,797,l),
(893,940,o),
(896,1083,o),
(902,1226,c),
(831,1226,l),
(753,1055,l),
(843,1061,l),
(765,1169,o),
(645,1241,o),
(491,1241,cs),
(285,1241,o),
(127,1117,o),
(127,912,cs),
(127,755,o),
(229,631,o),
(370,582,cs),
(638,489,ls),
(751,450,o),
(792,358,o),
(792,284,cs),
(792,161,o),
(700,60,o),
(551,60,cs),
(370,60,o),
(255,181,o),
(196,465,c),
(117,465,l),
(120,305,o),
(118,146,o),
(111,-14,c),
(182,-14,l),
(260,157,l),
(182,145,l),
(275,47,o),
(389,-30,o),
(550,-30,cs)
);
}
);
width = 1050;
},
{
associatedMasterId = "CA4EC710-46DE-40B5-AF89-3BCF48EEB297";
hints = (
{
name = _corner.universal;
origin = (0,19);
type = Corner;
},
{
name = _corner.universal;
origin = (0,20);
type = Corner;
},
{
name = _corner.universal;
origin = (0,15);
type = Corner;
},
{
name = _corner.universal;
origin = (0,16);
type = Corner;
},
{
name = _corner.universal;
origin = (0,41);
type = Corner;
},
{
name = _corner.universal;
origin = (0,42);
type = Corner;
},
{
name = _corner.universal;
origin = (0,45);
type = Corner;
},
{
name = _corner.universal;
origin = (0,46);
type = Corner;
}
);
layerId = "76324844-0578-4719-B0F4-5612D6E0991B";
name = "8. Mai 21, 17:58";
shapes = (
{
closed = 1;
nodes = (
(772,-30,o),
(946,131,o),
(946,340,cs),
(946,504,o),
(839,617,o),
(695,664,cs),
(438,748,ls),
(327,784,o),
(271,855,o),
(271,957,cs),
(271,1064,o),
(346,1171,o),
(512,1171,cs),
(668,1171,o),
(790,1035,o),
(826,817,c),
(886,817,l),
(883,953,o),
(886,1090,o),
(892,1226,c),
(837,1226,l),
(769,1076,l),
(824,1080,l),
(747,1178,o),
(635,1241,o),
(491,1241,cs),
(288,1241,o),
(137,1120,o),
(137,917,cs),
(137,761,o),
(235,639,o),
(373,591,cs),
(641,498,ls),
(760,457,o),
(802,356,o),
(802,279,cs),
(802,148,o),
(706,40,o),
(551,40,cs),
(366,40,o),
(248,163,o),
(188,445,c),
(127,445,l),
(130,292,o),
(128,139,o),
(121,-14,c),
(176,-14,l),
(243,134,l),
(203,128,l),
(292,38,o),
(400,-30,o),
(550,-30,cs)
);
}
);
userData = {
com.typemytype.robofont.mark = (
0.967,
0.6,
1,
1
);
};
width = 1050;
}
);
unicode = 83;
},
{
glyphname = T;
kernLeft = T;
kernRight = T;
lastChange = "2021-05-10 21:01:39 +0000";
layers = (
{
hints = (
{
name = _corner.universal;
origin = (0,22);
type = Corner;
},
{
name = _corner.universal;
origin = (0,23);
type = Corner;
},
{
name = _corner.universal;
origin = (0,35);
type = Corner;
},
{
name = _corner.universal;
origin = (0,36);
type = Corner;
},
{
name = _corner.universal;
origin = (0,52);
type = Corner;
},
{
name = _corner.universal;
origin = (0,53);
type = Corner;
},
{
name = _corner.universal;
origin = (0,5);
type = Corner;
},
{
name = _corner.universal;
origin = (0,6);
type = Corner;
},
{
name = _corner.universal;
origin = (0,26);
type = Corner;
},
{
name = _corner.universal;
origin = (0,32);
type = Corner;
}
);
layerId = "CA4EC710-46DE-40B5-AF89-3BCF48EEB297";
shapes = (
{
closed = 1;
nodes = (
(397,-2,o),
(477,6,o),
(547,6,cs),
(618,6,o),
(706,-2,o),
(835,-2,c),
(835,56,l),
(722,57,o),
(670,60,o),
(650,82,cs),
(630,103,o),
(627,150,o),
(627,208,cs),
(627,968,ls),
(627,1029,o),
(629,1090,o),
(646,1115,cs),
(663,1140,o),
(698,1148,o),
(732,1148,cs),
(907,1148,o),
(952,1054,o),
(990,835,c),
(1056,835,l),
(1043,961,o),
(1035,1090,o),
(1034,1219,c),
(869,1208,o),
(746,1204,o),
(553,1204,cs),
(373,1204,o),
(241,1208,o),
(66,1219,c),
(65,1091,o),
(55,963,o),
(45,835,c),
(110,835,l),
(149,1060,o),
(193,1148,o),
(363,1148,cs),
(402,1148,o),
(435,1139,o),
(452,1120,cs),
(471,1099,o),
(473,1053,o),
(473,1001,cs),
(473,217,ls),
(473,125,o),
(463,102,o),
(433,82,cs),
(406,64,o),
(353,58,o),
(263,55,c),
(263,-2,l)
);
}
);
userData = {
com.typemytype.robofont.guides = (
{
angle = 0;
isGlobal = 0;
magnetic = 5;
x = 0;
y = 1204;
}
);
com.typemytype.robofont.mark = (
0.967,
0.6,
1,
1
);
};
width = 1100;
},
{
background = {
shapes = (
{
closed = 1;
nodes = (
(637,1019,o),
(639,1077,o),
(654,1100,cs),
(668,1122,o),
(699,1128,o),
(732,1128,cs),
(898,1128,o),
(942,1042,o),
(979,830,c),
(997,815,l),
(1050,815,l),
(1065,831,l),
(1053,953,o),
(1046,1078,o),
(1044,1203,c),
(1027,1219,l),
(866,1208,o),
(743,1204,o),
(553,1204,cs),
(375,1204,o),
(244,1208,o),
(72,1219,c),
(56,1204,l),
(54,1079,o),
(46,955,o),
(35,830,c),
(50,815,l),
(103,815,l),
(121,830,l),
(159,1048,o),
(202,1128,o),
(363,1128,cs),
(400,1128,o),
(430,1120,o),
(445,1103,cs),
(461,1085,o),
(463,1043,o),
(463,991,cs),
(463,227,ls),
(463,138,o),
(454,118,o),
(427,100,cs),
(403,84,o),
(354,79,o),
(269,76,c),
(253,60,l),
(253,14,l),
(269,-2,l),
(394,-2,o),
(476,6,o),
(547,6,cs),
(619,6,o),
(710,-2,o),
(829,-2,c),
(845,14,l),
(845,60,l),
(829,76,l),
(721,77,o),
(674,80,o),
(657,99,cs),
(641,118,o),
(637,161,o),
(637,218,cs),
(637,958,ls)
);
}
);
};
hints = (
{
name = _corner.universal;
origin = (0,22);
type = Corner;
},
{
name = _corner.universal;
origin = (0,23);
type = Corner;
},
{
name = _corner.universal;
origin = (0,35);
type = Corner;
},
{
name = _corner.universal;
origin = (0,36);
type = Corner;
},
{
name = _corner.universal;
origin = (0,52);
type = Corner;
},
{
name = _corner.universal;
origin = (0,53);
type = Corner;
},
{
name = _corner.universal;
origin = (0,5);
type = Corner;
},
{
name = _corner.universal;
origin = (0,6);
type = Corner;
},
{
name = _corner.universal;
origin = (0,26);
type = Corner;
},
{
name = _corner.universal;
origin = (0,32);
type = Corner;
}
);
layerId = "25879A17-30FE-49F5-8BDD-4D78448C8558";
shapes = (
{
closed = 1;
nodes = (
(394,-2,o),
(476,6,o),
(547,6,cs),
(619,6,o),
(710,-2,o),
(845,-2,c),
(845,76,l),
(726,77,o),
(675,79,o),
(657,99,cs),
(640,117,o),
(637,161,o),
(637,218,cs),
(637,958,ls),
(637,1019,o),
(639,1077,o),
(654,1100,cs),
(668,1122,o),
(699,1128,o),
(732,1128,cs),
(902,1128,o),
(944,1038,o),
(982,815,c),
(1067,815,l),
(1053,948,o),
(1045,1084,o),
(1044,1220,c),
(874,1208,o),
(750,1204,o),
(553,1204,cs),
(370,1204,o),
(236,1208,o),
(56,1220,c),
(55,1085,o),
(45,950,o),
(34,815,c),
(118,815,l),
(157,1044,o),
(198,1128,o),
(363,1128,cs),
(400,1128,o),
(430,1120,o),
(445,1103,cs),
(461,1085,o),
(463,1043,o),
(463,991,cs),
(463,227,ls),
(463,138,o),
(454,118,o),
(427,100,cs),
(402,83,o),
(348,78,o),
(253,75,c),
(253,-2,l)
);
}
);
width = 1100;
},
{
backgroundImage = {
imagePath = "Mergenthaler docs/Kursiv/uppercase.tif";
locked = 1;
pos = (-28064,-454);
scale = (189.9767,189.9767);
};
hints = (
{
name = _corner.universal;
origin = (0,22);
type = Corner;
},
{
name = _corner.universal;
origin = (0,23);
type = Corner;
},
{
name = _corner.universal;
origin = (0,35);
type = Corner;
},
{
name = _corner.universal;
origin = (0,36);
type = Corner;
},
{
name = _corner.universal;
origin = (0,52);
type = Corner;
},
{
name = _corner.universal;
origin = (0,53);
type = Corner;
},
{
name = _corner.universal;
origin = (0,5);
type = Corner;
},
{
name = _corner.universal;
origin = (0,6);
type = Corner;
},
{
name = _corner.universal;
origin = (0,26);
type = Corner;
},
{
name = _corner.universal;
origin = (0,32);
type = Corner;
}
);
layerId = master01;
shapes = (
{
closed = 1;
nodes = (
(270,-2,o),
(375,6,o),
(448,6,cs),
(513,6,o),
(609,-2,o),
(732,-2,c),
(732,76,l),
(631,77,o),
(598,100,o),
(586,118,cs),
(574,136,o),
(575,175,o),
(586,218,cs),
(777,958,ls),
(793,1019,o),
(808,1085,o),
(830,1107,cs),
(847,1124,o),
(875,1128,o),
(901,1128,cs),
(1025,1128,o),
(1060,1016,o),
(1037,760,c),
(1121,760,l),
(1136,921,o),
(1171,1066,o),
(1213,1220,c),
(1051,1209,o),
(911,1204,o),
(748,1204,cs),
(534,1204,o),
(376,1211,o),
(262,1220,c),
(231,1074,o),
(181,928,o),
(123,782,c),
(203,754,l),
(315,999,o),
(412,1128,o),
(551,1128,cs),
(582,1128,o),
(599,1123,o),
(609,1113,cs),
(627,1095,o),
(618,1041,o),
(605,991,cs),
(409,227,ls),
(391,155,o),
(372,125,o),
(341,107,cs),
(314,91,o),
(263,78,o),
(175,75,c),
(175,-2,l)
);
}
);
userData = {
com.typemytype.robofont.guides = (
{
angle = 0;
isGlobal = 0;
magnetic = 5;
x = 0;
y = 1204;
}
);
};
width = 1100;
}
);
unicode = 84;
},
{
glyphname = U;
kernLeft = U;
kernRight = U;
lastChange = "2021-08-21 10:32:19 +0000";
layers = (
{
anchors = (
{
name = top;
pos = (675,1210);
}
);
hints = (
{
name = _corner.universal;
origin = (0,12);
type = Corner;
},
{
name = _corner.universal;
origin = (0,13);
type = Corner;
},
{
name = _corner.universal;
origin = (0,19);
type = Corner;
},
{
name = _corner.universal;
origin = (0,20);
type = Corner;
},
{
name = _corner.universal;
origin = (0,43);
type = Corner;
},
{
name = _corner.universal;
origin = (0,44);
type = Corner;
},
{
name = _corner.universal;
origin = (0,50);
type = Corner;
},
{
name = _corner.universal;
origin = (0,51);
type = Corner;
}
);
layerId = "CA4EC710-46DE-40B5-AF89-3BCF48EEB297";
shapes = (
{
closed = 1;
nodes = (
(794,-30,o),
(895,24,o),
(957,86,cs),
(1053,182,o),
(1074,311,o),
(1074,454,cs),
(1074,902,ls),
(1074,1041,o),
(1099,1078,o),
(1117,1100,cs),
(1138,1123,o),
(1175,1149,o),
(1266,1155,c),
(1266,1212,l),
(1177,1211,o),
(1090,1204,o),
(1036,1204,cs),
(987,1204,o),
(898,1211,o),
(812,1212,c),
(812,1154,l),
(900,1148,o),
(937,1128,o),
(957,1107,cs),
(981,1081,o),
(1004,1034,o),
(1004,904,cs),
(1004,449,ls),
(1004,354,o),
(985,220,o),
(906,142,cs),
(859,95,o),
(766,58,o),
(657,58,cs),
(455,58,o),
(370,200,o),
(370,427,cs),
(370,982,ls),
(370,1084,o),
(379,1113,o),
(409,1133,cs),
(436,1152,o),
(495,1154,o),
(550,1154,c),
(550,1212,l),
(424,1212,o),
(363,1204,o),
(296,1204,cs),
(235,1204,o),
(145,1212,o),
(36,1212,c),
(36,1154,l),
(119,1154,o),
(170,1150,o),
(193,1125,cs),
(210,1107,o),
(216,1060,o),
(216,978,cs),
(216,423,ls),
(216,85,o),
(400,-30,o),
(649,-30,cs)
);
}
);
userData = {
com.typemytype.robofont.mark = (
0.967,
0.6,
1,
1
);
};
width = 1300;
},
{
anchors = (
{
name = top;
pos = (675,1210);
}
);
background = {
shapes = (
{
closed = 1;
nodes = (
(1084,1027,o),
(1107,1062,o),
(1125,1083,cs),
(1144,1105,o),
(1177,1128,o),
(1260,1134,c),
(1276,1150,l),
(1276,1196,l),
(1260,1212,l),
(1183,1212,o),
(1092,1204,o),
(1036,1204,cs),
(986,1204,o),
(892,1212,o),
(818,1212,c),
(802,1196,l),
(802,1150,l),
(818,1134,l),
(898,1128,o),
(932,1109,o),
(950,1090,cs),
(972,1066,o),
(994,1021,o),
(994,894,cs),
(994,458,ls),
(994,364,o),
(974,261,o),
(928,192,cs),
(874,112,o),
(764,77,o),
(657,77,cs),
(462,77,o),
(380,213,o),
(380,436,cs),
(380,972,ls),
(380,1072,o),
(388,1097,o),
(415,1115,cs),
(439,1131,o),
(492,1134,o),
(544,1134,c),
(560,1150,l),
(560,1196,l),
(544,1212,l),
(427,1212,o),
(364,1204,o),
(296,1204,cs),
(234,1204,o),
(140,1212,o),
(42,1212,c),
(26,1196,l),
(26,1150,l),
(42,1134,l),
(120,1134,o),
(166,1130,o),
(186,1108,cs),
(200,1093,o),
(206,1049,o),
(206,968,cs),
(206,432,ls),
(206,88,o),
(397,-31,o),
(649,-31,cs),
(795,-31,o),
(917,22,o),
(997,126,cs),
(1059,207,o),
(1084,319,o),
(1084,463,cs),
(1084,892,ls)
);
}
);
};
hints = (
{
name = _corner.universal;
origin = (0,50);
type = Corner;
},
{
name = _corner.universal;
origin = (0,51);
type = Corner;
},
{
name = _corner.universal;
origin = (0,19);
type = Corner;
},
{
name = _corner.universal;
origin = (0,20);
type = Corner;
},
{
name = _corner.universal;
origin = (0,43);
type = Corner;
},
{
name = _corner.universal;
origin = (0,44);
type = Corner;
},
{
name = _corner.universal;
origin = (0,12);
type = Corner;
},
{
name = _corner.universal;
origin = (0,13);
type = Corner;
}
);
layerId = "25879A17-30FE-49F5-8BDD-4D78448C8558";
shapes = (
{
closed = 1;
nodes = (
(797,-30,o),
(901,26,o),
(964,89,cs),
(1062,187,o),
(1084,320,o),
(1084,464,cs),
(1084,892,ls),
(1084,1027,o),
(1107,1062,o),
(1125,1083,cs),
(1145,1106,o),
(1181,1131,o),
(1276,1135,c),
(1276,1212,l),
(1183,1212,o),
(1092,1204,o),
(1036,1204,cs),
(986,1204,o),
(892,1212,o),
(802,1212,c),
(802,1135,l),
(894,1130,o),
(931,1110,o),
(950,1090,cs),
(972,1066,o),
(994,1021,o),
(994,894,cs),
(994,459,ls),
(994,365,o),
(975,235,o),
(899,159,cs),
(854,114,o),
(764,78,o),
(657,78,cs),
(462,78,o),
(380,214,o),
(380,437,cs),
(380,972,ls),
(380,1072,o),
(388,1097,o),
(415,1115,cs),
(441,1133,o),
(503,1134,o),
(560,1134,c),
(560,1212,l),
(427,1212,o),
(364,1204,o),
(296,1204,cs),
(234,1204,o),
(140,1212,o),
(26,1212,c),
(26,1134,l),
(114,1134,o),
(165,1131,o),
(186,1108,cs),
(200,1093,o),
(206,1049,o),
(206,968,cs),
(206,433,ls),
(206,89,o),
(397,-30,o),
(649,-30,cs)
);
}
);
width = 1300;
},
{
anchors = (
{
name = top;
pos = (874,1210);
}
);
background = {
hints = (
{
name = _corner.universal;
origin = (0,5);
type = Corner;
},
{
name = _corner.universal;
origin = (0,6);
type = Corner;
},
{
name = _corner.universal;
origin = (0,19);
type = Corner;
},
{
name = _corner.universal;
origin = (0,20);
type = Corner;
},
{
name = _corner.universal;
origin = (0,26);
type = Corner;
},
{
name = _corner.universal;
origin = (0,27);
type = Corner;
},
{
name = _corner.universal;
origin = (0,40);
type = Corner;
},
{
name = _corner.universal;
origin = (0,41);
type = Corner;
}
);
shapes = (
{
closed = 1;
nodes = (
(55,-2,o),
(143,6,o),
(212,6,cs),
(275,6,o),
(350,-2,o),
(459,-2,c),
(459,75,l),
(385,78,o),
(353,90,o),
(340,103,cs),
(320,123,o),
(326,161,o),
(340,218,cs),
(528,972,ls),
(548,1054,o),
(575,1085,o),
(586,1096,cs),
(618,1128,o),
(667,1135,o),
(713,1135,c),
(713,1212,l),
(615,1212,o),
(549,1204,o),
(480,1204,cs),
(415,1204,o),
(332,1212,o),
(235,1212,c),
(235,1134,l),
(308,1134,o),
(352,1119,o),
(362,1094,cs),
(373,1067,o),
(363,1027,o),
(348,968,cs),
(163,227,ls),
(150,173,o),
(135,140,o),
(113,118,cs),
(90,95,o),
(48,77,o),
(-19,75,c),
(-19,-2,l)
);
}
);
};
backgroundImage = {
imagePath = "Mergenthaler docs/Kursiv/uppercase.tif";
pos = (-29387,-423);
scale = (189.9767,189.9767);
};
hints = (
{
name = _corner.universal;
origin = (0,50);
type = Corner;
},
{
name = _corner.universal;
origin = (0,51);
type = Corner;
},
{
name = _corner.universal;
origin = (0,19);
type = Corner;
},
{
name = _corner.universal;
origin = (0,20);
type = Corner;
},
{
name = _corner.universal;
origin = (0,43);
type = Corner;
},
{
name = _corner.universal;
origin = (0,44);
type = Corner;
},
{
name = _corner.universal;
origin = (0,12);
type = Corner;
},
{
name = _corner.universal;
origin = (0,13);
type = Corner;
}
);
layerId = master01;
shapes = (
{
closed = 1;
nodes = (
(711,-30,o),
(821,19,o),
(902,100,cs),
(980,178,o),
(1034,303,o),
(1074,463,cs),
(1181,892,ls),
(1214,1024,o),
(1231,1063,o),
(1246,1083,cs),
(1269,1115,o),
(1293,1131,o),
(1376,1135,c),
(1376,1212,l),
(1290,1212,o),
(1229,1204,o),
(1161,1204,cs),
(1096,1204,o),
(1019,1212,o),
(929,1212,c),
(929,1135,l),
(1036,1135,o),
(1065,1114,o),
(1082,1094,cs),
(1105,1066,o),
(1120,1021,o),
(1088,894,cs),
(979,458,ls),
(946,327,o),
(896,227,o),
(842,173,cs),
(776,107,o),
(692,78,o),
(606,78,cs),
(424,78,o),
(330,186,o),
(392,436,cs),
(526,972,ls),
(546,1054,o),
(569,1083,o),
(584,1096,cs),
(618,1126,o),
(665,1135,o),
(711,1135,c),
(711,1212,l),
(613,1212,o),
(547,1204,o),
(478,1204,cs),
(413,1204,o),
(330,1212,o),
(233,1212,c),
(233,1134,l),
(306,1134,o),
(350,1119,o),
(360,1094,cs),
(369,1072,o),
(366,1049,o),
(346,968,cs),
(224,481,ls),
(141,148,o),
(330,-30,o),
(569,-30,cs)
);
}
);
width = 1300;
}
);
unicode = 85;
},
{
glyphname = V;
kernLeft = W;
kernRight = W;
lastChange = "2021-05-10 20:52:58 +0000";
layers = (
{
hints = (
{
name = _corner.universal;
origin = (0,40);
type = Corner;
},
{
name = _corner.universal;
origin = (0,41);
type = Corner;
},
{
name = _corner.universal;
origin = (0,17);
type = Corner;
},
{
name = _corner.universal;
origin = (0,18);
type = Corner;
},
{
name = _corner.universal;
origin = (0,33);
type = Corner;
},
{
name = _corner.universal;
origin = (0,34);
type = Corner;
},
{
name = _corner.universal;
origin = (0,10);
type = Corner;
},
{
name = _corner.universal;
origin = (0,11);
type = Corner;
},
{
name = _corner.universal;
origin = (0,0);
type = Corner;
},
{
name = _corner.universal;
origin = (0,51);
type = Corner;
}
);
layerId = "CA4EC710-46DE-40B5-AF89-3BCF48EEB297";
shapes = (
{
closed = 1;
nodes = (
(686,-28,l),
(703,42,o),
(730,134,o),
(759,219,cs),
(1012,955,ls),
(1037,1029,o),
(1059,1078,o),
(1086,1105,cs),
(1117,1136,o),
(1156,1149,o),
(1213,1155,c),
(1213,1212,l),
(1145,1212,o),
(1086,1204,o),
(1021,1204,cs),
(942,1204,o),
(842,1212,o),
(769,1212,c),
(769,1155,l),
(857,1150,o),
(918,1144,o),
(940,1106,cs),
(955,1080,o),
(960,1027,o),
(933,949,cs),
(655,142,l),
(692,142,l),
(409,970,ls),
(386,1036,o),
(380,1094,o),
(406,1121,cs),
(434,1150,o),
(496,1154,o),
(566,1154,c),
(566,1212,l),
(460,1212,o),
(347,1204,o),
(257,1204,cs),
(188,1204,o),
(122,1212,o),
(26,1212,c),
(26,1155,l),
(120,1150,o),
(157,1138,o),
(185,1105,cs),
(204,1083,o),
(228,1018,o),
(249,958,cs),
(506,205,ls),
(533,125,o),
(561,33,o),
(575,-28,c)
);
}
);
userData = {
com.typemytype.robofont.mark = (
0.656,
1,
0.6,
1
);
};
width = 1250;
},
{
background = {
shapes = (
{
closed = 1;
nodes = (
(396,1027,o),
(391,1081,o),
(413,1104,cs),
(437,1129,o),
(494,1133,o),
(560,1134,c),
(576,1150,l),
(576,1196,l),
(560,1212,l),
(467,1212,o),
(350,1204,o),
(257,1204,cs),
(186,1204,o),
(118,1212,o),
(32,1212,c),
(16,1196,l),
(16,1150,l),
(32,1134,l),
(119,1130,o),
(152,1118,o),
(177,1089,cs),
(195,1068,o),
(219,1005,o),
(240,945,cs),
(497,212,ls),
(524,135,o),
(550,48,o),
(564,-13,c),
(582,-28,l),
(677,-28,l),
(697,-15,l),
(714,54,o),
(736,138,o),
(768,226,cs),
(1021,942,ls),
(1048,1014,o),
(1067,1062,o),
(1093,1088,cs),
(1121,1116,o),
(1155,1128,o),
(1207,1134,c),
(1223,1150,l),
(1223,1196,l),
(1207,1212,l),
(1150,1212,o),
(1089,1204,o),
(1021,1204,cs),
(939,1204,o),
(833,1212,o),
(775,1212,c),
(759,1196,l),
(759,1150,l),
(775,1134,l),
(851,1131,o),
(911,1124,o),
(931,1091,cs),
(946,1067,o),
(951,1018,o),
(924,942,cs),
(641,142,l),
(706,142,l),
(418,963,ls)
);
}
);
};
hints = (
{
name = _corner.universal;
origin = (0,40);
type = Corner;
},
{
name = _corner.universal;
origin = (0,41);
type = Corner;
},
{
name = _corner.universal;
origin = (0,17);
type = Corner;
},
{
name = _corner.universal;
origin = (0,18);
type = Corner;
},
{
name = _corner.universal;
origin = (0,33);
type = Corner;
},
{
name = _corner.universal;
origin = (0,34);
type = Corner;
},
{
name = _corner.universal;
origin = (0,10);
type = Corner;
},
{
name = _corner.universal;
origin = (0,11);
type = Corner;
},
{
name = _corner.universal;
origin = (0,0);
type = Corner;
},
{
name = _corner.universal;
origin = (0,51);
type = Corner;
}
);
layerId = "25879A17-30FE-49F5-8BDD-4D78448C8558";
shapes = (
{
closed = 1;
nodes = (
(694,-28,l),
(711,43,o),
(737,138,o),
(768,226,cs),
(1021,942,ls),
(1047,1015,o),
(1067,1062,o),
(1093,1088,cs),
(1124,1119,o),
(1162,1130,o),
(1223,1136,c),
(1223,1212,l),
(1150,1212,o),
(1089,1204,o),
(1021,1204,cs),
(939,1204,o),
(833,1212,o),
(759,1212,c),
(759,1135,l),
(851,1131,o),
(911,1124,o),
(931,1091,cs),
(945,1067,o),
(951,1018,o),
(924,942,cs),
(641,142,l),
(706,142,l),
(418,963,ls),
(396,1027,o),
(391,1081,o),
(413,1104,cs),
(439,1131,o),
(503,1134,o),
(576,1134,c),
(576,1212,l),
(467,1212,o),
(350,1204,o),
(257,1204,cs),
(186,1204,o),
(118,1212,o),
(16,1212,c),
(16,1135,l),
(115,1131,o),
(151,1120,o),
(177,1089,cs),
(195,1068,o),
(219,1005,o),
(240,945,cs),
(497,212,ls),
(526,128,o),
(554,33,o),
(567,-28,c)
);
}
);
width = 1250;
},
{
backgroundImage = {
imagePath = "Mergenthaler docs/Kursiv/uppercase.tif";
pos = (-30827,-417);
scale = (189.9767,189.9767);
};
hints = (
{
name = _corner.universal;
origin = (0,40);
type = Corner;
},
{
name = _corner.universal;
origin = (0,41);
type = Corner;
},
{
name = _corner.universal;
origin = (0,17);
type = Corner;
},
{
name = _corner.universal;
origin = (0,18);
type = Corner;
},
{
name = _corner.universal;
origin = (0,33);
type = Corner;
},
{
name = _corner.universal;
origin = (0,34);
type = Corner;
},
{
name = _corner.universal;
origin = (0,10);
type = Corner;
},
{
name = _corner.universal;
origin = (0,11);
type = Corner;
},
{
name = _corner.universal;
origin = (0,0);
type = Corner;
},
{
name = _corner.universal;
origin = (0,51);
type = Corner;
}
);
layerId = master01;
shapes = (
{
closed = 1;
nodes = (
(686,-28,l),
(718,43,o),
(761,136,o),
(810,226,cs),
(1197,942,ls),
(1237,1016,o),
(1265,1067,o),
(1290,1094,cs),
(1316,1122,o),
(1341,1129,o),
(1372,1136,c),
(1372,1212,l),
(1309,1212,o),
(1253,1204,o),
(1189,1204,cs),
(1117,1204,o),
(1065,1212,o),
(998,1212,c),
(998,1135,l),
(1075,1131,o),
(1105,1115,o),
(1117,1083,cs),
(1125,1059,o),
(1130,1018,o),
(1090,942,cs),
(663,142,l),
(725,142,l),
(602,963,ls),
(593,1021,o),
(602,1064,o),
(628,1092,cs),
(657,1123,o),
(711,1134,o),
(774,1134,c),
(774,1212,l),
(675,1212,o),
(583,1204,o),
(499,1204,cs),
(422,1204,o),
(335,1212,o),
(224,1212,c),
(224,1135,l),
(324,1130,o),
(354,1109,o),
(379,1079,cs),
(400,1053,o),
(415,1009,o),
(425,945,cs),
(536,245,ls),
(552,141,o),
(562,39,o),
(559,-28,c)
);
}
);
width = 1250;
}
);
unicode = 86;
},
{
glyphname = W;
kernLeft = W;
kernRight = W;
lastChange = "2021-05-10 21:10:47 +0000";
layers = (
{
anchors = (
{
name = bottom;
pos = (900,0);
},
{
name = top;
pos = (900,1210);
}
);
hints = (
{
name = _corner.universal;
origin = (1,21);
type = Corner;
},
{
name = _corner.universal;
origin = (1,22);
type = Corner;
},
{
name = _corner.universal;
origin = (0,40);
type = Corner;
},
{
name = _corner.universal;
origin = (0,41);
type = Corner;
},
{
name = _corner.universal;
origin = (1,14);
type = Corner;
},
{
name = _corner.universal;
origin = (1,15);
type = Corner;
},
{
name = _corner.universal;
origin = (0,17);
type = Corner;
},
{
name = _corner.universal;
origin = (0,18);
type = Corner;
},
{
name = _corner.universal;
origin = (0,33);
type = Corner;
},
{
name = _corner.universal;
origin = (0,34);
type = Corner;
},
{
name = _corner.universal;
origin = (0,10);
type = Corner;
},
{
name = _corner.universal;
origin = (0,11);
type = Corner;
},
{
name = _corner.universal;
origin = (0,0);
type = Corner;
},
{
name = _corner.universal;
origin = (0,51);
type = Corner;
},
{
name = _corner.universal;
origin = (1,0);
type = Corner;
},
{
name = _corner.universal;
origin = (1,32);
type = Corner;
}
);
layerId = "CA4EC710-46DE-40B5-AF89-3BCF48EEB297";
shapes = (
{
closed = 1;
nodes = (
(1231,-28,l),
(1245,58,o),
(1271,151,o),
(1294,225,cs),
(1520,955,ls),
(1543,1029,o),
(1568,1078,o),
(1595,1105,cs),
(1626,1136,o),
(1665,1149,o),
(1722,1155,c),
(1722,1212,l),
(1654,1212,o),
(1595,1204,o),
(1517,1204,cs),
(1434,1204,o),
(1352,1212,o),
(1271,1212,c),
(1271,1155,l),
(1367,1150,o),
(1428,1144,o),
(1449,1106,cs),
(1464,1079,o),
(1467,1028,o),
(1443,949,cs),
(1195,142,l),
(1255,142,l),
(1023,952,ls),
(999,1036,o),
(988,1095,o),
(1009,1121,cs),
(1032,1149,o),
(1086,1153,o),
(1168,1154,c),
(1168,1212,l),
(1068,1212,o),
(964,1204,o),
(888,1204,cs),
(798,1204,o),
(718,1212,o),
(641,1212,c),
(641,1154,l),
(721,1150,o),
(754,1137,o),
(782,1109,cs),
(804,1087,o),
(828,1046,o),
(853,958,cs),
(1056,245,ls),
(1079,163,o),
(1102,61,o),
(1114,-28,c)
);
},
{
closed = 1;
nodes = (
(631,-28,l),
(645,58,o),
(662,134,o),
(690,225,cs),
(952,1072,l),
(878,1072,l),
(591,142,l),
(642,142,l),
(410,952,ls),
(386,1034,o),
(376,1094,o),
(397,1119,cs),
(422,1148,o),
(475,1153,o),
(538,1154,c),
(538,1212,l),
(439,1212,o),
(344,1204,o),
(255,1204,cs),
(171,1204,o),
(94,1212,o),
(18,1212,c),
(18,1155,l),
(93,1152,o),
(139,1139,o),
(169,1109,cs),
(191,1087,o),
(215,1046,o),
(240,958,cs),
(452,218,ls),
(474,141,o),
(498,53,o),
(514,-28,c)
);
}
);
userData = {
com.typemytype.robofont.mark = (
0.656,
1,
0.6,
1
);
};
width = 1750;
},
{
anchors = (
{
name = bottom;
pos = (900,0);
},
{
name = top;
pos = (900,1210);
}
);
background = {
shapes = (
{
closed = 1;
nodes = (
(1256,69,o),
(1281,160,o),
(1304,232,cs),
(1530,942,ls),
(1553,1015,o),
(1576,1062,o),
(1602,1088,cs),
(1630,1116,o),
(1664,1128,o),
(1716,1134,c),
(1732,1150,l),
(1732,1196,l),
(1716,1212,l),
(1659,1212,o),
(1598,1204,o),
(1517,1204,cs),
(1431,1204,o),
(1346,1212,o),
(1277,1212,c),
(1261,1196,l),
(1261,1150,l),
(1277,1134,l),
(1362,1131,o),
(1420,1124,o),
(1440,1091,cs),
(1455,1067,o),
(1457,1019,o),
(1433,942,cs),
(1181,142,l),
(1268,142,l),
(1033,945,ls),
(1009,1028,o),
(999,1083,o),
(1017,1104,cs),
(1039,1129,o),
(1091,1133,o),
(1162,1134,c),
(1178,1150,l),
(1178,1196,l),
(1162,1212,l),
(1075,1212,o),
(966,1204,o),
(888,1204,cs),
(795,1204,o),
(711,1212,o),
(647,1212,c),
(631,1196,l),
(631,1150,l),
(647,1134,l),
(716,1131,o),
(748,1119,o),
(775,1092,cs),
(796,1071,o),
(817,1032,o),
(843,945,cs),
(1046,252,ls),
(1069,173,o),
(1091,74,o),
(1103,-13,c),
(1121,-28,l),
(1221,-28,l),
(1241,-15,l)
);
},
{
closed = 1;
nodes = (
(871,1072,l),
(577,142,l),
(655,142,l),
(420,945,ls),
(397,1025,o),
(387,1081,o),
(405,1102,cs),
(427,1127,o),
(473,1133,o),
(532,1134,c),
(548,1150,l),
(548,1196,l),
(532,1212,l),
(445,1212,o),
(347,1204,o),
(255,1204,cs),
(168,1204,o),
(88,1212,o),
(24,1212,c),
(8,1196,l),
(8,1150,l),
(24,1134,l),
(93,1131,o),
(135,1119,o),
(162,1092,cs),
(183,1071,o),
(204,1032,o),
(230,945,cs),
(442,225,ls),
(464,151,o),
(487,66,o),
(503,-13,c),
(521,-28,l),
(621,-28,l),
(641,-15,l),
(656,69,o),
(672,144,o),
(700,232,cs),
(966,1072,l)
);
}
);
};
hints = (
{
name = _corner.universal;
origin = (1,21);
type = Corner;
},
{
name = _corner.universal;
origin = (1,22);
type = Corner;
},
{
name = _corner.universal;
origin = (0,40);
type = Corner;
},
{
name = _corner.universal;
origin = (0,41);
type = Corner;
},
{
name = _corner.universal;
origin = (1,14);
type = Corner;
},
{
name = _corner.universal;
origin = (1,15);
type = Corner;
},
{
name = _corner.universal;
origin = (0,17);
type = Corner;
},
{
name = _corner.universal;
origin = (0,18);
type = Corner;
},
{
name = _corner.universal;
origin = (0,33);
type = Corner;
},
{
name = _corner.universal;
origin = (0,34);
type = Corner;
},
{
name = _corner.universal;
origin = (0,10);
type = Corner;
},
{
name = _corner.universal;
origin = (0,11);
type = Corner;
},
{
name = _corner.universal;
origin = (0,0);
type = Corner;
},
{
name = _corner.universal;
origin = (0,51);
type = Corner;
},
{
name = _corner.universal;
origin = (1,0);
type = Corner;
},
{
name = _corner.universal;
origin = (1,32);
type = Corner;
}
);
layerId = "25879A17-30FE-49F5-8BDD-4D78448C8558";
shapes = (
{
closed = 1;
nodes = (
(1239,-28,l),
(1253,60,o),
(1280,156,o),
(1304,232,cs),
(1530,942,ls),
(1553,1015,o),
(1576,1062,o),
(1602,1088,cs),
(1633,1119,o),
(1671,1130,o),
(1732,1136,c),
(1732,1212,l),
(1659,1212,o),
(1598,1204,o),
(1517,1204,cs),
(1431,1204,o),
(1346,1212,o),
(1261,1212,c),
(1261,1135,l),
(1362,1131,o),
(1420,1124,o),
(1440,1091,cs),
(1454,1067,o),
(1457,1019,o),
(1433,942,cs),
(1181,142,l),
(1268,142,l),
(1033,945,ls),
(1009,1028,o),
(999,1083,o),
(1017,1104,cs),
(1039,1129,o),
(1091,1133,o),
(1178,1134,c),
(1178,1212,l),
(1075,1212,o),
(966,1204,o),
(888,1204,cs),
(795,1204,o),
(711,1212,o),
(631,1212,c),
(631,1135,l),
(716,1131,o),
(748,1119,o),
(775,1092,cs),
(796,1071,o),
(817,1032,o),
(843,945,cs),
(1046,252,ls),
(1071,168,o),
(1094,62,o),
(1105,-28,c)
);
},
{
closed = 1;
nodes = (
(639,-28,l),
(654,61,o),
(671,139,o),
(700,232,cs),
(966,1072,l),
(871,1072,l),
(577,142,l),
(655,142,l),
(420,945,ls),
(397,1025,o),
(387,1081,o),
(405,1102,cs),
(429,1129,o),
(481,1134,o),
(548,1134,c),
(548,1212,l),
(445,1212,o),
(347,1204,o),
(255,1204,cs),
(168,1204,o),
(88,1212,o),
(8,1212,c),
(8,1135,l),
(87,1133,o),
(133,1121,o),
(162,1092,cs),
(183,1071,o),
(204,1032,o),
(230,945,cs),
(442,225,ls),
(465,146,o),
(490,55,o),
(506,-28,c)
);
}
);
width = 1750;
},
{
anchors = (
{
name = bottom;
pos = (775,0);
},
{
name = top;
pos = (1120,1210);
}
);
backgroundImage = {
imagePath = "Mergenthaler docs/Kursiv/uc2.tiff";
locked = 1;
pos = (85,-427);
scale = (23.7568,23.7568);
};
hints = (
{
name = _corner.universal;
origin = (1,21);
type = Corner;
},
{
name = _corner.universal;
origin = (1,22);
type = Corner;
},
{
name = _corner.universal;
origin = (0,40);
type = Corner;
},
{
name = _corner.universal;
origin = (0,41);
type = Corner;
},
{
name = _corner.universal;
origin = (1,14);
type = Corner;
},
{
name = _corner.universal;
origin = (1,15);
type = Corner;
},
{
name = _corner.universal;
origin = (0,17);
type = Corner;
},
{
name = _corner.universal;
origin = (0,18);
type = Corner;
},
{
name = _corner.universal;
origin = (0,33);
type = Corner;
},
{
name = _corner.universal;
origin = (0,34);
type = Corner;
},
{
name = _corner.universal;
origin = (0,10);
type = Corner;
},
{
name = _corner.universal;
origin = (0,11);
type = Corner;
},
{
name = _corner.universal;
origin = (0,0);
type = Corner;
},
{
name = _corner.universal;
origin = (0,51);
type = Corner;
},
{
name = _corner.universal;
origin = (1,0);
type = Corner;
},
{
name = _corner.universal;
origin = (1,32);
type = Corner;
}
);
layerId = master01;
shapes = (
{
closed = 1;
nodes = (
(1218,-28,l),
(1242,62,o),
(1278,145,o),
(1323,232,cs),
(1688,942,ls),
(1730,1023,o),
(1765,1085,o),
(1788,1106,cs),
(1813,1129,o),
(1841,1132,o),
(1882,1136,c),
(1882,1212,l),
(1825,1212,o),
(1776,1204,o),
(1713,1204,cs),
(1628,1204,o),
(1547,1212,o),
(1463,1212,c),
(1463,1135,l),
(1544,1130,o),
(1581,1118,o),
(1599,1081,cs),
(1613,1052,o),
(1612,1006,o),
(1580,942,cs),
(1177,142,l),
(1251,142,l),
(1142,945,ls),
(1131,1028,o),
(1135,1082,o),
(1157,1104,cs),
(1181,1128,o),
(1228,1133,o),
(1296,1134,c),
(1296,1212,l),
(1210,1212,o),
(1117,1204,o),
(1035,1204,cs),
(963,1204,o),
(884,1212,o),
(807,1212,c),
(807,1135,l),
(875,1133,o),
(896,1122,o),
(915,1103,cs),
(940,1078,o),
(949,1032,o),
(962,945,cs),
(1065,252,ls),
(1078,166,o),
(1084,59,o),
(1080,-28,c)
);
},
{
closed = 1;
nodes = (
(683,-28,l),
(709,61,o),
(731,126,o),
(781,232,cs),
(1104,914,l),
(1005,914,l),
(638,142,l),
(709,142,l),
(603,945,ls),
(592,1025,o),
(593,1066,o),
(608,1089,cs),
(629,1122,o),
(687,1134,o),
(754,1134,c),
(754,1212,l),
(651,1212,o),
(568,1204,o),
(476,1204,cs),
(389,1204,o),
(294,1212,o),
(214,1212,c),
(214,1135,l),
(303,1133,o),
(352,1120,o),
(377,1088,cs),
(395,1065,o),
(411,1031,o),
(423,945,cs),
(527,225,ls),
(539,144,o),
(549,55,o),
(551,-28,c)
);
}
);
width = 1750;
}
);
unicode = 87;
},
{
glyphname = X;
kernLeft = X;
kernRight = K;
lastChange = "2021-05-10 20:53:12 +0000";
layers = (
{
hints = (
{
name = _corner.universal;
origin = (0,23);
type = Corner;
},
{
name = _corner.universal;
origin = (0,24);
type = Corner;
},
{
name = _corner.universal;
origin = (0,16);
type = Corner;
},
{
name = _corner.universal;
origin = (0,17);
type = Corner;
},
{
name = _corner.universal;
origin = (1,28);
type = Corner;
},
{
name = _corner.universal;
origin = (1,29);
type = Corner;
},
{
name = _corner.universal;
origin = (1,21);
type = Corner;
},
{
name = _corner.universal;
origin = (1,22);
type = Corner;
},
{
name = _corner.universal;
origin = (0,5);
type = Corner;
},
{
name = _corner.universal;
origin = (0,6);
type = Corner;
},
{
name = _corner.universal;
origin = (0,37);
type = Corner;
},
{
name = _corner.universal;
origin = (0,38);
type = Corner;
},
{
name = _corner.universal;
origin = (1,5);
type = Corner;
},
{
name = _corner.universal;
origin = (1,6);
type = Corner;
},
{
name = _corner.universal;
origin = (1,44);
type = Corner;
},
{
name = _corner.universal;
origin = (1,45);
type = Corner;
}
);
layerId = "CA4EC710-46DE-40B5-AF89-3BCF48EEB297";
shapes = (
{
closed = 1;
nodes = (
(798,-2,o),
(915,6,o),
(981,6,cs),
(1066,6,o),
(1165,-2,o),
(1266,-2,c),
(1266,54,l),
(1135,65,o),
(1063,117,o),
(974,256,cs),
(522,958,ls),
(478,1027,o),
(447,1081,o),
(460,1113,cs),
(474,1147,o),
(533,1153,o),
(611,1154,c),
(611,1212,l),
(497,1212,o),
(393,1204,o),
(298,1204,cs),
(215,1204,o),
(140,1212,o),
(48,1212,c),
(48,1154,l),
(136,1149,o),
(182,1133,o),
(212,1109,cs),
(250,1079,o),
(288,1030,o),
(328,968,cs),
(817,209,ls),
(852,155,o),
(861,110,o),
(840,88,cs),
(817,63,o),
(764,60,o),
(691,56,c),
(691,-2,l)
);
},
{
closed = 1;
nodes = (
(102,-2,o),
(175,6,o),
(241,6,cs),
(314,6,o),
(417,-2,o),
(528,-2,c),
(528,56,l),
(431,61,o),
(381,65,o),
(365,99,cs),
(352,126,o),
(371,177,o),
(413,239,cs),
(628,560,l),
(690,627,l),
(937,981,ls),
(985,1050,o),
(1029,1083,o),
(1057,1103,cs),
(1093,1129,o),
(1151,1147,o),
(1224,1154,c),
(1224,1212,l),
(1142,1212,o),
(1060,1204,o),
(983,1204,cs),
(903,1204,o),
(818,1212,o),
(736,1212,c),
(736,1155,l),
(836,1149,o),
(885,1139,o),
(895,1107,cs),
(906,1070,o),
(874,1017,o),
(841,969,cs),
(638,675,l),
(588,625,l),
(318,228,ls),
(261,144,o),
(205,112,o),
(164,93,cs),
(123,74,o),
(81,59,o),
(13,55,c),
(13,-2,l)
);
}
);
userData = {
com.typemytype.robofont.guides = (
{
angle = 90;
isGlobal = 0;
magnetic = 5;
x = 606;
y = 0;
},
{
angle = 90;
isGlobal = 0;
magnetic = 5;
x = 669;
y = 0;
}
);
com.typemytype.robofont.mark = (
0.656,
1,
0.6,
1
);
};
width = 1280;
},
{
background = {
shapes = (
{
closed = 1;
nodes = (
(253,162,o),
(200,131,o),
(160,112,cs),
(120,94,o),
(81,80,o),
(19,76,c),
(3,60,l),
(3,14,l),
(19,-2,l),
(97,-2,o),
(173,6,o),
(241,6,cs),
(316,6,o),
(423,-2,o),
(522,-2,c),
(538,14,l),
(538,60,l),
(522,76,l),
(430,81,o),
(387,86,o),
(374,113,cs),
(363,136,o),
(380,184,o),
(421,243,cs),
(636,554,l),
(698,621,l),
(945,965,ls),
(993,1032,o),
(1035,1065,o),
(1063,1085,cs),
(1099,1111,o),
(1158,1129,o),
(1218,1134,c),
(1234,1150,l),
(1234,1196,l),
(1218,1212,l),
(1148,1212,o),
(1063,1204,o),
(983,1204,cs),
(900,1204,o),
(811,1212,o),
(742,1212,c),
(726,1196,l),
(726,1150,l),
(742,1134,l),
(830,1130,o),
(877,1120,o),
(885,1094,cs),
(895,1062,o),
(866,1011,o),
(833,965,cs),
(630,681,l),
(580,631,l),
(310,244,ls)
);
},
{
closed = 1;
nodes = (
(843,162,o),
(847,124,o),
(832,105,cs),
(812,82,o),
(759,80,o),
(697,76,c),
(681,60,l),
(681,14,l),
(697,-2,l),
(791,-2,o),
(913,6,o),
(981,6,cs),
(1068,6,o),
(1171,-2,o),
(1260,-2,c),
(1276,14,l),
(1276,58,l),
(1260,74,l),
(1136,86,o),
(1070,139,o),
(982,272,cs),
(530,954,ls),
(486,1020,o),
(458,1072,o),
(469,1099,cs),
(481,1128,o),
(539,1133,o),
(605,1134,c),
(621,1150,l),
(621,1196,l),
(605,1212,l),
(503,1212,o),
(395,1204,o),
(298,1204,cs),
(213,1204,o),
(135,1212,o),
(54,1212,c),
(38,1196,l),
(38,1150,l),
(54,1134,l),
(131,1130,o),
(176,1115,o),
(206,1091,cs),
(243,1062,o),
(280,1014,o),
(320,953,cs),
(809,213,ls)
);
}
);
};
hints = (
{
name = _corner.universal;
origin = (0,23);
type = Corner;
},
{
name = _corner.universal;
origin = (0,24);
type = Corner;
},
{
name = _corner.universal;
origin = (0,16);
type = Corner;
},
{
name = _corner.universal;
origin = (0,17);
type = Corner;
},
{
name = _corner.universal;
origin = (1,28);
type = Corner;
},
{
name = _corner.universal;
origin = (1,29);
type = Corner;
},
{
name = _corner.universal;
origin = (1,21);
type = Corner;
},
{
name = _corner.universal;
origin = (1,22);
type = Corner;
},
{
name = _corner.universal;
origin = (0,5);
type = Corner;
},
{
name = _corner.universal;
origin = (0,6);
type = Corner;
},
{
name = _corner.universal;
origin = (0,37);
type = Corner;
},
{
name = _corner.universal;
origin = (0,38);
type = Corner;
},
{
name = _corner.universal;
origin = (1,5);
type = Corner;
},
{
name = _corner.universal;
origin = (1,6);
type = Corner;
},
{
name = _corner.universal;
origin = (1,44);
type = Corner;
},
{
name = _corner.universal;
origin = (1,45);
type = Corner;
}
);
layerId = "25879A17-30FE-49F5-8BDD-4D78448C8558";
shapes = (
{
closed = 1;
nodes = (
(791,-2,o),
(913,6,o),
(981,6,cs),
(1068,6,o),
(1171,-2,o),
(1276,-2,c),
(1276,73,l),
(1142,82,o),
(1074,133,o),
(982,272,cs),
(530,954,ls),
(486,1020,o),
(458,1072,o),
(469,1099,cs),
(481,1128,o),
(539,1133,o),
(621,1134,c),
(621,1212,l),
(503,1212,o),
(395,1204,o),
(298,1204,cs),
(213,1204,o),
(135,1212,o),
(38,1212,c),
(38,1135,l),
(131,1130,o),
(176,1115,o),
(206,1091,cs),
(243,1062,o),
(280,1014,o),
(320,953,cs),
(809,213,ls),
(843,162,o),
(848,123,o),
(832,105,cs),
(812,82,o),
(759,80,o),
(681,75,c),
(681,-2,l)
);
},
{
closed = 1;
nodes = (
(97,-2,o),
(173,6,o),
(241,6,cs),
(316,6,o),
(423,-2,o),
(538,-2,c),
(538,75,l),
(435,81,o),
(388,84,o),
(374,113,cs),
(363,136,o),
(380,184,o),
(421,243,cs),
(636,554,l),
(698,621,l),
(945,965,ls),
(993,1032,o),
(1035,1065,o),
(1063,1085,cs),
(1099,1111,o),
(1158,1129,o),
(1234,1135,c),
(1234,1212,l),
(1148,1212,o),
(1063,1204,o),
(983,1204,cs),
(900,1204,o),
(811,1212,o),
(726,1212,c),
(726,1135,l),
(830,1130,o),
(877,1120,o),
(885,1094,cs),
(895,1062,o),
(866,1011,o),
(833,965,cs),
(630,681,l),
(580,631,l),
(310,244,ls),
(253,162,o),
(200,131,o),
(160,112,cs),
(117,92,o),
(75,78,o),
(3,75,c),
(3,-2,l)
);
}
);
width = 1280;
},
{
backgroundImage = {
imagePath = "Mergenthaler docs/Kursiv/uc2.tiff";
locked = 1;
pos = (-1845,-427);
scale = (23.7568,23.7568);
};
hints = (
{
name = _corner.universal;
origin = (0,23);
type = Corner;
},
{
name = _corner.universal;
origin = (0,24);
type = Corner;
},
{
name = _corner.universal;
origin = (0,16);
type = Corner;
},
{
name = _corner.universal;
origin = (0,17);
type = Corner;
},
{
name = _corner.universal;
origin = (1,28);
type = Corner;
},
{
name = _corner.universal;
origin = (1,29);
type = Corner;
},
{
name = _corner.universal;
origin = (1,21);
type = Corner;
},
{
name = _corner.universal;
origin = (1,22);
type = Corner;
},
{
name = _corner.universal;
origin = (0,5);
type = Corner;
},
{
name = _corner.universal;
origin = (0,6);
type = Corner;
},
{
name = _corner.universal;
origin = (0,37);
type = Corner;
},
{
name = _corner.universal;
origin = (0,38);
type = Corner;
},
{
name = _corner.universal;
origin = (1,5);
type = Corner;
},
{
name = _corner.universal;
origin = (1,6);
type = Corner;
},
{
name = _corner.universal;
origin = (1,44);
type = Corner;
},
{
name = _corner.universal;
origin = (1,45);
type = Corner;
}
);
layerId = master01;
shapes = (
{
closed = 1;
nodes = (
(728,-2,o),
(841,6,o),
(904,6,cs),
(982,6,o),
(1073,-2,o),
(1166,-2,c),
(1166,73,l),
(1040,82,o),
(995,123,o),
(931,272,cs),
(639,954,ls),
(611,1020,o),
(598,1072,o),
(616,1099,cs),
(634,1126,o),
(678,1132,o),
(747,1134,c),
(747,1212,l),
(647,1212,o),
(554,1204,o),
(472,1204,cs),
(384,1204,o),
(305,1212,o),
(204,1212,c),
(204,1135,l),
(302,1130,o),
(344,1114,o),
(371,1091,cs),
(402,1065,o),
(425,1014,o),
(451,953,cs),
(767,213,ls),
(789,162,o),
(784,123,o),
(763,105,cs),
(739,84,o),
(703,77,o),
(625,75,c),
(625,-2,l)
);
},
{
closed = 1;
nodes = (
(71,-2,o),
(144,6,o),
(209,6,cs),
(276,6,o),
(370,-2,o),
(472,-2,c),
(472,75,l),
(350,79,o),
(320,98,o),
(320,138,cs),
(320,161,o),
(327,181,o),
(380,243,cs),
(663,572,l),
(740,623,l),
(1044,965,ls),
(1106,1034,o),
(1136,1062,o),
(1166,1085,cs),
(1201,1112,o),
(1242,1129,o),
(1299,1135,c),
(1299,1212,l),
(1230,1212,o),
(1160,1204,o),
(1085,1204,cs),
(1013,1204,o),
(925,1212,o),
(840,1212,c),
(840,1135,l),
(954,1132,o),
(990,1120,o),
(990,1083,cs),
(990,1053,o),
(964,1013,o),
(922,965,cs),
(695,706,l),
(617,654,l),
(257,244,ls),
(197,176,o),
(147,138,o),
(104,115,cs),
(66,95,o),
(38,82,o),
(-19,75,c),
(-19,-2,l)
);
}
);
userData = {
com.typemytype.robofont.guides = (
{
angle = 90;
isGlobal = 0;
magnetic = 5;
x = 606;
y = 0;
},
{
angle = 90;
isGlobal = 0;
magnetic = 5;
x = 669;
y = 0;
}
);
};
width = 1280;
}
);
unicode = 88;
},
{
glyphname = Y;
kernLeft = Y;
kernRight = Y;
lastChange = "2021-05-10 21:10:52 +0000";
layers = (
{
anchors = (
{
name = top;
pos = (625,1210);
}
);
hints = (
{
name = _corner.universal;
origin = (0,50);
type = Corner;
},
{
name = _corner.universal;
origin = (0,51);
type = Corner;
},
{
name = _corner.universal;
origin = (0,27);
type = Corner;
},
{
name = _corner.universal;
origin = (0,28);
type = Corner;
},
{
name = _corner.universal;
origin = (0,43);
type = Corner;
},
{
name = _corner.universal;
origin = (0,44);
type = Corner;
},
{
name = _corner.universal;
origin = (0,20);
type = Corner;
},
{
name = _corner.universal;
origin = (0,21);
type = Corner;
},
{
name = _corner.universal;
origin = (0,65);
type = Corner;
},
{
name = _corner.universal;
origin = (0,66);
type = Corner;
},
{
name = _corner.universal;
origin = (0,5);
type = Corner;
},
{
name = _corner.universal;
origin = (0,6);
type = Corner;
}
);
layerId = "CA4EC710-46DE-40B5-AF89-3BCF48EEB297";
shapes = (
{
closed = 1;
nodes = (
(390,-2,o),
(492,6,o),
(573,6,cs),
(651,6,o),
(738,-2,o),
(867,-2,c),
(867,56,l),
(749,57,o),
(691,60,o),
(672,82,cs),
(653,105,o),
(649,150,o),
(649,208,cs),
(649,396,l),
(911,943,ls),
(946,1015,o),
(987,1077,o),
(1011,1101,cs),
(1042,1133,o),
(1081,1147,o),
(1138,1154,c),
(1138,1212,l),
(1069,1212,o),
(1006,1204,o),
(946,1204,cs),
(867,1204,o),
(792,1212,o),
(717,1212,c),
(717,1155,l),
(796,1151,o),
(841,1146,o),
(858,1108,cs),
(873,1075,o),
(869,1023,o),
(818,915,cs),
(608,471,l),
(635,471,l),
(409,953,ls),
(375,1026,o),
(364,1082,o),
(380,1111,cs),
(400,1146,o),
(446,1153,o),
(523,1154,c),
(523,1212,l),
(417,1212,o),
(299,1204,o),
(209,1204,cs),
(140,1204,o),
(74,1212,o),
(-22,1212,c),
(-22,1155,l),
(61,1151,o),
(104,1135,o),
(137,1109,cs),
(176,1079,o),
(207,1027,o),
(239,959,cs),
(495,410,l),
(495,217,ls),
(495,125,o),
(485,102,o),
(455,82,cs),
(429,65,o),
(371,59,o),
(275,55,c),
(275,-2,l)
);
}
);
userData = {
com.typemytype.robofont.guides = (
{
angle = 90;
isGlobal = 0;
magnetic = 5;
x = 665;
y = 0;
}
);
com.typemytype.robofont.mark = (
0.656,
1,
0.6,
1
);
};
width = 1150;
},
{
anchors = (
{
name = top;
pos = (625,1210);
}
);
background = {
shapes = (
{
closed = 1;
nodes = (
(920,929,ls),
(954,1000,o),
(995,1061,o),
(1018,1084,cs),
(1049,1116,o),
(1087,1129,o),
(1132,1134,c),
(1148,1150,l),
(1148,1196,l),
(1132,1212,l),
(1075,1212,o),
(1008,1204,o),
(946,1204,cs),
(864,1204,o),
(786,1212,o),
(723,1212,c),
(707,1196,l),
(707,1150,l),
(723,1134,l),
(791,1131,o),
(834,1126,o),
(849,1094,cs),
(863,1064,o),
(860,1014,o),
(809,909,cs),
(592,461,l),
(651,461,l),
(418,947,ls),
(384,1018,o),
(375,1071,o),
(389,1096,cs),
(406,1126,o),
(451,1133,o),
(517,1134,c),
(533,1150,l),
(533,1196,l),
(517,1212,l),
(424,1212,o),
(302,1204,o),
(209,1204,cs),
(138,1204,o),
(70,1212,o),
(-16,1212,c),
(-32,1196,l),
(-32,1150,l),
(-16,1134,l),
(61,1130,o),
(101,1115,o),
(131,1091,cs),
(168,1062,o),
(198,1012,o),
(230,945,cs),
(485,408,l),
(485,227,ls),
(485,138,o),
(476,118,o),
(449,100,cs),
(425,84,o),
(366,79,o),
(281,76,c),
(265,60,l),
(265,14,l),
(281,-2,l),
(385,-2,o),
(494,6,o),
(573,6,cs),
(650,6,o),
(742,-2,o),
(861,-2,c),
(877,14,l),
(877,60,l),
(861,76,l),
(753,77,o),
(696,80,o),
(679,99,cs),
(663,118,o),
(659,161,o),
(659,218,cs),
(659,394,l)
);
}
);
};
hints = (
{
name = _corner.universal;
origin = (0,50);
type = Corner;
},
{
name = _corner.universal;
origin = (0,51);
type = Corner;
},
{
name = _corner.universal;
origin = (0,27);
type = Corner;
},
{
name = _corner.universal;
origin = (0,28);
type = Corner;
},
{
name = _corner.universal;
origin = (0,43);
type = Corner;
},
{
name = _corner.universal;
origin = (0,44);
type = Corner;
},
{
name = _corner.universal;
origin = (0,20);
type = Corner;
},
{
name = _corner.universal;
origin = (0,21);
type = Corner;
},
{
name = _corner.universal;
origin = (0,65);
type = Corner;
},
{
name = _corner.universal;
origin = (0,66);
type = Corner;
},
{
name = _corner.universal;
origin = (0,5);
type = Corner;
},
{
name = _corner.universal;
origin = (0,6);
type = Corner;
}
);
layerId = "25879A17-30FE-49F5-8BDD-4D78448C8558";
shapes = (
{
closed = 1;
nodes = (
(385,-2,o),
(490,6,o),
(573,6,cs),
(653,6,o),
(742,-2,o),
(877,-2,c),
(877,76,l),
(753,77,o),
(696,80,o),
(679,99,cs),
(662,118,o),
(659,161,o),
(659,218,cs),
(659,394,l),
(920,929,ls),
(955,1000,o),
(995,1061,o),
(1018,1084,cs),
(1049,1116,o),
(1087,1129,o),
(1148,1135,c),
(1148,1212,l),
(1075,1212,o),
(1008,1204,o),
(946,1204,cs),
(864,1204,o),
(786,1212,o),
(707,1212,c),
(707,1135,l),
(791,1131,o),
(833,1128,o),
(849,1094,cs),
(863,1064,o),
(860,1014,o),
(809,909,cs),
(592,461,l),
(651,461,l),
(418,947,ls),
(384,1018,o),
(375,1071,o),
(389,1096,cs),
(407,1128,o),
(451,1133,o),
(533,1134,c),
(533,1212,l),
(424,1212,o),
(302,1204,o),
(209,1204,cs),
(138,1204,o),
(70,1212,o),
(-32,1212,c),
(-32,1135,l),
(56,1132,o),
(98,1117,o),
(131,1091,cs),
(168,1062,o),
(198,1012,o),
(230,945,cs),
(485,408,l),
(485,227,ls),
(485,138,o),
(476,118,o),
(449,100,cs),
(425,84,o),
(366,79,o),
(265,75,c),
(265,-2,l)
);
}
);
width = 1150;
},
{
anchors = (
{
name = top;
pos = (850,1210);
}
);
background = {
hints = (
{
name = _corner.universal;
origin = (0,5);
type = Corner;
},
{
name = _corner.universal;
origin = (0,6);
type = Corner;
},
{
name = _corner.universal;
origin = (0,19);
type = Corner;
},
{
name = _corner.universal;
origin = (0,20);
type = Corner;
},
{
name = _corner.universal;
origin = (0,26);
type = Corner;
},
{
name = _corner.universal;
origin = (0,27);
type = Corner;
},
{
name = _corner.universal;
origin = (0,40);
type = Corner;
},
{
name = _corner.universal;
origin = (0,41);
type = Corner;
}
);
shapes = (
{
closed = 1;
nodes = (
(417,-2,o),
(505,6,o),
(574,6,cs),
(637,6,o),
(712,-2,o),
(821,-2,c),
(821,75,l),
(747,78,o),
(715,90,o),
(702,103,cs),
(682,123,o),
(688,161,o),
(702,218,cs),
(890,972,ls),
(910,1054,o),
(937,1085,o),
(948,1096,cs),
(980,1128,o),
(1029,1135,o),
(1075,1135,c),
(1075,1212,l),
(977,1212,o),
(911,1204,o),
(842,1204,cs),
(777,1204,o),
(694,1212,o),
(597,1212,c),
(597,1134,l),
(670,1134,o),
(714,1119,o),
(724,1094,cs),
(735,1067,o),
(725,1027,o),
(710,968,cs),
(525,227,ls),
(512,173,o),
(497,140,o),
(475,118,cs),
(452,95,o),
(410,77,o),
(343,75,c),
(343,-2,l)
);
}
);
};
backgroundImage = {
imagePath = "Mergenthaler docs/Kursiv/uc2.tiff";
locked = 1;
pos = (-3167,-427);
scale = (23.7568,23.7568);
};
hints = (
{
name = _corner.universal;
origin = (0,50);
type = Corner;
},
{
name = _corner.universal;
origin = (0,51);
type = Corner;
},
{
name = _corner.universal;
origin = (0,27);
type = Corner;
},
{
name = _corner.universal;
origin = (0,28);
type = Corner;
},
{
name = _corner.universal;
origin = (0,43);
type = Corner;
},
{
name = _corner.universal;
origin = (0,44);
type = Corner;
},
{
name = _corner.universal;
origin = (0,20);
type = Corner;
},
{
name = _corner.universal;
origin = (0,21);
type = Corner;
},
{
name = _corner.universal;
origin = (0,65);
type = Corner;
},
{
name = _corner.universal;
origin = (0,66);
type = Corner;
},
{
name = _corner.universal;
origin = (0,5);
type = Corner;
},
{
name = _corner.universal;
origin = (0,6);
type = Corner;
}
);
layerId = master01;
shapes = (
{
closed = 1;
nodes = (
(417,-2,o),
(505,6,o),
(574,6,cs),
(637,6,o),
(712,-2,o),
(863,-2,c),
(863,76,l),
(747,78,o),
(715,90,o),
(702,103,cs),
(682,123,o),
(688,161,o),
(702,218,cs),
(766,472,l),
(1072,919,ls),
(1117,985,o),
(1161,1043,o),
(1199,1081,cs),
(1239,1121,o),
(1278,1133,o),
(1321,1135,c),
(1321,1212,l),
(1248,1212,o),
(1188,1204,o),
(1129,1204,cs),
(1042,1204,o),
(972,1212,o),
(900,1212,c),
(900,1135,l),
(1007,1133,o),
(1050,1123,o),
(1050,1088,cs),
(1050,1060,o),
(1024,1012,o),
(977,943,cs),
(724,571,l),
(759,564,l),
(571,964,ls),
(539,1033,o),
(544,1073,o),
(562,1096,cs),
(587,1127,o),
(628,1133,o),
(706,1134,c),
(706,1212,l),
(617,1212,o),
(515,1204,o),
(439,1204,cs),
(356,1204,o),
(280,1212,o),
(161,1212,c),
(161,1135,l),
(242,1132,o),
(277,1116,o),
(303,1091,cs),
(335,1060,o),
(352,1031,o),
(384,962,cs),
(596,511,l),
(525,227,ls),
(512,173,o),
(497,140,o),
(475,118,cs),
(452,95,o),
(410,77,o),
(309,75,c),
(309,-2,l)
);
}
);
userData = {
com.typemytype.robofont.guides = (
{
angle = 90;
isGlobal = 0;
magnetic = 5;
x = 665;
y = 0;
}
);
};
width = 1150;
}
);
unicode = 89;
},
{
glyphname = Z;
kernLeft = Z;
kernRight = Z;
lastChange = "2021-05-10 21:14:21 +0000";
layers = (
{
anchors = (
{
name = bottom;
pos = (575,0);
},
{
name = center;
pos = (575,605);
},
{
name = top;
pos = (590,1210);
}
);
hints = (
{
name = _corner.universal;
origin = (0,2);
type = Corner;
},
{
name = _corner.universal;
origin = (0,3);
type = Corner;
},
{
name = _corner.universal;
origin = (0,12);
type = Corner;
},
{
name = _corner.universal;
origin = (0,13);
type = Corner;
},
{
name = _corner.universal;
origin = (0,20);
type = Corner;
},
{
name = _corner.universal;
origin = (0,23);
type = Corner;
},
{
name = _corner.universal;
origin = (0,24);
type = Corner;
},
{
name = _corner.universal;
origin = (0,33);
type = Corner;
},
{
name = _corner.universal;
origin = (0,34);
type = Corner;
},
{
name = _corner.universal;
origin = (0,41);
type = Corner;
}
);
layerId = "CA4EC710-46DE-40B5-AF89-3BCF48EEB297";
shapes = (
{
closed = 1;
nodes = (
(1012,134,o),
(1022,279,o),
(1037,430,c),
(971,430,l),
(905,132,o),
(833,60,o),
(542,60,cs),
(250,60,l),
(250,61,l),
(848,912,ls),
(901,987,o),
(968,1073,o),
(1041,1158,c),
(1025,1214,l),
(926,1211,o),
(838,1210,o),
(741,1210,cs),
(673,1210,ls),
(519,1210,o),
(338,1214,o),
(154,1228,c),
(152,1076,o),
(138,928,o),
(121,789,c),
(187,789,l),
(243,1067,o),
(333,1150,o),
(569,1150,cs),
(836,1150,l),
(836,1149,l),
(202,250,ls),
(153,181,o),
(111,129,o),
(45,52,c),
(62,-4,l),
(148,-2,o),
(258,0,o),
(391,0,cs),
(603,0,ls),
(739,0,o),
(874,-3,o),
(1006,-8,c)
);
}
);
userData = {
com.typemytype.robofont.mark = (
0.656,
1,
0.6,
1
);
};
width = 1150;
},
{
anchors = (
{
name = bottom;
pos = (575,0);
},
{
name = center;
pos = (575,605);
},
{
name = top;
pos = (590,1210);
}
);
background = {
shapes = (
{
closed = 1;
nodes = (
(1018,1214,l),
(930,1212,o),
(840,1210,o),
(741,1210,cs),
(673,1210,ls),
(521,1210,o),
(343,1214,o),
(161,1228,c),
(144,1213,l),
(140,1068,o),
(129,914,o),
(112,785,c),
(126,769,l),
(181,769,l),
(198,783,l),
(253,1052,o),
(340,1130,o),
(569,1130,cs),
(846,1130,l),
(846,1170,l),
(194,266,ls),
(146,200,o),
(102,144,o),
(43,75,c),
(37,53,l),
(51,9,l),
(69,-4,l),
(154,-2,o),
(261,0,o),
(391,0,cs),
(603,0,ls),
(737,0,o),
(866,-4,o),
(1001,-8,c),
(1017,8,l),
(1022,140,o),
(1032,287,o),
(1046,434,c),
(1030,450,l),
(978,450,l),
(960,436,l),
(895,147,o),
(825,80,o),
(542,80,cs),
(240,80,l),
(240,40,l),
(856,896,ls),
(908,969,o),
(972,1052,o),
(1043,1135,c),
(1049,1157,l),
(1036,1200,l)
);
}
);
};
hints = (
{
name = _corner.universal;
origin = (0,33);
type = Corner;
},
{
name = _corner.universal;
origin = (0,34);
type = Corner;
},
{
name = _corner.universal;
origin = (0,41);
type = Corner;
},
{
name = _corner.universal;
origin = (0,2);
type = Corner;
},
{
name = _corner.universal;
origin = (0,3);
type = Corner;
},
{
name = _corner.universal;
origin = (0,12);
type = Corner;
},
{
name = _corner.universal;
origin = (0,13);
type = Corner;
},
{
name = _corner.universal;
origin = (0,20);
type = Corner;
},
{
name = _corner.universal;
origin = (0,23);
type = Corner;
},
{
name = _corner.universal;
origin = (0,24);
type = Corner;
}
);
layerId = "25879A17-30FE-49F5-8BDD-4D78448C8558";
shapes = (
{
closed = 1;
nodes = (
(1022,140,o),
(1032,292,o),
(1048,450,c),
(963,450,l),
(897,149,o),
(830,80,o),
(542,80,cs),
(240,80,l),
(240,40,l),
(856,896,ls),
(910,972,o),
(978,1059,o),
(1052,1146,c),
(1032,1214,l),
(930,1211,o),
(840,1210,o),
(741,1210,cs),
(673,1210,ls),
(516,1210,o),
(332,1214,o),
(144,1229,c),
(143,1069,o),
(128,914,o),
(110,769,c),
(195,769,l),
(250,1049,o),
(336,1130,o),
(569,1130,cs),
(846,1130,l),
(846,1170,l),
(194,266,ls),
(144,196,o),
(102,144,o),
(34,64,c),
(55,-4,l),
(142,-2,o),
(254,0,o),
(391,0,cs),
(603,0,ls),
(742,0,o),
(881,-3,o),
(1016,-8,c)
);
}
);
width = 1150;
},
{
anchors = (
{
name = bottom;
pos = (475,0);
},
{
name = center;
pos = (626,605);
},
{
name = top;
pos = (720,1210);
}
);
backgroundImage = {
imagePath = "Mergenthaler docs/Kursiv/uc2.tiff";
locked = 1;
pos = (-4584,-427);
scale = (23.7568,23.7568);
};
hints = (
{
name = _corner.universal;
origin = (0,2);
type = Corner;
},
{
name = _corner.universal;
origin = (0,3);
type = Corner;
},
{
name = _corner.universal;
origin = (0,12);
type = Corner;
},
{
name = _corner.universal;
origin = (0,13);
type = Corner;
},
{
name = _corner.universal;
origin = (0,20);
type = Corner;
},
{
name = _corner.universal;
origin = (0,23);
type = Corner;
},
{
name = _corner.universal;
origin = (0,24);
type = Corner;
},
{
name = _corner.universal;
origin = (0,33);
type = Corner;
},
{
name = _corner.universal;
origin = (0,34);
type = Corner;
},
{
name = _corner.universal;
origin = (0,41);
type = Corner;
}
);
layerId = master01;
shapes = (
{
closed = 1;
nodes = (
(986,153,o),
(1027,313,o),
(1075,474,c),
(992,495,l),
(921,259,o),
(831,80,o),
(488,80,cs),
(256,80,l),
(265,40,l),
(917,896,ls),
(973,969,o),
(1051,1059,o),
(1129,1146,c),
(1129,1214,l),
(1020,1211,o),
(913,1210,o),
(807,1210,cs),
(650,1210,ls),
(531,1210,o),
(428,1214,o),
(262,1229,c),
(255,1078,o),
(234,928,o),
(201,779,c),
(285,766,l),
(349,1049,o),
(419,1130,o),
(701,1130,cs),
(913,1130,l),
(913,1170,l),
(224,266,ls),
(172,198,o),
(125,144,o),
(50,64,c),
(50,-4,l),
(142,-2,o),
(261,0,o),
(407,0,cs),
(584,0,ls),
(732,0,o),
(846,-4,o),
(956,-8,c)
);
}
);
width = 1150;
}
);
unicode = 90;
},
